<svg xmlns="http://www.w3.org/2000/svg" width="1728" height="720" viewBox="0 0 1728 720"><path fill="#333" fill-rule="evenodd" d="M263.2 375.6c0-5-2.6-9.6-6.9-12.1l-115-66.2c-1.9-1.1-4.1-1.7-6.3-1.8h-1.2c-2.2.1-4.4.7-6.3 1.8l-115 66.2c-4.3 2.5-7 7.1-7 12.1l.3 178.2c0 2.5 1.3 4.8 3.5 6 2.1 1.3 4.8 1.3 6.9 0l68.3-39.1c4.3-2.6 7-7.1 7-12.1v-83.3c0-5 2.6-9.6 6.9-12l29.1-16.8c2.2-1.3 4.5-1.9 7-1.9 2.4 0 4.8.6 6.9 1.9l29.1 16.8c4.3 2.5 6.9 7.1 6.9 12v83.3c0 5 2.7 9.5 7 12.1l68.3 39.1c2.1 1.3 4.8 1.3 6.9 0 2.1-1.2 3.5-3.5 3.5-6l.1-178.2zm614.1-245c-2.2-1.2-4.8-1.2-6.9.1-2.1 1.2-3.4 3.5-3.4 6v176.5c0 1.7-.9 3.3-2.4 4.2-1.5.9-3.4.9-4.9 0l-28.8-16.6c-4.3-2.5-9.6-2.5-13.9 0l-115 66.4c-4.3 2.5-6.9 7.1-6.9 12V512c0 5 2.6 9.5 6.9 12l115 66.4c4.3 2.5 9.6 2.5 13.9 0L946 524c4.3-2.5 6.9-7.1 6.9-12V181c0-5-2.7-9.7-7.1-12.1l-68.5-38.3zm-10.7 337.8c0 1.2-.7 2.4-1.7 3l-39.5 22.8c-1.1.6-2.4.6-3.5 0l-39.5-22.8c-1.1-.6-1.7-1.8-1.7-3v-45.6c0-1.2.7-2.4 1.7-3l39.5-22.8c1.1-.6 2.4-.6 3.5 0l39.5 22.8c1.1.6 1.7 1.8 1.7 3v45.6zm422.3-46.8c4.3-2.5 6.9-7.1 6.9-12v-32.2c0-4.9-2.6-9.5-6.9-12L1174.6 299c-4.3-2.5-9.6-2.5-13.9 0l-115 66.4c-4.3 2.5-6.9 7.1-6.9 12v132.8c0 5 2.7 9.6 7 12.1l114.3 65.1c4.2 2.4 9.4 2.4 13.6.1l69.1-38.4c2.2-1.2 3.6-3.5 3.6-6s-1.3-4.8-3.5-6.1l-115.7-66.4c-2.2-1.2-3.5-3.5-3.5-6V423c0-2.5 1.3-4.8 3.5-6l36-20.8c2.1-1.2 4.8-1.2 6.9 0l36 20.8c2.2 1.2 3.5 3.5 3.5 6v32.7c0 2.5 1.3 4.8 3.5 6 2.2 1.2 4.8 1.2 7 0l68.8-40.1z" clip-rule="evenodd"/><path fill="#80bd01" fill-rule="evenodd" d="M472.4 298.3c4.3-2.5 9.6-2.5 13.9 0l115 66.4c4.3 2.5 6.9 7.1 6.9 12v132.9c0 5-2.6 9.5-6.9 12l-115 66.4c-4.3 2.5-9.6 2.5-13.9 0l-115-66.4c-4.3-2.5-6.9-7.1-6.9-12V376.7c0-5 2.6-9.5 6.9-12l115-66.4z" clip-rule="evenodd"/><path fill="#80bd01" d="M1512.2 589.9c-4 0-7.9-1-11.4-3l-36.2-21.4c-5.4-3-2.8-4.1-1-4.7 7.2-2.5 8.7-3.1 16.4-7.4.8-.5 1.9-.3 2.7.2l27.8 16.5c1 .6 2.4.6 3.4 0l108.5-62.6c1-.6 1.7-1.7 1.7-2.9V379.3c0-1.2-.6-2.4-1.7-3L1514 313.8c-1-.6-2.3-.6-3.3 0l-108.4 62.6c-1.1.6-1.7 1.8-1.7 3v125.2c0 1.2.7 2.3 1.7 2.9l29.7 17.2c16.1 8.1 26-1.4 26-11V390c0-1.7 1.4-3.1 3.2-3.1h13.8c1.7 0 3.1 1.4 3.1 3.1v123.6c0 21.5-11.7 33.9-32.1 33.9-6.3 0-11.2 0-25-6.8l-28.4-16.4c-7-4.1-11.4-11.7-11.4-19.8V379.3c0-8.1 4.4-15.7 11.4-19.8l108.5-62.7c6.9-3.9 16-3.9 22.8 0l108.5 62.7c7 4.1 11.4 11.6 11.4 19.8v125.2c0 8.1-4.4 15.7-11.4 19.8l-108.5 62.6c-3.7 2-7.7 3-11.7 3z"/><path fill="#80bd01" d="M1545.7 503.7c-47.5 0-57.4-21.8-57.4-40.1 0-1.7 1.4-3.1 3.1-3.1h14c1.6 0 2.9 1.1 3.1 2.7 2.1 14.3 8.4 21.5 37.1 21.5 22.9 0 32.6-5.2 32.6-17.3 0-7-2.8-12.2-38.3-15.7-29.7-2.9-48-9.5-48-33.2 0-21.9 18.4-34.9 49.4-34.9 34.7 0 51.9 12.1 54.1 37.9.1.9-.2 1.7-.8 2.4-.6.6-1.4 1-2.3 1h-14.1c-1.5 0-2.7-1-3-2.4-3.4-15-11.6-19.8-33.9-19.8-24.9 0-27.8 8.7-27.8 15.2 0 7.9 3.4 10.2 37.1 14.6 33.3 4.4 49.2 10.6 49.2 34.1 0 23.6-19.7 37.1-54.1 37.1z"/><path fill="#80bd01" fill-rule="evenodd" d="M1165.9 415.4c.8-.5 1.8-.5 2.7 0l22.1 12.7c.8.5 1.3 1.4 1.3 2.3v25.5c0 1-.5 1.8-1.3 2.3l-22.1 12.7c-.8.5-1.8.5-2.7 0l-22.1-12.7c-.8-.5-1.3-1.4-1.3-2.3v-25.5c0-1 .5-1.8 1.3-2.3l22.1-12.7z" clip-rule="evenodd"/><path fill="#80bd01" d="M1718.5 330.8c0 11.5-9.4 20.9-20.9 20.9-11.4 0-20.9-9.3-20.9-20.9 0-11.8 9.7-20.9 20.9-20.9 11.3 0 20.9 9 20.9 20.9zm-38.4-.1c0 9.7 7.9 17.6 17.5 17.6 9.7 0 17.6-8 17.6-17.6 0-9.7-8-17.5-17.6-17.5-9.5 0-17.5 7.7-17.5 17.5zm9.7-11.7h8.1c2.8 0 8.2 0 8.2 6.2 0 4.3-2.8 5.2-4.4 5.8 3.2.2 3.4 2.3 3.9 5.3.2 1.9.6 5.1 1.2 6.2h-5c-.1-1.1-.9-7.1-.9-7.4-.3-1.3-.8-2-2.4-2h-4.1v9.4h-4.5V319zm4.4 10.3h3.6c3 0 3.5-2.1 3.5-3.3 0-3.2-2.2-3.2-3.4-3.2h-3.8v6.5z"/></svg>