<svg width="57" height="67" fill="none" xmlns="http://www.w3.org/2000/svg"><g clip-path="url(#clip0_337_7894)"><path fill-rule="evenodd" clip-rule="evenodd" d="M26.987 1.383a3.103 3.103 0 0 1 3.078 0L55.413 16.09c.966.545 1.509 1.573 1.509 2.663v29.35c0 1.09-.604 2.118-1.51 2.663L30.066 65.471a3.104 3.104 0 0 1-3.078 0L1.639 50.764c-.966-.545-1.51-1.574-1.51-2.663v-29.41c0-1.09.604-2.119 1.51-2.664L26.987 1.383Z" fill="url(#paint0_linear_337_7894)"/><path opacity=".66" d="M55.292 16.028 30.065 1.323a4.184 4.184 0 0 0-.785-.303L.733 50.04c.242.302.544.544.845.726l25.409 14.706c.784.423 1.63.544 2.414.242l26.676-48.958c-.181-.303-.483-.545-.785-.727Z" fill="#B4B4B4"/><path d="m30.005 65.47 25.287-14.705c.966-.545 1.388-1.574 1.388-2.663v-.12L29.28 1.08c-.784-.242-1.63-.121-2.354.302L1.82 15.907 29.1 65.773c.361-.06.663-.181.904-.302Z" fill="url(#paint1_linear_337_7894)"/></g><defs><linearGradient id="paint0_linear_337_7894" x1=".117" y1="33.414" x2="56.971" y2="33.414" gradientUnits="userSpaceOnUse"><stop offset=".005"/><stop offset=".194" stop-color="#171717"/><stop offset=".542" stop-color="#3D3D3D"/><stop offset=".824" stop-color="#545454"/><stop offset="1" stop-color="#5C5C5C"/></linearGradient><linearGradient id="paint1_linear_337_7894" x1="-.276" y1="33.372" x2="58.373" y2="33.372" gradientUnits="userSpaceOnUse"><stop stop-color="#5C5C5C"/><stop offset=".176" stop-color="#545454"/><stop offset=".458" stop-color="#3D3D3D"/><stop offset=".806" stop-color="#171717"/><stop offset=".995"/></linearGradient><clipPath id="clip0_337_7894"><path fill="#fff" d="M0 .5h57v66H0z"/></clipPath></defs></svg>
