<svg width="63" height="77" fill="none" xmlns="http://www.w3.org/2000/svg"><g clip-path="url(#clip0_337_7895)"><path d="M33.31 6.401a3.366 3.366 0 0 0-3.332 0L2.476 22.28C1.43 22.866.843 23.977.843 25.152v31.82c0 1.176.653 2.287 1.633 2.875l27.502 15.877a3.367 3.367 0 0 0 3.331 0l27.503-15.877c1.045-.588 1.633-1.7 1.633-2.875v-31.82a3.404 3.404 0 0 0-1.633-2.874L33.31 6.4Z" fill="url(#paint0_linear_337_7895)"/><path d="M60.877 22.279 33.244 6.4a4.533 4.533 0 0 0-.85-.326L1.5 59c.261.327.673.804 1 1l27.478 15.725c.784.457 1.698.588 2.548.327l29.07-53.186a2.043 2.043 0 0 0-.72-.587Z" fill="url(#paint1_linear_337_7895)"/><path d="m29.063.586-.392.196h.523l-.13-.196Z" fill="url(#paint2_linear_337_7895)"/><path d="M60.809 59.848c.784-.458 1.491-1.315 1.491-2.348L32.196 6.01c-.784-.131-1.633-.066-2.352.391L2.408 22.213 32 76.183c.392-.066.85-.197 1.241-.393L60.81 59.848Z" fill="url(#paint3_linear_337_7895)"/></g><defs><linearGradient id="paint0_linear_337_7895" x1="42.844" y1="18.226" x2="17.971" y2="68.959" gradientUnits="userSpaceOnUse"><stop stop-color="#3F873F"/><stop offset=".33" stop-color="#3F8B3D"/><stop offset=".637" stop-color="#3E9638"/><stop offset=".934" stop-color="#3DA92E"/><stop offset="1" stop-color="#3DAE2B"/></linearGradient><linearGradient id="paint1_linear_337_7895" x1="27.464" y1="44.779" x2="97.246" y2="-6.77" gradientUnits="userSpaceOnUse"><stop offset=".138" stop-color="#3F873F"/><stop offset=".402" stop-color="#52A044"/><stop offset=".713" stop-color="#64B749"/><stop offset=".908" stop-color="#6ABF4B"/></linearGradient><linearGradient id="paint2_linear_337_7895" x1="-.166" y1=".663" x2="63.473" y2=".663" gradientUnits="userSpaceOnUse"><stop offset=".092" stop-color="#6ABF4B"/><stop offset=".287" stop-color="#64B749"/><stop offset=".598" stop-color="#52A044"/><stop offset=".862" stop-color="#3F873F"/></linearGradient><linearGradient id="paint3_linear_337_7895" x1="-.165" y1="41.053" x2="63.473" y2="41.053" gradientUnits="userSpaceOnUse"><stop offset=".092" stop-color="#6ABF4B"/><stop offset=".287" stop-color="#64B749"/><stop offset=".598" stop-color="#52A044"/><stop offset=".862" stop-color="#3F873F"/></linearGradient><clipPath id="clip0_337_7895"><path fill="#fff" d="M0 .5h63v76H0z"/></clipPath></defs></svg>
