<svg width="69" height="80" fill="none" xmlns="http://www.w3.org/2000/svg"><g clip-path="url(#clip0_337_7896)"><path fill-rule="evenodd" clip-rule="evenodd" d="M33.023 2.01a3.727 3.727 0 0 1 3.688 0l30.38 17.58c1.158.652 1.809 1.882 1.809 3.184v35.018a3.77 3.77 0 0 1-1.809 3.184l-30.38 17.581a3.727 3.727 0 0 1-3.688 0L2.643 60.976C1.485 60.325.834 59.095.834 57.792v-35.09a3.77 3.77 0 0 1 1.809-3.184L33.023 2.01Z" fill="url(#paint0_linear_337_7896)"/><path opacity=".66" d="M66.946 19.518 36.71 1.937a5.021 5.021 0 0 0-.94-.362L1.556 60.107c.29.362.651.651 1.013.868l30.452 17.582c.94.506 1.953.651 2.893.29l31.971-58.533a2.613 2.613 0 0 0-.94-.796Z" fill="#4B4B4B"/><path d="m36.638 78.557 30.308-17.582c1.157-.65 1.663-1.88 1.663-3.183v-.145L35.77 1.575c-.94-.29-1.953-.145-2.82.362L2.858 19.3l32.694 59.618c.434-.073.796-.145 1.085-.362Z" fill="url(#paint1_linear_337_7896)"/></g><defs><linearGradient id="paint0_linear_337_7896" x1=".828" y1="40.273" x2="68.968" y2="40.273" gradientUnits="userSpaceOnUse"><stop offset=".005" stop-color="#fff"/><stop offset=".194" stop-color="#E8E8E8"/><stop offset=".542" stop-color="#C2C2C2"/><stop offset=".824" stop-color="#ABABAB"/><stop offset="1" stop-color="#A3A3A3"/></linearGradient><linearGradient id="paint1_linear_337_7896" x1=".356" y1="40.223" x2="70.647" y2="40.223" gradientUnits="userSpaceOnUse"><stop stop-color="#A3A3A3"/><stop offset=".176" stop-color="#ABABAB"/><stop offset=".458" stop-color="#C2C2C2"/><stop offset=".806" stop-color="#E8E8E8"/><stop offset=".995" stop-color="#fff"/></linearGradient><clipPath id="clip0_337_7896"><path fill="#fff" d="M0 .5h69v79H0z"/></clipPath></defs></svg>
