<svg width="267" height="80" fill="none" xmlns="http://www.w3.org/2000/svg"><g clip-path="url(#clip0_337_7906)"><mask id="mask0_337_7906" style="mask-type:luminance" maskUnits="userSpaceOnUse" x="0" y="0" width="267" height="80"><path d="M267 .31H0v79.38h267V.31Z" fill="#fff"/></mask><g mask="url(#mask0_337_7906)"><path d="M234.983 79.066a4.012 4.012 0 0 1-1.933-.51l-6.121-3.658c-.921-.51-.46-.695-.184-.787 1.242-.417 1.473-.51 2.761-1.25.138-.093.322-.047.46.046l4.694 2.825c.184.092.415.092.553 0l18.362-10.698c.183-.092.277-.277.277-.509V43.177c0-.231-.094-.416-.277-.509l-18.362-10.65c-.184-.093-.415-.093-.553 0l-18.362 10.65c-.184.093-.276.324-.276.51v21.347c0 .185.092.417.276.51l5.016 2.917c2.716 1.39 4.418-.232 4.418-1.852V45.03c0-.278.23-.556.553-.556h2.347c.276 0 .552.232.552.556V66.1c0 3.658-1.979 5.788-5.43 5.788-1.059 0-1.887 0-4.234-1.158l-4.833-2.778a3.914 3.914 0 0 1-1.933-3.38V43.223c0-1.39.737-2.686 1.933-3.38l18.363-10.698c1.15-.648 2.715-.648 3.865 0l18.363 10.697a3.913 3.913 0 0 1 1.932 3.38v21.348c0 1.39-.736 2.686-1.932 3.38L236.915 78.65c-.552.231-1.242.417-1.932.417Z" fill="#5FA04E"/><path d="M240.69 64.386c-8.055 0-9.712-3.704-9.712-6.853 0-.278.23-.556.553-.556h2.393c.276 0 .506.185.506.463.368 2.454 1.426 3.658 6.305 3.658 3.866 0 5.523-.88 5.523-2.963 0-1.204-.462-2.084-6.49-2.686-5.016-.51-8.145-1.62-8.145-5.65 0-3.75 3.129-5.973 8.375-5.973 5.892 0 8.791 2.037 9.159 6.483a.756.756 0 0 1-.137.416c-.094.093-.231.186-.368.186h-2.44a.541.541 0 0 1-.507-.417c-.553-2.547-1.98-3.38-5.753-3.38-4.234 0-4.74 1.482-4.74 2.593 0 1.343.598 1.76 6.305 2.5 5.66.741 8.33 1.806 8.33 5.789 0 4.075-3.36 6.39-9.157 6.39ZM267.2 41.974c0 1.944-1.612 3.565-3.546 3.565a3.556 3.556 0 0 1-3.543-3.565 3.556 3.556 0 0 1 3.543-3.566c1.888 0 3.546 1.574 3.546 3.566Zm-6.536 0c0 1.667 1.335 3.01 2.944 3.01 1.658 0 2.993-1.39 2.993-3.01 0-1.668-1.335-2.964-2.993-2.964a2.975 2.975 0 0 0-2.944 2.964Zm1.657-1.992h1.381c.46 0 1.381 0 1.381 1.065 0 .741-.462.88-.739.973.554.046.599.417.645.926.046.324.094.88.185 1.065h-.83c0-.185-.137-1.204-.137-1.25-.045-.232-.137-.324-.413-.324h-.691v1.62h-.782v-4.075Zm.736 1.76h.597c.508 0 .599-.37.599-.556 0-.555-.368-.555-.599-.555h-.642v1.111h.045Z" fill="#5FA04E"/><path fill-rule="evenodd" clip-rule="evenodd" d="M43.674 42.265c0-.833-.46-1.62-1.197-2.038L23.01 28.883c-.322-.185-.69-.277-1.058-.324h-.184c-.368 0-.736.14-1.059.324l-19.512 11.3A2.377 2.377 0 0 0 0 42.264l.046 30.377c0 .417.23.834.598 1.02.368.23.829.23 1.15 0l11.598-6.669a2.359 2.359 0 0 0 1.197-2.037V50.739c0-.833.46-1.62 1.196-2.037l4.924-2.871a2.22 2.22 0 0 1 1.197-.324c.414 0 .828.092 1.15.324l4.925 2.87a2.359 2.359 0 0 1 1.196 2.038v14.217c0 .833.46 1.62 1.197 2.037l11.505 6.668c.368.232.828.232 1.197 0 .368-.185.598-.602.598-1.019V42.266ZM137.464.45c-.368-.186-.828-.186-1.15 0-.368.231-.598.602-.598 1.018v30.1a.89.89 0 0 1-.415.741.875.875 0 0 1-.828 0l-4.878-2.825a2.36 2.36 0 0 0-2.347 0L107.735 40.83a2.36 2.36 0 0 0-1.197 2.037v22.644c0 .834.461 1.621 1.197 2.038l19.513 11.345a2.36 2.36 0 0 0 2.347 0l19.513-11.345a2.359 2.359 0 0 0 1.196-2.038V9.063c0-.88-.46-1.667-1.196-2.084L137.464.449Zm-1.794 57.606c0 .231-.092.416-.276.51l-6.673 3.89a.68.68 0 0 1-.599 0l-6.673-3.89c-.184-.094-.276-.325-.276-.51v-7.78c0-.231.092-.417.276-.51l6.673-3.889a.68.68 0 0 1 .599 0l6.673 3.89c.184.092.276.324.276.51v7.779ZM202.398 50.091c.736-.417 1.151-1.204 1.151-2.038v-5.51c0-.834-.46-1.62-1.151-2.038l-19.375-11.299a2.36 2.36 0 0 0-2.347 0l-19.513 11.346a2.359 2.359 0 0 0-1.196 2.037v22.644c0 .834.46 1.621 1.196 2.038l19.375 11.114c.737.417 1.611.417 2.301 0l11.736-6.576c.368-.185.598-.602.598-1.019 0-.416-.23-.833-.598-1.018L174.97 58.426c-.368-.231-.599-.602-.599-1.018v-7.086c0-.416.231-.833.599-1.018l6.121-3.52a1.116 1.116 0 0 1 1.196 0l6.121 3.52c.368.231.598.602.598 1.018v5.557c0 .417.23.834.598 1.02.369.23.829.23 1.197 0l11.597-6.808Z" fill="#fff"/><path fill-rule="evenodd" clip-rule="evenodd" d="M181.551 49.026a.417.417 0 0 1 .461 0l3.727 2.176c.138.093.23.232.23.417v4.353a.487.487 0 0 1-.23.417l-3.727 2.176a.417.417 0 0 1-.461 0l-3.728-2.176a.486.486 0 0 1-.229-.417V51.62c0-.185.091-.324.229-.417l3.728-2.176Z" fill="#5FA04E"/><path d="M76.301 29.299a2.36 2.36 0 0 0-2.347 0L54.58 40.552c-.737.417-1.151 1.204-1.151 2.037v22.552c0 .834.46 1.62 1.15 2.037l19.375 11.253a2.36 2.36 0 0 0 2.347 0l19.375-11.253c.736-.416 1.15-1.203 1.15-2.037V42.589c0-.833-.46-1.62-1.15-2.037L76.301 29.299Z" fill="url(#paint0_linear_337_7906)"/><path d="M95.722 40.552 76.255 29.299a3.19 3.19 0 0 0-.598-.232L53.843 66.623c.184.231.414.416.644.555l19.467 11.253c.552.324 1.197.417 1.795.231l20.48-37.694a1.438 1.438 0 0 0-.507-.416Z" fill="url(#paint1_linear_337_7906)"/><path d="m73.31 25.178-.276.139h.369l-.092-.14Z" fill="url(#paint2_linear_337_7906)"/><path d="M95.722 67.178c.553-.324.967-.88 1.151-1.481L75.565 29.02c-.552-.092-1.15-.046-1.656.278l-19.33 11.206 20.848 38.25c.276-.046.598-.139.875-.278l19.42-11.299Z" fill="url(#paint3_linear_337_7906)"/><path d="m97.563 66.808-.138-.232v.325l.138-.093Z" fill="url(#paint4_linear_337_7906)"/><path d="m95.723 67.178-19.42 11.253a2.768 2.768 0 0 1-.875.278l.368.694 21.538-12.549v-.278l-.552-.926c-.046.648-.46 1.204-1.059 1.528Z" fill="url(#paint5_linear_337_7906)"/><path d="m95.723 67.178-19.42 11.253a2.768 2.768 0 0 1-.875.278l.368.694 21.538-12.549v-.278l-.552-.926c-.046.648-.46 1.204-1.059 1.528Z" fill="url(#paint6_linear_337_7906)"/></g></g><defs><linearGradient id="paint0_linear_337_7906" x1="83.018" y1="37.679" x2="65.325" y2="73.552" gradientUnits="userSpaceOnUse"><stop stop-color="#3F873F"/><stop offset=".33" stop-color="#3F8B3D"/><stop offset=".637" stop-color="#3E9638"/><stop offset=".934" stop-color="#3DA92E"/><stop offset="1" stop-color="#3DAE2B"/></linearGradient><linearGradient id="paint1_linear_337_7906" x1="72.183" y1="56.498" x2="121.552" y2="20.248" gradientUnits="userSpaceOnUse"><stop offset=".138" stop-color="#3F873F"/><stop offset=".402" stop-color="#52A044"/><stop offset=".713" stop-color="#64B749"/><stop offset=".908" stop-color="#6ABF4B"/></linearGradient><linearGradient id="paint2_linear_337_7906" x1="52.72" y1="25.232" x2="97.55" y2="25.232" gradientUnits="userSpaceOnUse"><stop offset=".092" stop-color="#6ABF4B"/><stop offset=".287" stop-color="#64B749"/><stop offset=".598" stop-color="#52A044"/><stop offset=".862" stop-color="#3F873F"/></linearGradient><linearGradient id="paint3_linear_337_7906" x1="52.719" y1="53.858" x2="97.551" y2="53.858" gradientUnits="userSpaceOnUse"><stop offset=".092" stop-color="#6ABF4B"/><stop offset=".287" stop-color="#64B749"/><stop offset=".598" stop-color="#52A044"/><stop offset=".862" stop-color="#3F873F"/></linearGradient><linearGradient id="paint4_linear_337_7906" x1="52.716" y1="66.736" x2="97.551" y2="66.736" gradientUnits="userSpaceOnUse"><stop offset=".092" stop-color="#6ABF4B"/><stop offset=".287" stop-color="#64B749"/><stop offset=".598" stop-color="#52A044"/><stop offset=".862" stop-color="#3F873F"/></linearGradient><linearGradient id="paint5_linear_337_7906" x1="52.72" y1="72.557" x2="97.552" y2="72.557" gradientUnits="userSpaceOnUse"><stop offset=".092" stop-color="#6ABF4B"/><stop offset=".287" stop-color="#64B749"/><stop offset=".598" stop-color="#52A044"/><stop offset=".862" stop-color="#3F873F"/></linearGradient><linearGradient id="paint6_linear_337_7906" x1="104.084" y1="36.614" x2="76.156" y2="93.233" gradientUnits="userSpaceOnUse"><stop stop-color="#3F873F"/><stop offset=".33" stop-color="#3F8B3D"/><stop offset=".637" stop-color="#3E9638"/><stop offset=".934" stop-color="#3DA92E"/><stop offset="1" stop-color="#3DAE2B"/></linearGradient><clipPath id="clip0_337_7906"><path fill="#fff" d="M0 0h267v80H0z"/></clipPath></defs></svg>