<svg width="56" height="56" viewBox="0 0 56 56" fill="none" xmlns="http://www.w3.org/2000/svg">
<circle cx="28" cy="28" r="28" fill="#EDF2EB"/>
<path d="M40.3045 33.5176C39.8433 34.583 39.2974 35.5637 38.665 36.4653C37.8028 37.6945 37.097 38.5453 36.553 39.0178C35.7097 39.7933 34.8061 40.1905 33.8386 40.2131C33.144 40.2131 32.3064 40.0155 31.3313 39.6145C30.353 39.2155 29.454 39.0178 28.632 39.0178C27.7699 39.0178 26.8453 39.2155 25.8563 39.6145C24.8658 40.0155 24.0679 40.2244 23.4578 40.2451C22.53 40.2846 21.6052 39.8762 20.6821 39.0178C20.0929 38.5039 19.356 37.623 18.4731 36.375C17.5259 35.0423 16.7472 33.4969 16.1371 31.735C15.4838 29.8319 15.1562 27.9891 15.1562 26.205C15.1562 24.1613 15.5979 22.3987 16.4824 20.9216C17.1775 19.7352 18.1023 18.7993 19.2598 18.1122C20.4172 17.4252 21.6679 17.075 23.0147 17.0526C23.7516 17.0526 24.718 17.2806 25.919 17.7286C27.1165 18.1781 27.8855 18.406 28.2226 18.406C28.4746 18.406 29.3289 18.1395 30.777 17.6081C32.1464 17.1153 33.3021 16.9113 34.249 16.9916C36.8146 17.1987 38.7421 18.2101 40.024 20.0322C37.7294 21.4225 36.5944 23.3698 36.617 25.8679C36.6377 27.8137 37.3435 29.4329 38.7308 30.7185C39.3595 31.3152 40.0617 31.7764 40.8428 32.1039C40.6734 32.5952 40.4946 33.0658 40.3045 33.5176ZM34.4202 10.3628C34.4202 11.8879 33.8631 13.3118 32.7525 14.6299C31.4122 16.1967 29.7912 17.1021 28.0332 16.9593C28.0108 16.7763 27.9978 16.5837 27.9978 16.3814C27.9978 14.9173 28.6352 13.3504 29.7671 12.0693C30.3322 11.4206 31.0508 10.8813 31.9224 10.451C32.792 10.0272 33.6146 9.79282 34.3883 9.75269C34.4108 9.95656 34.4202 10.1605 34.4202 10.3627V10.3628Z" fill="#5FA04E"/>
</svg>
