<svg width="48" height="48" viewBox="0 0 48 48" fill="none" xmlns="http://www.w3.org/2000/svg">
<circle cx="24" cy="24" r="24" fill="#EDF2EB"/>
<g clip-path="url(#clip0)">
<path d="M24.5811 24.2351V35.5396L36.0002 30.2086V18.9044L24.5811 24.2351Z" fill="#5FA04E"/>
<path d="M23.5151 24.1736L19.3701 22.2408C19.3491 22.2309 19.324 22.2325 19.3045 22.2451C19.2848 22.2576 19.2728 22.2797 19.2728 22.3029V24.7199L16.282 23.3252V20.8442C16.282 20.8178 16.2663 20.7935 16.2423 20.7823L12.0973 18.8495C12.0763 18.8397 12.0512 18.8413 12.0315 18.8538C12.012 18.8663 12 18.8879 12 18.9114V30.2156C12 30.2423 12.0157 30.2663 12.0395 30.2778L23.457 35.6015C23.4663 35.6063 23.4762 35.6082 23.4861 35.6082C23.4989 35.6082 23.5114 35.6045 23.5226 35.5973C23.5423 35.5847 23.5546 35.5629 23.5546 35.5394V24.2357C23.5549 24.209 23.5394 24.185 23.5151 24.1736Z" fill="#5FA04E"/>
<path d="M12.7872 18.1146L16.8323 20.0007C16.8413 20.005 16.8512 20.0071 16.8611 20.0071C16.8709 20.0071 16.8808 20.005 16.8898 20.0007L28.1112 14.7695C28.1357 14.7583 28.1506 14.7343 28.1506 14.7076C28.1506 14.6812 28.1354 14.657 28.1112 14.6455L24.0629 12.7604C24.0443 12.7519 24.0235 12.7519 24.0045 12.7604L12.7872 17.9906C12.7632 18.0018 12.748 18.0261 12.748 18.0525C12.748 18.0791 12.7632 18.1034 12.7872 18.1146Z" fill="#5FA04E"/>
<path d="M35.3208 18.0463C35.3208 18.0196 35.3053 17.9956 35.2816 17.9844L31.2414 16.1031C31.2233 16.0945 31.2019 16.0945 31.1835 16.1031L19.9601 21.3351C19.9361 21.3463 19.9209 21.3708 19.9209 21.3972C19.9209 21.4236 19.9364 21.4479 19.9601 21.4591L24.0046 23.345C24.0136 23.3492 24.0238 23.3514 24.0334 23.3514C24.0435 23.3514 24.0531 23.349 24.0622 23.345L35.2811 18.1084C35.3053 18.0972 35.3208 18.0727 35.3208 18.0463Z" fill="#5FA04E"/>
</g>
<defs>
<clipPath id="clip0">
<rect x="12" y="12" width="24" height="23.7368" fill="white"/>
</clipPath>
</defs>
</svg>
