<?xml version="1.0" encoding="UTF-8" standalone="no"?>
<svg xmlns:dc="http://purl.org/dc/elements/1.1/"
  xmlns:cc="http://creativecommons.org/ns#"
  xmlns:rdf="http://www.w3.org/1999/02/22-rdf-syntax-ns#"
  xmlns:svg="http://www.w3.org/2000/svg"
  xmlns="http://www.w3.org/2000/svg"
  xmlns:sodipodi="http://sodipodi.sourceforge.net/DTD/sodipodi-0.dtd"
  xmlns:inkscape="http://www.inkscape.org/namespaces/inkscape" version="1.1" id="svg2" xml:space="preserve" width="3214.9468" height="3725.3333" viewBox="0 0 3214.9468 3725.3333" sodipodi:docname="Language-Icon-Fireworks [Converted].eps">
  <metadata id="metadata8">
    <rdf:RDF>
      <cc:Work rdf:about="">
        <dc:format>image/svg+xml</dc:format>
        <dc:type rdf:resource="http://purl.org/dc/dcmitype/StillImage" />
      </cc:Work>
    </rdf:RDF>
  </metadata>
  <defs id="defs6" />
  <sodipodi:namedview pagecolor="#ffffff" bordercolor="#666666" borderopacity="1" objecttolerance="10" gridtolerance="10" guidetolerance="10" inkscape:pageopacity="0" inkscape:pageshadow="2" inkscape:window-width="640" inkscape:window-height="480" id="namedview4" />
  <g id="g10" inkscape:groupmode="layer" inkscape:label="ink_ext_XXXXXX" transform="matrix(1.3333333,0,0,-1.3333333,0,3725.3333)">
    <g id="g12" transform="scale(0.1)">
      <path d="m 12045.7,24348.4 -9327.4,3292 V 7339.5 l 9327.4,3017.7 v 13991.2" style="fill:#000000;fill-opacity:0;fill-rule:nonzero;stroke-width:400;stroke:#ffffff" id="path14" />
      <path d="m 11821.8,24358.6 9684.5,3291.9 V 7349.6 l -9684.5,3017.7 v 13991.3" style="fill:#253053;fill-opacity:1;fill-rule:nonzero;stroke:none" id="path16" />
      <path d="M 299.602,3785.7 11821.8,7626.2 V 24360.8 L 299.602,20520.3 V 3785.7" style="fill:#253053;fill-opacity:1;fill-rule:nonzero;stroke:none" id="path18" />
      <path d="M 17072.1,3532.9 18705.1,846.301 19566.2,3342 Z" style="fill:#ffffff;fill-opacity:1;fill-rule:nonzero;stroke:none" id="path20" />
      <path d="m 4217.4,18592.5 c -61.2,60.1 79.7,-491.1 275.8,-689.4 347.7,-350.8 619.3,-396 763.9,-401.8 320,-12.8 714.9,79.7 949.4,178 226.9,96.8 624.5,299.8 775,595.9 31/.9,63.3 119,169.6 64.3,432.2 -41.5,202 -170.1,272.7 -326.9,261.5 -156.8,-10.6 -631.5,-137.2 -861.1,-207.8 -229.7,-69.7 -702.8,-213.7 -909,-258.4 -205.7,-44.6 -659.2,20.7 -731.4,89.8" style="fill:#ffffff;fill-opacity:1;fill-rule:nonzero;stroke:none" id="path22" />
      <path d="m 10031,12003.3 c -90.8,33 -1969.4,811.2 -2235.7,938.7 -217.9,104.8 -752.2,330.7 -1003.6,433.3 708.1,1091.8 1155.1,1915.7 1214.6,2041.2 110.1,229.6 859.6,1696.2 877.1,1786.5 17,91.5 38.3,429.5 21.8,509.8 -16.5,81.9 -291.3,-75.5 -664.4,-202 -373.7,-126 -1083.9,-587.9 -1358.2,-645.8 -275.3,-57.4 -1155.1,-390.7 -1605.3,-540.1 -450.2,-149.4 -1301.8,-409.3 -1652.1,-503.9 -350.8,-94.6 -657,-102.1 -853.2,-161.6 0,0 26.1,-274.8 78.2,-357.2 51.5,-82.4 237.1,-284.4 452.9,-340.8 215.8,-56.8 573,-34 735.7,3.2 162.6,37.8 444.3,175.4 482.1,235.5 38.2,61.1 -19.7,249.3 44.6,306.2 64.9,56.3 922.3,256.7 1246,354.5 323.7,99.5 1562.8,526.3 1730.8,504.5 C 7489.1,16188.8 6492.4,14214.6 6171.4,13625.6 5850.3,13036.7 3985.1,10445.8 3588,9989.2 3286.6,9642.1 2556.2,8753.9 2303.2,8553.5 c 63.8,-17.6 516.1,21.2 598.5,72.2 513.5,316.3 1368.8,1381 1644.2,1705.3 818.6,960 1537.8,1968.4 2108.1,2833.8 h 0.6 c 111.1,-46.3 1009.4,-778.2 1243.8,-940.4 234.4,-162.1 1159.4,-678.2 1359.8,-763.8 200.4,-86.7 970.6,-441.8 1003,-321.6 32.4,121.2 -139.3,829.8 -230.2,864.3" style="fill:#ffffff;fill-opacity:1;fill-rule:nonzero;stroke:none" id="path24" />
      <path d="m 5690,2220 c 180,-110 350,-200 540,-290 380,-190 810,-390 1220,-540 560,-210 1120,-380 1680,-510 310,-70 650,-130 980,-180 30,0 920,-110 1100,-110 h 900 c 350,30 680,50 1030,100 280,40 590,90 890,160 220,50 450,100 670,170 210,60 450,140 680,220 150,50 310,120 470,180 130,60 290,130 440,190 180,80 390,190 590,290 160,80 340,180 510,280 130,70 430,300 590,300 180,0 300,-160 300,-300 0,-290 -390,-380 -570,-510 -190,-130 -420,-230 -620,-340 C 16690,1120 16280,940 15890,790 15380,600 14820,420 14320,300 14130,260 13940,210 13750,180 13650,160 12610,0 12320,0 h -1320 c -350,30 -720,70 -1070,120 -310,50 -640,110 -950,180 -240,50 -500,120 -730,190 -400,110 -790,250 -1170,400 -690,260 -1410,600 -2090,1050 -120,80 -130,160 -130,250 0,150 110,290 290,290 160,0 480,-230 540,-260" style="fill:#ffffff;fill-opacity:1;fill-rule:evenodd;stroke:none" id="path26" />
      <path d="M 12120,24400 V 7600 c -10,-50 -30,-100 -70,-150 -20,-30 -60,-70 -90,-80 C 11710,7270 450,3490 300,3490 c -120,0 -230,80 -290,210 0,10 -10,20 -10,40 v 16810 c 20,50 30,120 70,160 80,110 220,130 310,160 170,60 11260,3780 11420,3780 100,0 320,-70 320,-250 z M 11510,7850 610,4220 v 16080 l 10900,3630 V 7850" style="fill:#ffffff;fill-opacity:1;fill-rule:evenodd;stroke:none" id="path28" />
      <path d="M 21810,27620 V 7390 c -10,-230 -170,-330 -320,-330 -130,0 -1070,320 -1230,370 -1260,390 -2530,780 -3780,1170 -280,90 -570,180 -840,270 -240,70 -500,150 -740,230 -1070,330 -2160,660 -3230,1020 -40,10 -140,150 -140,180 v 14130 c 20,50 40,110 90,150 80,90 3510,1230 4860,1680 360,130 4870,1680 5010,1680 180,0 320,-130 320,-320 z m -610,-19850 -9070,2820 v 13550 l 9070,3080 V 7770" style="fill:#ffffff;fill-opacity:1;fill-rule:evenodd;stroke:none" id="path30" />
      <path d="M 24112.1,3532.9 11995,7395 l 50.7,16813 12066.4,-3840.5 V 3532.9" style="fill:#ffffff;fill-opacity:1;fill-rule:nonzero;stroke:none" id="path32" />
      <path d="M 17289.8,19408.1 18850.9,18935.2 21695,8685 l -1603.5,486.5 -576.1,2104.3 -3313.8,1004.4 -712.6,-1714.2 -1604,486.6 z m 713.7,-2713.6 -1189.3,-2874.6 2186.5,-662.8 z" style="fill:#253053;fill-opacity:1;fill-rule:evenodd;stroke:none" id="path34" />
    </g>
  </g>
</svg>
