<svg xmlns="http://www.w3.org/2000/svg" height="14.797" width="415.78" viewBox="0 0 110.00948 3.914937"><g fill="#fff"><path d="M4.88.04v3.05h2.316v-.73H5.8V.04h-.92zM7.734 3.09h.92V.042h-.92V3.09zM11.816.04v1.69L10.238.04h-.816v3.05h.91v-1.7l1.583 1.7h.818V.04h-.917zM16.584 1.72c0 .26-.05.484-.146.668-.098.184-.227.33-.388.437-.16.107-.333.184-.52.23s-.37.07-.555.07c-.258 0-.51-.043-.754-.13-.243-.09-.447-.24-.61-.45-.166-.21-.248-.486-.248-.825V.037h.918v1.445c0 .2.03.368.087.5s.14.226.242.287c.102.06.225.09.365.09.135 0 .255-.03.36-.09.103-.06.184-.155.242-.286.058-.13.087-.296.087-.497V.037h.92V1.72zM20.658 3.09h-1.182l-.323-.383c-.01-.014-.074-.093-.192-.234-.116-.142-.194-.238-.232-.29-.176.238-.32.426-.432.564l-.28.343h-1.163l1.294-1.587L16.912.04h1.175l.21.255c.12.148.264.333.43.555.16-.235.288-.41.384-.522l.24-.288h1.154l-1.186 1.463 1.34 1.587zM24.584 1.85h-1.266v1.234h-.92V.034h2.186v.612h-1.266v.59h1.266v.614zM27.526 1.56c0-.114-.017-.22-.05-.313-.034-.095-.085-.177-.154-.247-.068-.07-.15-.124-.25-.163-.098-.04-.21-.058-.34-.058-.247 0-.44.07-.582.214-.14.144-.21.333-.21.566s.07.422.212.567c.14.144.334.216.58.216.168 0 .312-.033.43-.1.12-.066.21-.16.272-.277.06-.118.092-.254.092-.406m.938 0c0 .285-.066.546-.197.786-.132.24-.327.43-.587.57-.26.14-.576.21-.95.21-.376 0-.695-.072-.956-.22-.26-.146-.455-.34-.582-.578-.127-.24-.19-.495-.19-.768 0-.274.063-.53.19-.77.125-.237.32-.43.58-.576.263-.146.582-.22.96-.22.28 0 .532.043.753.127.22.084.402.198.545.34.142.144.25.31.323.5s.11.39.11.6M32.12 1.72c0 .26-.048.484-.145.668-.098.184-.227.33-.388.437-.16.107-.333.184-.52.23s-.37.07-.555.07c-.258 0-.51-.043-.754-.13-.244-.09-.448-.24-.612-.45-.165-.21-.247-.486-.247-.825V.037h.917v1.445c0 .2.03.368.087.5s.14.226.242.287c.103.06.226.09.366.09.135 0 .255-.03.36-.09.103-.06.184-.155.242-.286.058-.13.087-.296.087-.497V.037h.92V1.72zM35.972 3.09h-.82l-1.58-1.7v1.7h-.912V.04h.816l1.578 1.69V.04h.918v3.05zM38.847 1.58c0-.248-.047-.44-.142-.58-.095-.138-.208-.23-.34-.278-.134-.047-.27-.07-.407-.07h-.392v1.806h.392c.24 0 .45-.057.625-.172s.264-.35.264-.706m.935.04c0 .312-.056.563-.17.752-.114.19-.248.343-.402.46-.22.172-.524.258-.918.258H36.646V.04h1.268c.19 0 .354.01.49.03.135.02.257.047.366.083.108.036.2.076.277.12s.145.094.205.145c.104.085.195.186.274.3.08.118.14.252.187.404.046.153.07.32.07.498M42.102 1.94L41.655.826l-.45 1.114h.897zm1.402 1.15h-.942l-.25-.62H40.99l-.253.62h-.942l1.35-3.05h1.016l1.344 3.05zM46.29.78h-1.118v2.31h-.918V.78h-1.118V.038h3.154V.78zM47.75 3.09h-.92V.042h.92V3.09zM50.845 1.56c0-.114-.017-.22-.05-.313-.034-.095-.085-.177-.154-.247-.067-.07-.15-.124-.248-.163-.1-.04-.212-.058-.342-.058-.246 0-.44.07-.58.214-.14.144-.212.333-.212.566s.07.422.213.567c.142.144.335.216.58.216.17 0 .313-.033.432-.1.12-.066.21-.16.27-.277.062-.118.093-.254.093-.406m.938 0c0 .285-.066.546-.197.786-.132.24-.327.43-.587.57-.26.14-.577.21-.95.21-.377 0-.696-.072-.957-.22-.26-.146-.455-.34-.582-.578-.126-.24-.19-.495-.19-.768 0-.274.064-.53.19-.77.126-.237.32-.43.582-.576.262-.146.58-.22.958-.22.282 0 .533.043.754.127.22.084.402.198.545.34.14.144.25.31.322.5s.11.39.11.6M55.6 3.09h-.82l-1.58-1.7v1.7h-.912V.04h.816l1.578 1.69V.04h.918v3.05zM.61 2.48V1.26H0v1.83h1.83v-.61H.61z"/><path d="M3.047.04h-3.05v.915h.61V.652h1.83V2.48h-.304v.61h.914V.04z"/></g><path d="M60.072.29v.25c-.36-.19-.712-.286-1.058-.286-.368 0-.676.125-.924.376-.248.25-.372.564-.372.94 0 .378.125.69.374.936.25.245.567.367.954.367.323 0 .675-.1 1.056-.304v.237c-.35.186-.702.28-1.052.28-.45 0-.828-.146-1.13-.436-.3-.288-.45-.65-.45-1.08 0-.436.153-.8.46-1.09s.674-.44 1.1-.44c.333 0 .68.084 1.042.25M61.934 2.87c.37 0 .68-.126.935-.38.253-.252.38-.562.38-.93 0-.367-.127-.677-.38-.93-.255-.253-.567-.38-.936-.38-.37 0-.685.127-.94.38-.258.253-.387.563-.387.93 0 .368.13.678.386.93.256.254.57.38.94.38M61.926.038c.44 0 .81.148 1.116.443s.458.657.458 1.08c0 .425-.152.784-.457 1.08s-.676.442-1.115.442c-.437 0-.807-.147-1.11-.442s-.456-.655-.456-1.08c0-.423.15-.784.454-1.08s.674-.442 1.11-.442M64.142.08v2.776h1.468v.192h-1.697V.08h.23zM66.294.08v2.776h1.468v.192h-1.697V.08h.23zM69.963 1.83l-.64-1.398-.637 1.398h1.277zM69.39.058l1.37 2.99h-.24l-.47-1.027H68.6l-.468 1.027h-.24l1.37-2.99h.127zM71.376 1.64v1.21h.614c.253 0 .446-.056.578-.165s.197-.255.197-.438c0-.405-.29-.607-.875-.607h-.514zm0-1.376v1.183h.32c.538 0 .808-.197.808-.59 0-.396-.273-.593-.818-.593h-.31zm-.23-.192h.62c.323 0 .57.068.736.204s.25.324.25.563c0 .285-.142.505-.426.66.457.1.686.35.686.752 0 .24-.09.432-.27.574-.178.143-.42.214-.727.214h-.868V.072zM74.932 2.87c.37 0 .68-.126.935-.38.254-.252.38-.562.38-.93 0-.367-.126-.677-.38-.93S75.3.25 74.932.25c-.37 0-.685.127-.94.38-.258.253-.387.563-.387.93 0 .368.13.678.386.93.257.254.57.38.942.38m-.01-2.832c.44 0 .812.148 1.117.443s.456.657.456 1.08c0 .425-.152.784-.457 1.08s-.678.442-1.117.442c-.437 0-.807-.147-1.11-.442s-.456-.655-.456-1.08c0-.423.152-.784.455-1.08s.674-.442 1.11-.442M77.222.27v1.162h.493c.25 0 .442-.05.574-.152s.198-.245.198-.43c0-.183-.067-.325-.202-.427s-.328-.153-.58-.153h-.484zm-.23-.19h.76c.32 0 .563.068.732.206.168.138.252.325.252.56 0 .342-.188.583-.564.722.097.047.23.197.395.452l.67 1.026h-.27l-.518-.813c-.173-.272-.308-.442-.404-.51-.096-.066-.237-.1-.423-.1h-.4v1.423h-.23V.08zM81.342 1.83l-.64-1.398-.637 1.398h1.277zM80.768.058l1.372 2.99h-.24l-.47-1.027h-1.452l-.467 1.027h-.24l1.372-2.99h.126zM84.052.08v.19H82.94V3.05h-.233V.27h-1.113V.08h2.458zM84.742 3.05h-.23V.08h.23v2.97zM87.762.08L86.52 3.077h-.07L85.203.08h.233l1.05 2.51L87.53.08h.232zM89.852.08v.19h-1.39v1.19h1.354v.192h-1.353v1.204h1.423v.192h-1.653V.08h1.62zM92.022.27v1.198h.552c.248 0 .437-.052.565-.157s.193-.252.193-.443c0-.183-.063-.328-.19-.435-.126-.108-.306-.162-.54-.162h-.58zm-.23-.19h.818c.313 0 .553.07.72.21s.25.33.25.573c0 .245-.085.44-.253.582-.168.143-.413.214-.738.214h-.568v1.386h-.23V.08zM94.182.27v1.162h.493c.25 0 .442-.05.574-.152s.198-.245.198-.43c0-.183-.067-.325-.202-.427s-.328-.153-.58-.153h-.484zm-.23-.19h.76c.32 0 .563.068.732.206.168.138.252.325.252.56 0 .342-.188.583-.564.722.097.047.23.197.395.452l.67 1.026h-.27l-.518-.813c-.173-.272-.308-.442-.404-.51-.096-.066-.237-.1-.423-.1h-.4v1.423h-.23V.08zM97.762 2.87c.37 0 .68-.126.935-.38.254-.252.38-.562.38-.93 0-.367-.126-.677-.38-.93s-.566-.38-.935-.38c-.37 0-.685.127-.94.38-.258.253-.387.563-.387.93 0 .368.13.678.386.93.257.254.57.38.942.38m-.01-2.832c.44 0 .812.148 1.117.443s.456.657.456 1.08c0 .425-.152.784-.457 1.08s-.678.442-1.117.442c-.437 0-.807-.147-1.11-.442s-.456-.655-.456-1.08c0-.423.152-.784.455-1.08s.674-.442 1.11-.442M100.072.08v2.968c0 .327-.062.553-.185.677s-.27.187-.437.187c-.04 0-.086-.003-.138-.008l-.022-.217c.048.01.094.017.136.017.278 0 .417-.198.417-.595V.08h.23zM102.472.08v.19h-1.39v1.19h1.354v.192h-1.353v1.204h1.423v.192h-1.653V.08h1.62zM105.472.29v.25c-.36-.19-.712-.286-1.058-.286-.368 0-.676.125-.924.376-.248.25-.372.564-.372.94 0 .378.125.69.374.936.25.245.567.367.954.367.323 0 .675-.1 1.056-.304v.237c-.35.186-.702.28-1.052.28-.45 0-.828-.146-1.13-.436-.3-.288-.45-.65-.45-1.08 0-.436.153-.8.46-1.09s.674-.44 1.1-.44c.333 0 .68.084 1.042.25M108.192.08v.19h-1.113V3.05h-.233V.27h-1.113V.08h2.458zM109.882.22v.253c-.258-.152-.48-.227-.665-.227-.178 0-.327.054-.447.162-.12.108-.18.243-.18.402 0 .115.036.22.107.31.07.093.218.18.444.266.226.085.39.156.493.213.104.055.192.137.264.245.072.108.108.247.108.42 0 .227-.083.42-.25.576s-.37.237-.612.237c-.247 0-.5-.086-.76-.26v-.27c.287.212.536.318.747.318.176 0 .324-.057.445-.17.12-.115.182-.255.182-.42 0-.127-.038-.24-.113-.342s-.227-.196-.456-.284-.394-.16-.492-.214c-.1-.053-.182-.13-.25-.23s-.104-.228-.104-.385c0-.217.084-.403.25-.557.168-.153.37-.23.604-.23.23 0 .46.062.686.187" fill="#309245"/></svg>