<svg version="1.1" id="Layer_1" xmlns="http://www.w3.org/2000/svg" xmlns:xlink="http://www.w3.org/1999/xlink" x="0px" y="0px"
	 width="697.5px" height="800px" viewBox="0 0 697.5 800" style="enable-background:new 0 0 697.5 800;" xml:space="preserve">
<style type="text/css">
	.st0{fill:#050605;}
	.st1{fill:#E9E8E9;}
	.st2{fill:#CE2727;}
	.st3{fill:#86AC63;}
	.st4{fill:#F9C16B;}
	.st5{fill:#7A471D;}
	.st6{fill:#85AD62;}
	.st7{fill:#A41E21;}
	.st8{fill:#B5B6B6;}
	.st9{fill:#86AD63;}
	.st10{fill:#A41E22;}
	.st11{fill:#060706;}
	.st12{fill:#A61E22;}
	.st13{fill:#313043;}
	.st14{fill:#A21D21;}
	.st15{fill:#F78E1E;}
	.st16{fill:#4B2F12;}
	.st17{fill:#552F37;}
	.st18{fill:#623C16;}
	.st19{fill:#3A843F;}
	.st20{fill:#39833F;}
	.st21{fill:#FAFDFD;}
	.st22{fill:#CF2727;}
	.st23{fill:#271E15;}
	.st24{fill:#E3AD59;}
	.st25{fill:#E2AC58;}
	.st26{fill:#7B9D55;}
	.st27{fill:#613B15;}
	.st28{fill:#B6B7B7;}
	.st29{fill:#3A823E;}
	.st30{fill:#7B481D;}
	.st31{fill:#562F38;}
	.st32{fill:#7C9E56;}
	.st33{fill:#7B9D56;}
	.st34{fill:#163123;}
	.st35{fill:#636469;}
	.st36{fill:#EB7083;}
	.st37{fill:#FBFEFF;}
	.st38{fill:#CC9643;}
	.st39{fill:#030303;}
	.st40{fill:#347137;}
	.st41{fill:#828282;}
	.st42{fill:#F9DEA8;}
	.st43{fill:#799C56;}
	.st44{fill:#377438;}
	.st45{fill:#F9E0AD;}
	.st46{fill:#799B55;}
	.st47{fill:#5F3A14;}
	.st48{fill:#CB9644;}
	.st49{fill:#4D3012;}
	.st50{fill:#79471D;}
	.st51{fill:#377539;}
	.st52{fill:#4E3211;}
	.st53{fill:#4F3111;}
	.st54{fill:#C9C9C9;}
</style>
<g>
	<path class="st0" d="M338.4,7.6c11.4,8.4,18.5,21,21.6,34.7c1.7,11.2-0.9,21.6-7.2,31c-3.7,4.9-7.4,8.9-12.8,12
		c0.8,0.3,1.5,0.7,2.3,1.1c10.9,5.1,15.7,10.8,20.6,21.8c0.9,2.8,0.9,5.2,0.8,8.2c2.1,0.8,4.1,1.6,6.1,2.5
		c18.9,7.6,18.9,7.6,24.9,14.7c0.5,0.6,1.1,1.2,1.6,1.7c8,9.4,10.7,21.4,9.8,33.4c-1.9,20-9.8,40-21.3,56.4c1-0.2,2-0.4,3.1-0.5
		c25.3-4.2,55.2-3.5,76.9,12c1.8,1.6,1.8,1.6,2.5,4.2c0.3,0.8,0.6,1.6,0.9,2.4c2.2,1,2.2,1,4.9,1.6c1.2,0.7,2.3,1.3,3.4,2
		c2.7,1.6,4.9,2.3,8.1,2.7c10.3,1.6,19.4,8,26.9,14.9c0.6,0.5,1.1,1,1.7,1.5c16.4,15,24.3,40.7,26.1,62.3c0.1,8.6,0.1,8.6-2.1,11.4
		c-1.6,2.3-1.5,4-1.4,6.9c0,0.9,0,1.8,0,2.7c0.2,2.8,0.2,2.8,1.1,5.6c4.3,15.8-7.4,39.3-14.9,52.8c-7.1,12.2-17,20-28.3,28
		c-3,2.3-5.3,4.9-7.6,7.8c-4.9,5.6-9.8,7.5-17,8.2c0.4,3.3,0.8,6.6,1.2,9.9c0.1,0.9,0.2,1.9,0.3,2.8c0.1,0.9,0.2,1.8,0.3,2.7
		c0.1,0.8,0.2,1.7,0.3,2.5c0.4,2.8,0.7,5.5,1.1,8.2c0.8-0.1,1.6-0.1,2.4-0.2c8.2-0.6,16.3-0.8,24.4-0.9c0.9,0,0.9,0,1.9,0
		c21.9,0,43.7,2.3,65.3,5.9c0.9,0.1,1.7,0.3,2.6,0.4c40.3,6.9,98.7,20.9,124.6,56.2c3.7,5.7,4.5,10.8,3,17.5
		c-5.7,18.8-20,35.1-33,49.2c-0.7,0.8-1.5,1.6-2.2,2.4c-35.7,39.7-85.4,70.5-134.3,90.8c-0.6,0.3-1.2,0.5-1.8,0.8
		c-43.8,18.2-88.6,35.6-136.2,40.2c-1.1,0.1-1.1,0.1-2.2,0.2c-4,0.4-7.9,0.5-11.9,0.4c-8.9-0.5-8.9-0.5-16.7,3
		c-2,2.2-3.6,4.6-5.2,7.1c-1.4,2.1-3,3.9-4.7,5.8c-0.6,0.7-1.2,1.3-1.8,2c-2.6,2.7-5.3,5.2-8.3,7.5c-1.1,0.9-1.1,0.9-2.3,1.9
		c-31.8,25.8-79.9,35.1-119.9,30.9c-7.8-0.9-15.5-2.2-23.2-3.8c-1.2-0.2-1.2-0.2-2.4-0.5c-8.7-1.9-17.3-4.4-23.9-10.5
		c-0.8-1.7-0.8-1.7-1.1-4.5c1.6-4.1,3.9-4.8,7.8-6.6c2.3-0.9,4.6-1.8,6.9-2.7c25.9-10,48.1-25.4,67.4-45.2c-0.8-0.3-1.6-0.6-2.4-0.9
		c-1.1-0.4-2.2-0.8-3.2-1.3c-0.8-0.3-0.8-0.3-1.6-0.6c-3.1-1.2-6-2.6-9-4.2c-5.4-2.7-10.8-2.9-16.8-3.4c-5.6-0.5-9.3-1.6-13.7-5.1
		c-0.4-0.3-0.9-0.7-1.3-1c-14-10.9-21-29.5-24-46.4c-0.3-2.7-0.6-5.4-0.8-8.2c-1.6,0.2-3.2,0.3-4.9,0.5c-1.5,0.1-3,0.3-4.5,0.4
		c-4.6,0.4-9.2,0.9-13.7,1.4c-30,3.3-30,3.3-41.1,1.3c-2.3-0.5-2.3-0.5-4.8,1.2c-0.7,0.6-1.4,1.2-2.1,1.8c0,0.5,0,1.1,0,1.6
		c12.5,4.6,25.9,5.9,39.1,6.2c4.4,0.1,8.4,0.4,11.6,3.6c-0.2,3.8-1.9,5.6-4.4,8.3c-0.6,0.7-1.3,1.4-2,2.1c-1.4,1.5-2.8,2.9-4.3,4.3
		c7.3-1.8,14.2-4.4,21.2-7.3c0.8-0.3,1.6-0.6,2.4-1c1.1-0.4,1.1-0.4,2.2-0.9c2.2-0.7,3.8-0.9,6.1-0.6c1.6,1.6,1.6,1.6,1.6,3.7
		c-1.2,4-3.3,6.9-5.7,10.2c-0.4,0.5-0.8,1.1-1.2,1.7c-11.2,14-31.7,21.1-48.9,23.4c-18.5,1.7-40.6,2.6-56.2-9.5
		c-2.2-2.2-2.2-2.2-3.3-4.1c0.2-1.7,0.2-1.7,0.8-3.3c6.9-3,14.7-4.2,22.1-5.7c-0.6,0-1.3-0.1-1.9-0.1c-28.3-1.5-58.5-5.9-83.1-21.2
		c0.3-2.1,0.6-3.1,2.2-4.5c10.1-6.2,20.7-11.5,31.3-16.8c-2.7-0.5-5.4-1.1-8.2-1.6c-0.3-0.8-0.5-1.6-0.8-2.5c3-3.3,6-5.4,10-7.4
		c0.6-0.3,1.1-0.6,1.7-0.9c14.1-6.6,29.4-8.1,44.7-9.8c-6.3-2.5-12.6-4.8-19.1-6.7c-2.1-0.7-2.1-0.7-3.7-1.5
		c-0.2-2.8-0.3-4.4,1.2-6.8c9.6-9.3,21.5-15.6,34.7-17.8c0.5-0.1,1.1-0.2,1.7-0.3c21.4-2.9,43.2,2.1,60.6,14.6
		c3.5,2.8,6.1,6.1,8,10.2c0,0.8,0,1.6,0,2.5c-0.8,0-1.6,0-2.4,0c-3,0.1-6,0.1-8.9,0.2c-1.3,0-2.6,0.1-3.8,0.1
		c-7.6,0.2-14.9,0.6-22.4,2.1c2,3.5,3.9,5.9,7.4,8.2c5.6-0.4,11.1-2,16.6-3.2c18.8-4.3,18.8-4.3,24.3-4.1c0-0.4,0-0.9,0-1.4
		c0.7-10.8,5.1-24.8,13.2-32.3c3.2-2.6,6.6-3.8,10.5-5.2c5.2-2.1,8.1-3.7,10.6-8.9c0.4-0.9,0.8-1.8,1.1-2.7c2.3-4.5,6.2-7.1,10.3-10
		c-16.9-18.2-55-21.9-78.4-23.3c-0.6,0-1.1-0.1-1.7-0.1c-2.8-0.2-5.7-0.3-8.5-0.4c-9.9-0.5-9.9-0.5-14.4-3.1c-1.2-2.3-1.1-4-0.8-6.5
		c12.5-19.7,43.2-28.8,64.5-33.8c14.4-3.2,29.4-5.9,44.2-6.3c1.1,0,2.1-0.1,3.3-0.1c17.6-0.4,34.7,2.4,50.7,9.9
		c-0.2-0.6-0.3-1.2-0.5-1.8c-5.6-20.1-1.5-36.9,8.2-54.9c1.3-2.2,1.3-2.2,2.8-3.5c1.2-1.1,1.2-1.1,0.9-3c-0.9-2.9-2-5.8-3.1-8.7
		c-0.4-1.1-0.8-2.2-1.3-3.3c-0.2-0.5-0.4-1.1-0.6-1.7c-1-2.7-2.1-5.5-3.1-8.2c-0.7,0.4-1.4,0.8-2.1,1.2
		c-12.5,7.2-25.9,11.1-40.1,13.6c-5,0.9-9.3,2.4-13.8,4.7c-3.4,1.4-6.6,1.7-10.2,0.9c-2.6-1.6-2.6-1.6-4.1-4.1
		c-0.1-2.4,0.3-4.2,0.8-6.5c-0.5,0-1,0.1-1.5,0.1c-1,0-1,0-2,0.1c-0.7,0-1.3,0.1-2,0.1c-1.8-0.2-1.8-0.2-3.3-1.4c-1-1.3-1-1.3-1.3-3
		c-0.2-0.5-0.3-1-0.5-1.6c-2-0.9-2-0.9-4.1-1.6c-2.2-4.5-0.9-10.1,0.5-14.7c9-24.4,32.4-42.1,53.8-55.2c15.4-9.1,15.4-9.1,25.6-22.8
		c0.2-0.6,0.4-1.3,0.7-1.9c0.7-3.2-0.3-4.9-1.7-7.8c-1.8-5-0.7-8.8,1.3-13.7c-0.5,0-1,0-1.6,0c-20.1,0.4-38-2.3-56.5-10.7
		c0,0.8,0.1,1.7,0.1,2.5c0.4,11-1.8,19.2-9.4,27.6c-12.7,12.2-32.4,15.4-49.4,15.8c-16.2-0.4-33-5.6-45.2-16.6
		c-3.2-3.8-4.3-7.3-4.1-12.3c1.7-5.2,5.3-7.8,10-10.4c11.8-4.5,24,0.6,35.3,4.3c10.6,3.5,20.3,4.2,30.8-0.5c2.5-1.6,4.7-3.4,6.5-5.7
		c0-0.8,0-1.6,0-2.5c-0.6-0.1-1.2-0.2-1.7-0.3c-12-2.6-23.4-8.4-30.6-18.7c-1.4-1.7-2.2-1.9-4.4-2.4c-8.4-2.5-16-9.4-20.2-17
		c-1-1.9-1.9-3.7-2.9-5.6c-1.3-2.2-2.5-3.9-4.3-5.8c-10.5-11.2-15.8-27.9-19.3-42.6c-0.2-0.7-0.3-1.3-0.5-2
		c-7.8-33-1.1-64.8,16.1-93.6c1.7-2.6,3.6-5,5.6-7.4c0.7-0.8,1.4-1.7,2.1-2.5c25.4-30.8,59.9-53.4,100.1-59.6c1.4,0,2.8-0.1,4.2,0
		c2.5-0.2,3.6-0.4,5.4-2.2c0.9-1.3,1.9-2.6,2.8-3.9c12.4-17.3,40.2-26.3,60-31.2C318.9-1.2,329.2,1.3,338.4,7.6z M520.7,402.4
		c0.8,1.6,0.8,1.6,0.8,1.6L520.7,402.4z M515.8,410.6c0.8,1.6,0.8,1.6,0.8,1.6L515.8,410.6z M384,481.7c-5.3,0.9-10.4,1-15.8,1
		c-0.9,0-1.7,0-2.6,0c-5,0-9.8-0.3-14.8-1c-0.3,5.6-0.2,9.7,2.5,14.7c7.8-1.5,15.6-3.3,23.4-5c1.4-0.3,2.8-0.6,4.1-0.9
		c3.4-0.8,6.7-1.5,10.1-2.2c-0.4-3.6-0.4-3.6-0.8-7.4C387.9,480.9,386,481.3,384,481.7z M171.7,685.3c0.8,1.6,0.8,1.6,0.8,1.6
		L171.7,685.3z M170,687.7c0.8,1.6,0.8,1.6,0.8,1.6L170,687.7z"/>
	<path class="st1" d="M493.2,479.1c1.8,0,3.6,0,5.4,0c1.2,0,2.3,0,3.4,0c1,0,2.1,0,3.1,0c2.5,0.2,2.5,0.2,4.1,1.8
		c-0.5,0.6-1,1.2-1.5,1.8c-9.6,11.8-15.9,24.7-20.6,39.1c-0.2,0.6-0.4,1.2-0.6,1.8c-11.6,36.1-6.8,77.4,10.2,111
		c5.3,10.1,11.8,18.8,19.8,26.9c0.5,0.5,1,1.1,1.5,1.6c7.3,7.9,16.9,12.8,26.5,17.3c2.1,1,4.3,2.1,6.4,3.2c0,0.5,0,1.1,0,1.6
		c-0.6,0.2-1.2,0.5-1.8,0.7c-4.4,1.8-8.9,3.7-13.2,5.8c-4.7,2.2-9.5,4.2-14.4,6c-2.8,1.1-5.5,2.4-8.2,3.6c-6.5,3-13.1,5.6-19.8,8.1
		c-0.7,0.2-1.3,0.5-2,0.7c-30.1,11.3-60.8,21.6-92.8,25.7c-1.1,0.1-1.1,0.1-2.2,0.3c-10.7,1.3-21.3,1.6-32.1,1.4
		c-0.3-0.5-0.5-1.1-0.8-1.6c1.1-2,1.1-2,2.7-4.4c0.5-0.8,1-1.6,1.6-2.4c0.7-1.1,0.7-1.1,1.4-2.1c2-3,2-5.5,1.6-9
		c-0.5-2-0.5-2-1.6-3.3c-2.3-0.8-3.8-0.9-6.2-0.9c-0.7,0-1.5,0-2.2,0c-1.2,0-1.2,0-2.4,0c-0.8,0-1.6,0-2.5,0
		c-4.7,0-9.3,0.2-13.9,0.5c-16.7,1.2-33.1,0.1-49.6-3c-11.3-2.1-22.1-3.8-32.1,2.9c-2.6,1.9-4.7,3.7-6.8,6.1c-2,1.7-2,1.7-5,1.5
		c-3.6-0.6-6.7-1.7-10-3.1c-0.6-0.3-1.1-0.5-1.7-0.8c-5.2-2.4-9.1-5.7-13.1-9.9c-0.6-0.6-1.1-1.1-1.7-1.7
		c-12.9-13.4-22.1-37.7-22-56.3c12.9-1.7,25.9-2.9,38.9-3.7c0.8,0,1.5-0.1,2.3-0.2c7.9-0.5,15.7-1,23.6-1.4
		c36.4-0.8,36.4-0.8,68.4-15.9c1.4-2.3,1.4-2.3,1.6-4.9c-2.3-3.9-5.1-5.1-9.3-6.3c-0.5-0.2-1.1-0.3-1.6-0.5
		c-5.4-1.7-10.5-2.3-16.2-2.3c-0.7,0-1.3,0-2,0c-35.2-0.3-70.2,3-105,7.6c-3.6-7.3,1.8-21.3,4.1-28.6c1-3,2.1-6,3.3-8.9
		c0.3-0.7,0.5-1.3,0.8-2c2.6-6.3,6-10.1,11.5-14.2c3.7-2.8,7.3-5.6,10.7-8.6c13.9-12,29.2-21.5,45.3-30.4c1.1-0.6,1.1-0.6,2.2-1.2
		c12.9-7,12.9-7,16.9-6c0.9,0.6,0.9,0.6,1.8,1.3c0.6,0.4,1.2,0.8,1.8,1.2c0.4,0.3,0.9,0.7,1.3,1c0,0.5,0,1.1,0,1.6
		c1.2,0.4,1.2,0.4,2.5,0.8c-0.5,0-1.1,0-1.6,0c-0.4,0.8-0.4,0.8-0.8,1.6c-0.8,0.2-1.6,0.4-2.5,0.6c-6.6,1.8-11.5,7.1-15.2,12.7
		c-1.9,3.9-2.4,7.8-2.8,12.1c1.4,0.6,2.7,1.1,4.1,1.6c0.8,0.3,1.5,0.6,2.3,0.9c21.1,5.9,53.5-4.8,72.1-14.9c5.2-3.2,9-5.6,11.4-11.3
		c1.2-6.3-1.6-11.1-4.9-16.3c-2-2.8-4.1-5.5-6.2-8.2c-1.9-2.4-3.5-4.8-5.2-7.4c2.1-2.1,3.7-2.3,6.5-3c1-0.2,2-0.5,3-0.7
		c1.6-0.4,1.6-0.4,3.2-0.8c1-0.3,2-0.5,3.1-0.8c16.9-4.2,16.9-4.2,22.7-2.9c0.2,0.5,0.3,1,0.5,1.6c2.8,7.7,6.8,12.8,14.2,16.4
		c0,0.8,0,1.6,0,2.5c0.8,0.3,1.6,0.5,2.5,0.8c-0.6,0.5-0.6,0.5-1.2,0.9c-6.1,5-11.4,11-13.5,18.7c-0.6,6.6,1.5,11.3,5.4,16.4
		c4.8,5.7,9.8,9,17.2,9.7c3.2,0.1,6.3-0.3,9.4-0.9c0.7-0.1,1.3-0.2,2-0.3c13.6-2.4,25.4-6.9,33.6-18.5c3.4-5,6.6-10.1,9.8-15.3
		c0.9-1.5,1.8-2.9,2.8-4.4c3.5-5.7,4.2-10.4,3.2-17c-0.9-3.8-2-7.5-3.2-11.2c-1.2-3.8-2.1-6.9-1.7-10.9
		C480,479.3,486.5,479.1,493.2,479.1z"/>
	<path class="st2" d="M525.7,479.6c1.6,0.1,1.6,0.1,3.1,0.3c3.3,0.3,6.6,0.7,9.9,1c1,0.1,2.1,0.2,3.2,0.4c37,4.3,74.5,12.5,108,29.1
		c0.7,0.4,1.4,0.7,2.2,1.1c15,7.4,35.7,18,42,34.9c1.7,8.4-2.7,16.4-6.5,23.7c-0.5,0.9-0.9,1.9-1.4,2.9c-0.3,0.7-0.7,1.3-1,2
		c-0.5,0-1.1,0-1.6,0c0,0.8,0,1.6,0,2.5c-0.5,0-1.1,0-1.6,0c0,0.8,0,1.6,0,2.5c-0.5,0-1.1,0-1.6,0c-0.3,1.1-0.5,2.2-0.8,3.3
		c-0.5,0-1.1,0-1.6,0c-0.3,1.1-0.5,2.2-0.8,3.3c-0.5,0-1.1,0-1.6,0c-0.3,1.1-0.5,2.2-0.8,3.3c-0.5,0-1.1,0-1.6,0
		c-0.1,0.8-0.1,0.8-0.3,1.6c-0.2,0.6-0.4,1.1-0.6,1.7c-0.8,0.3-1.6,0.5-2.5,0.8c-0.1,0.5-0.2,1-0.4,1.5c-0.6,2.4-1.8,3.5-3.7,5.1
		c-0.5,0-1.1,0-1.6,0c-0.1,0.7-0.1,0.7-0.1,1.3c-1,2.8-3,4.6-5.2,6.7c-0.7,0.7-0.7,0.7-1.4,1.4c-0.9,0.9-1.9,1.9-2.8,2.8
		c-1.5,1.4-2.9,2.9-4.3,4.3c-0.9,0.9-1.8,1.8-2.8,2.8c-0.4,0.4-0.9,0.9-1.3,1.3c-3.1,3-3.1,3-5.8,3c-0.2,0.5-0.4,1-0.6,1.4
		c-1.2,2.1-2.4,3.3-4.2,4.9c-0.6,0.5-1.1,1-1.7,1.5c-1.6,1.1-1.6,1.1-4.1,1.1c-0.5,1.1-1.1,2.2-1.6,3.3c-0.8,0-1.6,0-2.5,0
		c-0.5,1.1-1.1,2.2-1.6,3.3c-0.8,0-1.6,0-2.5,0c-0.3,0.8-0.5,1.6-0.8,2.5c-0.8,0-1.6,0-2.5,0c-0.3,0.8-0.5,1.6-0.8,2.5
		c-0.8,0-1.6,0-2.5,0c-0.3,0.8-0.5,1.6-0.8,2.5c-2.5,1.6-2.5,1.6-4.9,1.6c-0.3,0.8-0.5,1.6-0.8,2.5c-2.5,1.6-2.5,1.6-4.9,1.6
		c0,0.5,0,1.1,0,1.6c-0.8,0-1.6,0-2.5,0c0,0.5,0,1.1,0,1.6c-0.8,0-1.6,0-2.5,0c0,0.5,0,1.1,0,1.6c-0.8,0-1.6,0-2.5,0
		c0,0.5,0,1.1,0,1.6c-0.8,0-1.6,0-2.5,0c0,0.5,0,1.1,0,1.6c-0.8,0-1.6,0-2.5,0c0,0.5,0,1.1,0,1.6c-2.4,1.7-3.6,2.5-6.5,2.5
		c0,0.5,0,1.1,0,1.6c-1.4,0.8-1.4,0.8-2.8,1.5c-4.5,2.5-9,5.2-13.4,7.8c-6.8,4-10.9,6.1-18.9,4.5c-12.7-3.3-22.8-12.1-32-21.1
		c-0.5-0.5-0.9-0.9-1.4-1.4c-3.4-3.4-3.4-3.4-3.4-5.2c-0.8-0.3-1.6-0.5-2.5-0.8c-1.5-1.9-2.9-3.8-4.2-5.8c-0.4-0.6-0.8-1.2-1.2-1.8
		c-3.9-5.9-7.2-12.1-10.1-18.6c-0.4-0.9-0.9-1.9-1.3-2.9c-14.7-34.4-15-74.2-1.5-108.9c4.3-10.7,10-20.9,17.6-29.6
		c0.4-0.4,0.7-0.9,1.1-1.4C514.9,478,519.6,478.9,525.7,479.6z"/>
	<path class="st3" d="M298.4,106.5c0,0.6-0.1,1.2-0.1,1.8c-0.3,7.5,0.9,15.5,5,21.9c1.4,0.9,1.4,0.9,3.3,1.6c1.3,0.8,2.7,1.6,4,2.4
		c9,5.4,17.1,7.1,27.7,5.4c9.3-2.4,16.7-9,21.8-16.9c0.8-1.3,1.5-2.6,2.1-4c3,0.5,5.5,1.3,8.2,2.7c3.3,1.5,6.5,2.9,9.9,4.2
		c9.8,4.1,15.5,12.4,19.8,21.9c7.1,18.7,0.8,39.7-7.1,57.2c-1.5,3.3-3.1,6.5-4.7,9.7c-0.5,0-1.1,0-1.6,0c-0.5,1.9-1.1,3.8-1.6,5.7
		c-0.5,0-1.1,0-1.6,0c-0.2,0.6-0.4,1.1-0.6,1.7c-1.3,3-3,5.5-4.8,8.1c-0.4,0.6-0.8,1.1-1.2,1.7c-6.3,8.9-13,17.5-19.7,26.1
		c-0.4,0.5-0.8,1-1.1,1.5c-1,1.2-1.9,2.5-2.9,3.7c-4.6,6.2-5.2,11.2-4.2,18.7c0.1,0.5,0.1,0.9,0.2,1.4c-0.6,0.4-1.2,0.8-1.9,1.3
		c-4.4,3.1-7.7,5.5-10.4,10.2c-2.5,1.6-2.5,1.6-4.1,2.4c-1.8,1-3,2.1-4.5,3.5c-4.7,4.2-10.6,8.9-17,9.6c-3.8-1-4.9-2.5-7.1-5.6
		c-3.3-3.3-7.6-4.3-12.2-4.4c-1.5,0-2.9,0-4.4,0.1c-0.8,0-1.6,0-2.4,0c-3.4,0-6.7,0.1-10.1,0.2c-13.6,0.3-26-0.7-39.1-4.8
		c-0.7-0.2-1.4-0.4-2.1-0.6c-14-4.4-14-4.4-17.3-9.3c0.8-1.4,1.7-2.8,2.5-4.2c3.4-6.7,2.2-16,0.1-23c-2.6-6.7-6.1-13-9.9-19.1
		c-9.2-14.6-15-29.5-12.8-47c0.9-4,2-6,5.6-8.3c1-0.5,2.1-1.1,3.1-1.5c1.6,1.5,2.6,2.7,3.7,4.7c4.4,6.7,13.2,11.3,20.9,13.1
		c17,1.4,31.9-4.5,44.9-15.3c8.4-7.2,14-15.8,15-27c0.3-11.7-3-20.6-10.9-29.4c-5-4.4-11.1-6.7-17.2-9
		C270.6,112.7,286.4,102.2,298.4,106.5z"/>
	<path class="st4" d="M365.9,283.9c4.5,3.8,7.1,9.1,9.3,14.4c1.2,2.8,2.7,5.6,4.1,8.3c0.8,1.8,0.8,1.8,0.8,4.2
		c-0.8,0.8-0.8,0.8-1.6,1.6c-1.9-2.2-3.8-4.3-5.7-6.5c0.4,0.5,0.8,1,1.3,1.5c1.8,2.5,2.9,4.5,3.6,7.5c-0.9,3.3-2.4,6-4,9
		c-4.3,7.9-6.4,17.3-6.6,26.2c0.5,0.1,0.9,0.2,1.4,0.4c2.5,0.6,5,1.4,7.6,2.1c-0.8,0.4-0.8,0.4-1.6,0.8c0,2.2,0,4.3,0,6.5
		c3.5,2,5.8,2.5,9.8,2.5c1.6,1.6,1.6,1.6,1.6,3.3c3.1,2.1,4.5,1.9,8.2,1.6c2.7-0.6,5.3-1.4,7.9-2.3c0.7-0.3,1.5-0.5,2.3-0.8
		c11.7-4.1,22.6-10.5,32.3-18.2c0.8-0.6,1.6-1.2,2.3-1.9c2-1.5,3.9-3.1,5.8-4.7c7.9,3,13.5,15.6,17.2,22.9
		c2.8,6.5,3.9,13.9,1.5,20.7c-0.5,0.7-1,1.4-1.5,2.1c-0.5,0.8-1.1,1.6-1.6,2.4c-5.3,6.1-13.8,9.5-21,12.9
		c-19.9,9.7-37.3,22.7-44.7,44.3c-2.5,7.6-4.5,15.1-4.8,23.2c0,0.6,0,1.2-0.1,1.8c0,1.2-0.1,2.4-0.1,3.5c-0.1,1.6-0.1,1.6-0.5,4.3
		c-6.1,5.5-23.5,2.8-31.1,2.5c-23-1.8-42.9-15.2-58-31.9c-15.5-18.5-18.1-46-16.2-69.1c0.2-1.7,0.4-3.5,0.7-5.2
		c0.8-6.4,1.1-12.8,1.2-19.3c0-1.4,0-1.4,0.1-2.9c0-6.1-1-10-4.3-15.2c-1.8-3.3-1.8-6.5-1.1-10.2c2.2-5.5,6.2-9.8,11.7-12.3
		c4.2-1.3,8.4-1.7,12.8-2.1c7.3-0.6,12.7-1.6,18.8-6c0.6-0.4,1.2-0.9,1.9-1.3c5.4-4,10.4-8.7,15.3-13.3
		C348,284.7,356.3,280.2,365.9,283.9z"/>
	<path class="st5" d="M227,71.5c5.2,4.2,9.1,9,12.8,14.6c0.4,0.6,0.9,1.3,1.3,1.9c4.6,6.9,5.3,12.7,5.3,20.9c0,1.7,0,3.4,0.1,5
		c0.2,20-11.4,36.9-24.6,51c-1.7,1.8-3.2,3.6-4.7,5.4c-6.5,7.4-15.1,13.8-25.2,14.7c-5.4,0.1-11.4-0.3-15.9-3.7c-1-1.3-1-1.3-1-4.6
		c-13.7,23.7-21.8,61.1-17.2,88.4c0.1,0.9,0.3,1.8,0.5,2.8c0.2,1,0.2,1,0.4,2c-7.2-2.1-13.9-7.6-18-13.9
		c-13.6-28.1,2.9-66,12.3-93.2c-0.6-0.1-1.3-0.2-1.9-0.3c-3-0.7-4.1-1.5-6.3-3.7c-5.6-10.4-6.7-20.3-3.3-31.7
		c7.4-22.4,22.4-45.5,43.3-57.4c0.6-0.3,1.1-0.7,1.7-1C199.1,61.9,215.1,64,227,71.5z"/>
	<path class="st6" d="M466.8,379.5c1.8,1.8,2.1,2.7,2.7,5.1c0.3,1.1,0.3,1.1,0.5,2.1c0.3,1.1,0.3,1.1,0.5,2.2
		c0.2,0.7,0.4,1.4,0.5,2.2c3.6,14.8,2.6,28.4-1,43.1c-2.7,11.6-4,21.5-2,33.3c0.1,0.8,0.3,1.7,0.4,2.5c1.4,8.1,3.6,15.9,6,23.8
		c2.3,7.8,3.9,15.1-0.1,22.6c-0.2,0.5-0.5,0.9-0.8,1.4c-6.3,11.4-13.6,22.8-24,30.8c-0.8,0.7-0.8,0.7-1.6,1.4
		c-1.9,1.3-3.5,1.8-5.7,2.3c-0.8,0.2-1.6,0.4-2.4,0.6c-1.3,0.3-1.3,0.3-2.6,0.6c-0.9,0.2-1.8,0.5-2.7,0.7c-4.9,1.2-9.4,2.2-14.4,1.7
		c-1.6-1.6-1.6-1.6-1.8-4.5c0.8-5.1,4.8-8.4,8.3-11.9c0.5-0.5,0.9-0.9,1.4-1.4c0.9-0.9,1.8-1.8,2.7-2.7c-0.5,0-1.1,0-1.6,0
		c-1.2,1.2-1.2,1.2-2.4,2.7c-1.8,2.2-3.6,3.8-5.8,5.5c-0.6,1.1-1.1,2.2-1.6,3.3c-0.5,0.3-1.1,0.5-1.6,0.8c-0.4,1.7-0.4,1.7-0.5,3.7
		c-0.1,0.7-0.1,1.4-0.2,2.1c-0.1,0.8-0.1,0.8-0.1,1.6c-2.8,0.9-3.2,0.8-6.2-0.4c-2.9-1.8-3.9-3.7-4.9-6.9c-1.2-5.6,0-9.2,2.9-14
		c1.4-2,1.4-2,2.5-3.3c-0.8,0-1.6,0-2.5,0c-0.1,0.5-0.1,0.9-0.2,1.4c-0.6,1.8-0.6,1.8-2.2,3.3c-2.1,2.3-2.3,3.9-2.7,6.9
		c-0.1,0.9-0.2,1.8-0.4,2.7c-0.1,0.7-0.2,1.3-0.2,2c-0.3-0.5-0.5-1.1-0.8-1.6c-0.8-0.3-1.6-0.5-2.5-0.8c-2.7-4-3.9-8.1-3-12.9
		c1.2-3.6,3.1-6.3,5.5-9.2c0.3-0.4,0.6-0.8,0.9-1.3c2.9-4,5.9-7.9,10.9-9c4.8-0.4,9.5-0.1,14.3,0.4c-1.6-1.6-4.4-1-6.5-1.1
		c-10-0.6-16.1-3.9-22.9-11.2c-8.3-10.1-8.3-25.4-7.2-37.8c2.4-19.4,11.5-35.2,26.6-47.6c8.9-6.9,19.2-12.1,29.3-17
		C456.9,393.6,462.4,389,466.8,379.5z"/>
	<path class="st7" d="M296.5,713.5c0.8,0.1,1.5,0.3,2.3,0.4c1,0.2,1,0.2,2.1,0.4c7,1.1,13.8,1.3,20.9,1.2c1.9,0,3.7,0,5.6,0
		c5.3,0,10.5-0.1,15.8-0.1c3.2,0,6.5-0.1,9.7-0.1c1.2,0,2.5,0,3.7,0c1.7,0,3.4,0,5.1,0c1,0,1.9,0,3,0c2.4,0.4,2.4,0.4,3.9,1.9
		c1.3,2.5,1.3,3.9,0.9,6.7c-1.1,2.1-2.2,3.8-3.5,5.7c-0.3,0.5-0.6,1-1,1.5c-0.6,1-1.3,1.9-1.9,2.9c-0.6,0.9-1.3,1.9-1.9,2.8
		c-0.7,1.2-1.5,2.3-2.4,3.5c-0.5,0-1.1,0-1.6,0c-0.2,0.8-0.2,0.8-0.3,1.6c-0.2,0.6-0.3,1.1-0.5,1.7c-0.8,0.4-0.8,0.4-1.6,0.8
		c-0.4,0.6-0.7,1.3-1.1,1.9c-1.4,2.2-2.6,3.1-4.6,4.6c-0.4,0.6-0.7,1.2-1.1,1.8c-2.6,4.3-5.9,7.4-10.4,9.6c-0.4,0.6-0.8,1.1-1.3,1.7
		c-0.4,0.5-0.8,1-1.2,1.5c-0.8,0-1.6,0-2.5,0c-0.8,1.6-0.8,1.6-1.6,3.3c-0.8,0-1.6,0-2.5,0c0,0.5,0,1.1,0,1.6c-0.8,0-1.6,0-2.5,0
		c0,0.5,0,1.1,0,1.6c-0.8,0-1.6,0-2.5,0c0,0.5,0,1.1,0,1.6c-2,0.4-2,0.4-4.1,0.8c0,0.5,0,1.1,0,1.6c-12.3,5.7-24.5,10.4-37.6,13.9
		c-0.7,0.2-1.4,0.4-2.2,0.6c-29.1,7.9-57.8,7.2-87.3,1.5c-0.8-0.2-1.7-0.3-2.5-0.5c-7-1.4-13.8-3.3-19.3-8c-0.6-0.5-1.2-1-1.8-1.5
		c-0.4-0.4-0.9-0.8-1.3-1.1c0.8-2.4,1.4-3.2,3.7-4.4c0.9-0.3,1.8-0.7,2.7-1c1-0.4,2-0.8,3-1.2c0.5-0.2,1-0.4,1.6-0.6
		c28.5-11,52.6-28.1,73.9-49.9C266.7,709.4,277.6,710,296.5,713.5z"/>
	<path class="st5" d="M336.2,9c9.7,8,17.5,19.7,20.2,32.1c0.9,10.6,0,19.9-4.9,29.4c-0.5,0-1.1,0-1.6,0c-0.2,0.8-0.2,0.8-0.3,1.6
		c-0.2,0.6-0.3,1.1-0.5,1.7c-0.8,0.4-0.8,0.4-1.6,0.8c-0.3,0.5-0.5,1.1-0.8,1.6c-0.9,1.6-0.9,1.6-3.3,2.5c-0.3,0.4-0.7,0.7-1,1.1
		c-2.1,2.1-4.6,3.4-7.2,4.9c-0.6,0.4-1.2,0.7-1.8,1c-5.3,3.1-10.7,6-16.2,8.9c-1.4,0.7-2.8,1.5-4.2,2.2c-13,6.8-27.7,10.5-42.3,7.2
		c-4.9-1.6-9.5-4.5-13.2-8.2c0-3.3,0-3.3,1.6-4.9c-4,0.5-7.1,2.2-10.6,4.1c-0.3-0.8-0.5-1.6-0.8-2.5c-0.5,0-1.1,0-1.6,0
		c-1.2-1.7-1.2-1.7-2.6-4c-2.7-4.3-5.6-8.4-8.8-12.3c2.8-4.4,6.9-6.7,11.4-9c0.5,0,1.1,0,1.6,0c0-0.5,0-1.1,0-1.6
		c-1,0.1-1,0.1-1.9,0.2c-0.7,0-1.4-0.1-2.1-0.2c-2.8-4.2-3-8.9-2.5-13.9c0.9-3.6,2-7.1,3.3-10.6c0.2-0.6,0.4-1.2,0.6-1.8
		c4.4-10.8,15.7-17,25.6-21.9c0.5-0.3,1.1-0.6,1.7-0.8C291.7,6.6,316.1-5.2,336.2,9z"/>
	<path class="st8" d="M201.9,658.3c0.5,0.3,0.9,0.6,1.4,0.9c69,44.7,157.5,54.5,237,37.7c34.4-7.4,34.4-7.4,67-20.5
		c0.8-0.4,0.8-0.4,1.6-0.8c2.5-1.3,4.9-2.5,7.3-3.9c2.6-1.4,4.8-2.4,7.7-2.9c3.5,1.3,6.1,3.4,9,5.7c1.2,0.7,2.4,1.3,3.6,1.9
		c0.8,0.4,0.8,0.4,1.6,0.8c0.5,0.3,1.1,0.5,1.6,0.8c0.5,0.3,1.1,0.5,1.6,0.8c1.1,0.5,2.1,1,3.2,1.5c2.1,1,4.3,2.1,6.4,3.2
		c0,0.5,0,1.1,0,1.6c-0.6,0.2-1.2,0.5-1.8,0.7c-4.4,1.8-8.8,3.7-13.2,5.8c-4.7,2.2-9.5,4.2-14.4,6c-2.8,1.1-5.5,2.4-8.2,3.6
		c-6.5,3-13.1,5.6-19.8,8.1c-0.7,0.3-1.3,0.5-2,0.7c-30.1,11.3-60.8,21.6-92.8,25.7c-0.7,0.1-1.5,0.2-2.2,0.3
		c-10.7,1.3-21.3,1.5-32.1,1.3c-0.3-0.5-0.5-1.1-0.8-1.6c1.1-2,1.1-2,2.7-4.4c0.5-0.8,1-1.6,1.6-2.4c0.7-1.1,0.7-1.1,1.4-2.2
		c2-3,2-5.5,1.6-9c-0.5-2-0.5-2-1.6-3.3c-2.3-0.8-3.8-0.9-6.2-0.9c-0.7,0-1.5,0-2.2,0c-0.8,0-1.6,0-2.4,0c-1.2,0-1.2,0-2.5,0
		c-4.7,0-9.3,0.2-13.9,0.5c-16.7,1.2-33.1,0.1-49.6-3c-11.3-2.1-22.1-3.8-32.2,2.9c-2.6,1.9-4.7,3.7-6.8,6.1c-2,1.7-2,1.7-5,1.5
		c-3.6-0.6-6.7-1.7-10-3.1c-0.9-0.4-0.9-0.4-1.7-0.8c-5.2-2.4-9.1-5.7-13.1-9.9c-0.6-0.6-1.1-1.1-1.7-1.7
		c-9.7-10.1-14.6-23.6-18.6-36.8c-0.2-0.6-0.4-1.2-0.5-1.7C202.2,664.7,201.7,661.7,201.9,658.3z"/>
	<path class="st9" d="M459.4,260.3c5.2,4.5,11,10.9,12.3,17.8c0.9,13.9-1.4,25.7-9,37.6c-0.3,0.5-0.6,0.9-0.9,1.4
		c-14.7,22.9-40,40.7-66.1,48c-2.3,0.5-4.3,0.6-6.6,0.5c-0.6-1.8-0.6-1.8-0.8-4.1c1.2-1.9,1.2-1.9,2.5-3.3c-0.8-0.4-0.8-0.4-1.6-0.8
		c-0.6,0.4-1.1,0.8-1.7,1.2c-3.2,1.7-6.2,1.8-9.8,1.3c-0.8-0.8-0.8-0.8-1.6-1.6c0.2-2.8,0.7-4.7,2.2-7.1c0.4-0.6,0.7-1.2,1.1-1.9
		c-0.3-0.8-0.5-1.6-0.8-2.5c-0.7,0.4-1.5,0.8-2.2,1.3c-2.7,1.2-2.7,1.2-4.5,1c-1.4-0.6-1.4-0.6-2.2-1.4
		c-0.9-17.4,10.5-35.1,21.7-47.5c8.7-9.5,18.7-17.9,29.8-24.4c-3.5,0-5.1,0.8-8.2,2.5c-0.8-2.8-0.8-2.8-1.6-5.7
		c-1.3,1.3-1,2.6-1.1,4.3c-0.3,3.2-0.8,5.4-3,8c-1.1,0.3-2.2,0.6-3.3,0.8c-0.4,0.8-0.4,0.8-0.8,1.6c-0.4,0.8-0.4,0.8-0.8,1.6
		c-0.5,0.1-1,0.2-1.5,0.4c-2.1,0.5-2.9,1.3-4.4,2.7c-0.5,0.5-0.9,0.9-1.4,1.4c-0.5,0.5-1,1-1.4,1.5c-0.5,0.5-1,1-1.5,1.4
		c-0.7,0.7-0.7,0.7-1.4,1.4c-0.6,0.6-0.6,0.6-1.3,1.3c-1.1,1.3-1.1,1.3-1.4,3c-0.1,0.5-0.3,1-0.4,1.6c-2.5,1.4-2.5,1.4-4.9,2.5
		c-3.4-2.6-4.6-5.1-6.1-9.2c-2.1-5.9-4.2-11.2-9.8-14.5c-4.1-1.1-8-1.6-12.3-1.6c-2.2,0-2.2,0-3.8-0.8c-1-3.7-1-3.7,0-5.7
		c6,0.1,11.5,1.1,17.2,2.8c0.6,0.2,1.2,0.4,1.8,0.5c2.7,0.8,4.8,1.6,7.1,3.2c0,0.5,0,1.1,0,1.6c0.8,0.4,0.8,0.4,1.6,0.8
		c0,1.1,0,2.2,0,3.3c0.4-0.5,0.8-1,1.2-1.5C396.7,265,434,241.9,459.4,260.3z"/>
	<path class="st10" d="M271.4,501.3c0.9,0.3,1.8,0.7,2.8,1c6.9,3,9.9,7.3,13.6,13.7c0.5,0.6,0.9,1.2,1.4,1.8
		c1.1,1.4,1.1,1.4,1.1,3.1c-0.4,0.2-0.9,0.4-1.3,0.6c-2,1-4,2-5.9,2.9c-0.7,0.3-1.4,0.7-2.1,1c-0.7,0.3-1.3,0.7-2,1
		c-0.9,0.4-0.9,0.4-1.8,0.9c-1.7,0.8-1.7,0.8-3.2,2.5c-0.6,0.2-1.2,0.5-1.7,0.7c-15.7,6.3-31.7,18.6-44,30.1
		c-2.5,1.9-2.5,1.9-4.4,1.7c-2.2-0.7-3.5-1.5-5.3-2.9c-22.9-15.6-56.5-19.5-83.5-20.7c-11.4-0.5-11.4-0.5-16.3-3.2
		c4-10.4,14.3-15.5,23.7-20.4c0.5-0.3,1-0.5,1.5-0.8C180.4,495.3,232,486.8,271.4,501.3z"/>
	<path class="st9" d="M292.7,442.5c2.3,2.2,4.4,4.6,6.3,7.2c11.6,14.6,27.6,24.4,45.3,29.7c2.3,0.7,2.3,0.7,3.1,1.5
		c0.2,1.9,0.4,3.7,0.6,5.6c1.4,11,6,18.1,13.2,26.4c5,5.9,8,10.8,7.5,18.7c-1.6,3.8-2.8,5.9-6.5,7.7c-2.4,1.1-2.4,1.1-3.7,2.5
		c-1.5,1.4-2.5,1.8-4.5,2.4c-0.6,0.2-1.3,0.4-2,0.6c-1.1,0.3-1.1,0.3-2.2,0.7c-1.6,0.5-3.2,1-4.7,1.5c-32.2,10.2-32.2,10.2-44.3,10
		c-0.6,0-1.3,0-1.9,0c-0.7,0-0.7,0-1.4,0c-0.9-2.7-0.9-3.1,0.4-5.9c0.6-1.1,0.6-1.1,1.3-2.2c-0.8,0-1.6,0-2.5,0
		c-0.8,2.7-1.6,5.4-2.5,8.2c-2.4-0.3-4.9-0.5-7.4-0.8c-0.8-2.5-1-3.7,0.2-6.1c1.5-2.1,3.1-4.1,4.7-6.1c-2.1,0.6-2.1,0.6-4.1,1.6
		c-0.6,1.7-0.6,1.7-0.8,3.3c-0.5,0.3-1.1,0.5-1.6,0.8c0,0.8,0,1.6,0,2.5c-0.5,0-1.1,0-1.6,0c0.1-1.2,0.2-2.4,0.3-3.6
		c0-0.7,0.1-1.3,0.2-2c0.1-0.6,0.2-1.1,0.3-1.7c0.8-0.4,0.8-0.4,1.6-0.8c0.5-1.1,1.1-2.2,1.6-3.3c4.3-5.4,9.9-8.5,16.3-10.6
		c1.1-0.1,2.2-0.2,3.3-0.3c0.6,0,1.2-0.1,1.9-0.1c0.6,0,1.3-0.1,1.9-0.1c0.6,0,1.3-0.1,2-0.1c1.6-0.1,3.2-0.2,4.8-0.3
		c0-0.5,0-1.1,0-1.6c-0.7,0.1-1.4,0.1-2.2,0.2c-10,0-18.3-5.2-25.3-11.7c-9.1-9.6-12.2-23.2-12.1-36.1
		C278.9,466.9,283.3,451.8,292.7,442.5z"/>
	<path class="st11" d="M355.6,133.5c2.9-0.3,4.7-0.1,7.4,1.1c3.9,3.4,6,7.4,6.9,12.5c0.4,9.7-3.9,20.2-10.2,27.5
		c-1,1.1-2,2.2-3.1,3.2c-1.2,1.3-1.2,1.3-0.9,2.9c0.2,0.6,0.4,1.2,0.7,1.8c0.4,1.2,0.4,1.2,0.8,2.3c0.6,1.7,1.2,3.4,1.8,5.1
		c0.7,2.4,1,4.1,0.7,6.5c-1.1,1.7-1.1,1.7-2.5,3.1c-0.5,0.5-0.9,1-1.4,1.5c-0.4,0.4-0.7,0.7-1.1,1.1c1.3,3.4,3.6,4.9,6.5,6.9
		c6.9,4.9,6.9,4.9,7.8,8.6c0.2,7-3.6,11.4-8.2,16.3c-12.3,11.6-28.2,18.5-44.5,22.1c-0.9,0.2-0.9,0.2-1.8,0.4
		c-22.1,4.8-43,1.9-62.3-10.3c-6.6-4.4-16.3-11-19.1-18.7c-0.2-1.6-0.2-1.6,0.6-4.1c2.4-0.8,4.2-1,6.7-1.2
		c28.4-2.5,57.5-7.7,82.8-21.2c0.9-0.5,1.8-1,2.8-1.5c2.1-1.2,3.9-2.4,5.8-3.9c0.8-0.3,1.6-0.5,2.5-0.8c1.7-1.2,3.2-2.3,4.6-3.8
		c1.1-1.1,1.1-1.1,2.8-1.9c0.5-0.5,1.1-1.1,1.6-1.6c1.6-1.6,1.6-1.6,3.3-2.5c0.8-0.9,1.6-1.8,2.3-2.7c1.6-1.9,2.9-3.3,4.9-4.8
		c2-1.6,2.4-2.5,3.5-4.7c0.8-1.3,1.6-2.6,2.4-3.8c4.6-7.6,7.9-14.9,6.6-24c-1.7-4-3.8-6.7-7.6-8.9c-0.7-0.3-1.5-0.6-2.2-0.9
		C356.2,134.6,355.9,134,355.6,133.5z"/>
	<path class="st6" d="M277.1,333.8c3.8,3.5,6.1,8,6.9,13c0.1,2.6,0.1,5.2,0,7.8c0,0.9,0,1.9,0,2.9c-0.1,5.7-0.6,11.4-1.4,17.1
		c-0.8,6-0.7,12-0.7,18.1c0,1.5,0,1.5,0,3c0,4.4,0.1,8.6,0.8,12.9c0.3,3,0.3,3.4-1.5,6c-12.7,8.9-29.1,12.2-44,14.9
		c-4.8,0.9-8.2,2.2-12.4,4.8c-2.1,0.4-2.1,0.4-3.9,0.3c-0.6,0-1.2,0-1.8,0c-1.7-0.3-1.7-0.3-4.1-1.9c0.2-5.4,2.3-8.2,5.7-12.3
		c-2.9,1.1-2.9,1.1-5.6,2.6c-2.5,1.1-4.7,0.9-7.5,0.7c-0.5-0.5-1.1-1.1-1.6-1.6c1.8-3.9,3.7-7.3,6.5-10.6c-3.2,0-3.9,1.1-6.3,3.3
		c-0.7,0.6-1.3,1.2-2,1.8c-0.5,0.5-1,0.9-1.5,1.4c-0.8-0.5-1.6-1.1-2.5-1.6c-1.4-10.4,4.5-19.8,10.6-27.8c3.7-4.5,7.6-8.7,12.3-12.3
		c0,0.8,0,1.6,0,2.5c-0.5,0-1.1,0-1.6,0c-1.2,5.3-1.8,10.1-1.6,15.5c3.1,1.5,5.5,2.1,9,1.6c2.4-1.7,4.4-3.5,6.3-5.7
		c2.3-2.1,4.9-3.3,7.7-4.6c4.2-1.9,4.2-1.9,7.3-5.3c-3.2,0-4.1,1.3-6.5,3.3c-2.5,1.3-5.1,2.4-7.7,3.5c-2.5,1.6-2.9,2.7-3.8,5.4
		c-2.3,1.4-3.6,1.7-6.3,1.4c-1.9-0.6-1.9-0.6-3.5-1.4c-1.8-5.4,0.4-10.8,2.4-15.8c5.4-10.9,16.3-17.1,26.1-23.5
		C264.8,344.5,264.8,344.5,277.1,333.8z"/>
	<path class="st2" d="M149.3,608.4c2.6,2.2,4.7,4.7,6.8,7.4c-3.6-0.8-7.1-1.6-10.7-2.4c-0.6-0.1-1.2-0.3-1.8-0.4
		c-1.2-0.3-2.4-0.6-3.6-0.9c-15.3-3.7-34.1-4.2-48.5,2.9c0.2,3.1,0.7,4,3,6.1c0.9,0.7,1.9,1.3,2.8,2c1,0.7,1.9,1.4,2.9,2.1
		c0.5,0.4,0.9,0.7,1.4,1.1c2.6,2,5,4.2,7,6.7c0,0.5,0,1.1,0,1.6c0.5,0.3,1.1,0.5,1.6,0.8c-2.5,0.9-4.7,1.1-7.3,1.3
		c-12.9,1.1-25.4,2.9-38.2,5.7c-2.3,0.5-4.5,0.9-6.8,1.2c0.5,1.6,0.5,1.6,1.6,3.3c2.4,1,2.4,1,5.2,1.6c4,1,6.5,2.2,9.6,4.9
		c-0.8,0.1-1.6,0.2-2.4,0.3c-0.8,0.2-1.7,0.3-2.5,0.5c-0.3,0.5-0.5,1.1-0.8,1.6c-1.5,0.5-1.5,0.5-3.4,1c-6,1.7-14.8,4.6-18.6,9.7
		c-0.6,1.7-0.6,1.7-0.8,3.3c18.8,11.2,44.5,14.2,66,13.9c0.7,0,1.5,0,2.2,0c1.8,0,3.6,0,5.3,0c-0.7,2-0.7,2-1.6,4.1
		c-1.3,0.6-2.7,1.1-4.1,1.6c-0.3,0.8-0.5,1.6-0.8,2.5c-1.3,0.6-2.7,1.1-4.1,1.6c-3.3,2.2-3.3,2.2-4.9,5.7c12,5.8,30.7,2.9,43.1-1
		c5.9-2.1,11.2-4.9,16.6-8c0.6-0.3,1.2-0.6,1.8-0.9c2.3-1.1,4.3-2.6,6.4-4c-1.1,3.4-2.7,5.5-5.3,8c-0.6,0.6-1.3,1.3-1.9,2
		c-1.8,1.5-1.8,1.5-4.2,1.5c-0.3,0.8-0.5,1.6-0.8,2.5c-0.8,0-1.6,0-2.5,0c0,0.5,0,1.1,0,1.6c-23.5,11.9-51,17.5-76.8,9.6
		c-5.6-2-12.3-4.3-15.5-9.6c0.7-0.2,1.5-0.4,2.3-0.5c6.7-1.6,13.3-3.4,20-5.2c0.7-0.2,1.5-0.4,2.2-0.6c3.6-1,6.8-2.1,9.9-4.2
		c-0.9-1.1-0.9-1.1-3.1-0.9c-1,0-2.1,0-3.1,0.1c-1.2,0-2.3,0-3.5,0c-0.6,0-1.2,0-1.9,0c-28.5,0.3-58.3-4.1-83.2-18.9
		c8.3-9.8,22.9-13.9,34.3-18.8c-0.7-1.6-0.7-1.6-1.6-3.3c-1.7-0.7-1.7-0.7-3.7-0.9c-2-0.3-2-0.3-3.6-0.7c-0.3-0.5-0.5-1.1-0.8-1.6
		c15.9-8.8,32.4-12.8,50.5-13.6c2.4-0.1,4.4-0.3,6.7-1.1c-0.3-1.3-0.5-2.7-0.8-4.1c-3.9-1.3-7.7-2.6-11.6-3.7
		c-1.1-0.3-1.1-0.3-2.2-0.6c-1.5-0.4-2.9-0.8-4.4-1.2c-1.1-0.3-1.1-0.3-2.1-0.6c-0.6-0.2-1.3-0.4-1.9-0.5c-0.5-0.2-1-0.4-1.5-0.7
		c-0.4-1.2-0.4-1.2-0.8-2.5C80.8,593.4,124.3,590.6,149.3,608.4z"/>
	<path class="st12" d="M331.1,621.5c1.6,2.5,1.6,2.5,1.5,4.1c-1.8,4.4-7.1,7.2-11.3,9c-0.5,0-1.1,0-1.6,0c-0.3,0.5-0.5,1.1-0.8,1.6
		c-1.9,0.5-1.9,0.5-4.4,1c-1.4,0.3-1.4,0.3-2.8,0.5c-1.5,0.3-1.5,0.3-3,0.5c-0.9,0.2-1.8,0.4-2.8,0.5c-14.4,2.6-28.8,3.5-43.3,4.3
		c-37.6,2.1-75,5.5-112.4,10.1c-9,1.1-17.8,2-26.9,2.1c-0.8,0-1.5,0-2.3,0c-4.7,0-8.1-0.4-12.2-2.7c-0.3-0.5-0.5-1.1-0.8-1.6
		c3.9-5.4,7.7-7.5,13.9-9.8c1-0.4,2-0.8,3-1.1c22.9-8.3,47.4-11.7,71.4-15.2c0.8-0.1,1.5-0.2,2.3-0.3
		C305.3,608.9,305.3,608.9,331.1,621.5z"/>
	<path class="st2" d="M227.4,49.1c0.6,0.2,1.1,0.4,1.7,0.6c3.5,1.3,6.7,2.8,9.7,5.3c1,2.6,1,2.6,1.5,5.4c0.3,1.4,0.3,1.4,0.6,2.8
		c0.4,2.5,0.4,2.5,0.4,4.9c-1.5,1.4-1.5,1.4-3.4,2.7c-0.6,0.4-1.3,0.9-1.9,1.4c-2,0.8-2,0.8-4.1,0.3c-1.7-0.9-3.2-1.9-4.8-3
		c-8.5-5.4-20.7-7.5-30.6-5.8c-10,2.3-16.4,6.5-23.8,13.5c-1.1,1-2.2,1.9-3.4,2.9c-15.7,13.8-29.3,36.3-31.5,57.4
		c-0.5,10.1,2.7,18.5,8.7,26.4c0.7,0.8,0.7,0.8,1.4,1.5c1.5,2.5,0.8,3.9,0.2,6.6c-0.5,1.6-1,3.2-1.5,4.8c-6.2,19-11.2,38.1-12,58.1
		c0,0.8-0.1,1.6-0.1,2.4c-0.1,1.9-0.2,3.9-0.2,5.8c-4.2-3.2-7-6.3-9.4-11.1c-0.3-0.6-0.6-1.2-0.9-1.8c-14-28.3-17.7-62.5-7.6-92.5
		c4.8-13.8,11.4-28.3,21.3-39.2c0.7-0.9,1.5-1.8,2.2-2.6C157.7,73.9,197,37.3,227.4,49.1z"/>
	<path class="st13" d="M331.4,24.5c7.1,7.4,10.6,17.9,10.7,27.9c-0.2,7.5-3.9,11.2-9.1,16.2c-12.4,10.5-28.5,16.4-44.7,16.1
		c-6.4-0.7-11.3-3.8-15.6-8.5c-6.3-8.3-8.9-18.4-7.8-28.6c1.4-7.3,6.4-12.8,12.3-17.2c4.2-2.6,8.6-4.6,13.1-6.5
		c1.1-0.5,1.1-0.5,2.3-1C304.7,17.8,320.7,15.3,331.4,24.5z"/>
	<path class="st14" d="M684.2,572.5c0.3,0.8,0.5,1.6,0.8,2.5c-0.5,0-1.1,0-1.6,0c0,0.8,0,1.6,0,2.5c-0.5,0-1.1,0-1.6,0
		c0,0.8,0,1.6,0,2.5c-0.5,0-1.1,0-1.6,0c-0.3,1.1-0.5,2.2-0.8,3.3c-0.5,0-1.1,0-1.6,0c-0.3,1.1-0.5,2.2-0.8,3.3c-0.5,0-1.1,0-1.6,0
		c-0.3,1.1-0.5,2.2-0.8,3.3c-0.5,0-1.1,0-1.6,0c-0.1,0.8-0.1,0.8-0.3,1.6c-0.3,0.8-0.3,0.8-0.6,1.7c-0.8,0.3-1.6,0.5-2.5,0.8
		c-0.1,0.5-0.2,1-0.4,1.5c-0.6,2.4-1.8,3.5-3.7,5.1c-0.5,0-1.1,0-1.6,0c0,0.4-0.1,0.9-0.1,1.3c-1,2.9-3,4.6-5.2,6.7
		c-0.7,0.7-0.7,0.7-1.4,1.4c-0.9,0.9-1.9,1.9-2.8,2.8c-1.5,1.4-2.9,2.9-4.3,4.4c-0.9,0.9-1.8,1.8-2.8,2.7c-0.4,0.4-0.9,0.9-1.3,1.3
		c-3.1,3-3.1,3-5.8,3c-0.2,0.5-0.4,1-0.6,1.4c-1.2,2.1-2.4,3.3-4.2,4.9c-0.6,0.5-1.1,1-1.7,1.5c-1.6,1.1-1.6,1.1-4.1,1.1
		c-0.8,1.6-0.8,1.6-1.6,3.3c-0.8,0-1.6,0-2.5,0c-0.8,1.6-0.8,1.6-1.6,3.3c-0.8,0-1.6,0-2.5,0c-0.3,0.8-0.5,1.6-0.8,2.5
		c-0.8,0-1.6,0-2.5,0c-0.4,1.2-0.4,1.2-0.8,2.5c-0.8,0-1.6,0-2.5,0c-0.4,1.2-0.4,1.2-0.8,2.5c-2.5,1.6-2.5,1.6-4.9,1.6
		c-0.4,1.2-0.4,1.2-0.8,2.5c-2.5,1.6-2.5,1.6-4.9,1.6c0,0.5,0,1.1,0,1.6c-0.8,0-1.6,0-2.5,0c0,0.5,0,1.1,0,1.6c-0.8,0-1.6,0-2.5,0
		c0,0.5,0,1.1,0,1.6c-0.8,0-1.6,0-2.5,0c0,0.5,0,1.1,0,1.6c-0.8,0-1.6,0-2.5,0c0,0.5,0,1.1,0,1.6c-0.8,0-1.6,0-2.5,0
		c0,0.5,0,1.1,0,1.6c-2.4,1.7-3.6,2.5-6.5,2.5c0,0.5,0,1.1,0,1.6c-0.9,0.5-1.9,1-2.8,1.5c-4.5,2.5-9,5.2-13.4,7.8
		c-6.8,4-10.9,6.1-18.9,4.6c-14.5-3.8-26-14.6-36-25.3c0-0.3,0-0.5,0-0.8c1,0,2.1,0,3.2,0c31.4-0.7,60.8-14.8,88.4-28.6
		c0.9-0.4,1.7-0.9,2.6-1.3c17.3-8.7,34-18.4,49.7-29.8c0.5-0.4,1.1-0.8,1.7-1.2c6.7-4.9,13.1-9.9,19.1-15.7
		C680.1,575.8,682.1,574.1,684.2,572.5z"/>
	<path class="st15" d="M153.7,617.4c0,0.5,0,1.1,0,1.6c0.8,0.4,0.8,0.4,1.6,0.8c-0.5,0-1,0-1.5,0c-15.2,0-15.2,0-29.6,4.1
		c-0.4,2.3-0.4,2.3,0,4.9c2.3,2.2,2.3,2.2,4.9,4.1c0.8,1.1,1.7,2.2,2.5,3.3c-1,0.3-1.9,0.6-2.9,0.9c-11.7,3.5-11.7,3.5-21.6,10.5
		c-0.4,1.8-0.4,1.8-0.5,3.8c-0.1,1-0.1,1-0.2,2c0,0.5-0.1,1-0.1,1.6c-0.5,0-1.1,0-1.6,0c-0.2,0.5-0.4,1-0.7,1.5
		c-1,1.7-1,1.7-3.4,3.4c0,1.1,0,2.2,0,3.3c5.1,2.5,9.8,4,15.4,5c0.8,0.1,1.5,0.3,2.3,0.4c7.7,1.3,15.4,1.8,23.2,2.2
		c0.9,0,1.9,0.1,2.8,0.2c0.8,0,1.7,0.1,2.5,0.1c2,0.3,2,0.3,3.6,1.9c-0.1,2.8-0.6,3.9-2.6,6c-1.1,0.9-1.1,0.9-2.2,1.8
		c-3,2.4-4.6,4.1-5.8,7.8c0.3,0.3,0.5,0.5,0.8,0.8c5.5-0.3,9.9-1.6,15-3.6c5.6-2.1,11.1-4,16.9-5.4c-11.7,12.2-29,19.2-45.7,19.7
		c-1.8,0-3.6,0-5.4,0.1c-0.6,0-1.2,0-1.7,0c-3.9,0-7.7-0.4-11.6-0.9c-0.3-0.8-0.5-1.6-0.8-2.5c0.6-0.4,1.1-0.8,1.7-1.2
		c9.3-5.9,9.3-5.9,15.5-14.3c-0.9,0.1-0.9,0.1-1.9,0.2c-24.8,2.1-52.5-0.9-74.9-12.4c0.8-2.5,0.8-2.5,3.3-3.9
		c1.1-0.5,2.2-1.1,3.3-1.6c0.6-0.3,1.2-0.6,1.7-0.9c17.3-8.3,17.3-8.3,21.1-8.3c-0.4-2-0.4-2-1.6-4.1c-2.4-1.4-2.4-1.4-5.3-2.3
		c-1-0.3-1.9-0.7-2.9-1c-2.3-0.8-2.3-0.8-4.1-0.8c0-0.5,0-1.1,0-1.6c14.2-3.2,28.1-5.1,42.6-6.3c2.2-0.2,4.3-0.6,6.5-1.1
		c-0.8-5.3-3.7-8.5-7.9-11.7c-2.1-1.5-4.2-2.9-6.3-4.3c-1.3-0.9-2.5-1.8-3.8-2.8c0-0.8,0-1.6,0-2.5c1.5-0.5,3-1.1,4.5-1.6
		c0.9-0.3,1.7-0.6,2.6-0.9C117.7,608.5,137.7,611.8,153.7,617.4z"/>
	<path class="st16" d="M468.4,310c4.8,0.8,7.5,4.5,10.3,8.3c2.6,4.2,3.3,7.2,2.8,12.1c-1.1,0.5-1.1,0.5-2.2,1
		c-9.1,3.4-9.1,3.4-15,10.5c-0.5,0.8-1.1,1.6-1.6,2.5c0.4-0.4,0.9-0.9,1.3-1.3c5.3-5,10.9-9.1,18.3-10.2c3.5,0.3,5,0.9,7.4,3.3
		c6.8,8.2,11.1,17.5,10.7,28.4c-0.5,5.4-3.6,7.8-7.4,11.3c-4.5,2.8-9.4,3-14.6,3.2c-0.6,0.1-1.2,0.2-1.8,0.3
		c-0.3,0.5-0.5,1.1-0.8,1.6c6.7-0.1,12-0.5,17.8-4c2.2-1,3.5-1.2,5.9-0.9c3,2.5,4.8,6.6,5.5,10.3c0.9,9.8-1.3,20.2-7.2,28.1
		c-0.1,0.6-0.2,1.2-0.3,1.8C497,418,497,418,495,419c-5,1.1-10.2,1.1-15.2-0.2c0.3,0.5,0.5,1.1,0.8,1.6c2.2,0.6,4.3,1.1,6.5,1.6
		c1.1,0.3,2.2,0.5,3.3,0.8c0.6,6-1,11.1-4.1,16.3c-2.1,1.8-2.1,1.8-4.1,3.3c-0.5,0.6-1.1,1.1-1.6,1.7c-2.6,2.5-4.8,3.1-8.4,3.3
		c-0.7,0-1.5-0.1-2.2-0.1c-0.9-3.3-0.7-5.5,0.1-8.8c0.3-1.3,0.3-1.3,0.7-2.7c0.2-0.9,0.5-1.8,0.7-2.8c6.8-26.6,1.2-55.6-12.1-79.7
		c-3.3-5.6-7.2-10.8-11.5-15.7c0.6-0.7,1.3-1.4,1.9-2.1C456.8,327.6,463.1,319.3,468.4,310z"/>
	<path class="st17" d="M219.9,86.1c4.4,3.3,8.4,7.6,9.8,13.1c1.6,13.1-3.6,23.4-9.8,34.5c-0.6,1-1.1,2.1-1.6,3.1
		c-3.1,6.2-3.1,6.2-6.5,7.3c-1.1,1.3-2.2,2.7-3.3,4.1c-4.8,4.8-9.3,6.7-16.2,7c-9.7-0.3-17.7-4.7-24.4-11.6
		c-3.1-3.5-3.9-6.4-3.9-11.1c1.9-15.4,13.7-33.5,25.6-43.1C200.1,81.9,208.2,80.1,219.9,86.1z"/>
	<path class="st18" d="M245.2,113.8c0.3,0,0.5,0,0.8,0c1.1,17.7-8.8,33.7-20.1,46.6c-1.4,1.5-2.8,3-4.2,4.5
		c-1.7,1.8-3.2,3.6-4.7,5.4c-6.5,7.4-15.1,13.8-25.2,14.7c-5.4,0.1-11.4-0.3-15.9-3.7c-1-1.3-1-1.3-1-4.6
		c-13.7,23.7-21.8,61.1-17.2,88.4c0.2,0.9,0.3,1.8,0.5,2.8c0.2,1,0.2,1,0.4,2c-7.2-2.1-13.9-7.6-18-13.9
		c-13.6-28.1,2.9-66,12.3-93.2c-0.6-0.1-1.3-0.2-1.9-0.3c-3-0.7-4.1-1.5-6.3-3.8c-3.3-6.2-5-11.4-5-18.4c0-0.6,0-1.3,0-1.9
		c0-2.7,0.1-4.9,0.9-7.5c0.8-0.3,1.6-0.5,2.5-0.8c0.2,0.8,0.5,1.6,0.8,2.4c1.9,6.1,3.8,11.9,7.4,17.2c0.5,0.8,0.5,0.8,1.1,1.6
		c8,10.4,22.6,18.2,35.4,20.1c8.7,0.9,15-0.3,22.1-5.6c1.2-1,2.4-2,3.6-3.1c0.6-0.4,1.1-0.9,1.7-1.3c13.5-10.7,22.6-28.8,28.5-44.7
		C244.4,114.7,244.4,114.7,245.2,113.8z"/>
	<path class="st2" d="M355.7,730.1c2.5,1.5,3.5,3.3,4.8,5.8c-0.6,2.3-0.6,2.3-1.6,4.1c-0.5,0-1.1,0-1.6,0c-0.1,0.8-0.1,0.8-0.3,1.6
		c-0.2,0.6-0.3,1.1-0.5,1.7c-0.5,0.3-1.1,0.5-1.6,0.8c-0.4,0.6-0.7,1.3-1.1,1.9c-1.4,2.2-2.6,3.1-4.6,4.6c-0.4,0.6-0.7,1.2-1.1,1.8
		c-2.6,4.3-5.9,7.4-10.4,9.6c-0.4,0.6-0.8,1.1-1.3,1.7c-0.4,0.5-0.8,1-1.2,1.5c-0.8,0-1.6,0-2.5,0c-0.5,1.1-1.1,2.2-1.6,3.3
		c-0.8,0-1.6,0-2.5,0c0,0.5,0,1.1,0,1.6c-0.8,0-1.6,0-2.5,0c0,0.5,0,1.1,0,1.6c-0.8,0-1.6,0-2.5,0c0,0.5,0,1.1,0,1.6
		c-2,0.4-2,0.4-4.1,0.8c0,0.5,0,1.1,0,1.6c-12.3,5.7-24.5,10.4-37.6,13.9c-0.7,0.2-1.4,0.4-2.2,0.6c-29.1,7.9-57.8,7.2-87.3,1.5
		c-0.8-0.2-1.7-0.3-2.5-0.5c-5.3-1.1-10.2-2.7-15.1-4.9c0-0.3,0-0.5,0-0.8c4.4-0.2,8.5,0.1,12.9,0.8c7,1,13.9,1.1,21,1.1
		c1,0,1,0,1.9,0c18.1-0.1,35-2.6,52.5-7.6c0.6-0.2,1.2-0.3,1.8-0.5c20.8-6,37.7-18.2,54.2-31.8C345.7,726.1,345.7,726.1,355.7,730.1
		z"/>
	<path class="st2" d="M271.4,501.3c0.9,0.3,1.8,0.7,2.8,1c6.9,3,9.9,7.3,13.6,13.7c0.5,0.6,0.9,1.2,1.4,1.8c1.1,1.4,1.1,1.4,1.1,3.1
		c-2.1,1.1-4.1,2.3-6.2,3.4c-0.6,0.3-1.2,0.7-1.8,1c-4.4,2.3-4.4,2.3-7.6,1.7c-0.8-0.4-1.5-0.7-2.3-1.1c-30.8-11.1-61.6-13.3-94-9.8
		c-0.6,0.1-1.3,0.1-1.9,0.2c-10,1-19.6,3.7-29.3,6.3c-0.7,0.2-1.3,0.4-2,0.5c-8.7,2.3-8.7,2.3-17.1,5.6c-0.9,0.4-1.9,0.9-2.9,1.3
		c-0.5-0.3-1.1-0.5-1.6-0.8c2.3-6.9,13.3-11.3,19.3-14.4C180.6,496.3,230.9,486.4,271.4,501.3z"/>
	<path class="st19" d="M482.3,251.2c5.1,0.6,9.5,2.4,13.9,4.9c0.7,0.4,1.3,0.7,2,1.1c19,11.1,29.2,31.4,34.8,52.1
		c2.4,9.3,2.6,18.2,2.5,27.8c-0.6-0.4-1.3-0.8-2-1.1c-5.1-2.9-10.2-5.8-15.4-8.4c-6.6-3.4-12.9-6.9-18.6-11.7
		c-0.9-0.7-0.9-0.7-1.7-1.4c-7.8-7-7.7-19.1-9.1-28.9c-1.3-8.9-3-17.4-5.5-26.1c-0.6-2.5-1.2-4.9-1.6-7.4
		C481.8,251.7,482,251.5,482.3,251.2z"/>
	<path class="st20" d="M499.5,327.2c12.1,4.8,28.5,13.8,34.3,26.2c1.1,8.8-0.5,16.9-3.3,25.3c-0.2,0.7-0.4,1.3-0.7,2
		c-2.6,8-5.4,15.8-9.2,23.4c-0.5,0-1.1,0-1.6,0c-0.3,1.3-0.5,2.7-0.8,4.1c-0.5,0-1.1,0-1.6,0c-0.3,1.3-0.5,2.7-0.8,4.1
		c-1.2,0.4-1.2,0.4-2.5,0.8c-0.1,0.5-0.2,1-0.3,1.4c-0.7,2.6-2.2,3.8-4.1,5.7c-0.6,0.7-1.3,1.3-2,2c-1.8,1.5-1.8,1.5-4.3,1.5
		c-0.3,0.8-0.5,1.6-0.8,2.5c-0.8,0-1.6,0-2.5,0c-0.3,0.8-0.5,1.6-0.8,2.5c-0.8,0-1.6,0-2.5,0c-0.5,1.1-1.1,2.2-1.6,3.3
		c-0.5,0-1.1,0-1.6,0c0-9.8,0-9.8,3.1-12.9c1.3-0.9,1.3-0.9,2.7-1.8c6.1-7.2,8.5-18.2,8.3-27.5c-0.4-5.1-2.1-8.9-5.3-12.8
		c-1.3-1.6-1.3-1.6-2.2-3.1c0.5-2.3,0.5-2.3,1.6-4.1c2.8-8.5,0-17.5-3.6-25.3c-2.5-4.7-5.3-9-8.7-13.1c0.8-0.9,1.7-1.7,2.6-2.5
		c0.5-0.5,1-0.9,1.4-1.4C495.4,326,496.8,326.5,499.5,327.2z"/>
	<path class="st2" d="M331.1,621.5c1.6,2.5,1.6,2.5,1.4,4.1c-0.6,1.6-0.6,1.6-2.2,3.2c-2,0-3.9,0-5.8-0.2c-0.6,0-1.2-0.1-1.8-0.1
		c-1.9-0.1-3.8-0.3-5.7-0.4c-19.7-1.4-38.8-0.6-58.4,1.1c-2,0.2-4,0.3-6,0.5c-33.3,2.8-65.9,7.4-98.9,13.1
		c-9.8,1.7-19.6,3.3-29.5,4.9c-0.8,0.1-1.5,0.3-2.3,0.4c-4.1,0.7-8.2,1.3-12.3,2c2.1-4.9,6.3-6.6,10.9-8.5
		c48.4-18.3,104.3-21.8,155.6-24.8c0.9-0.1,1.8-0.1,2.8-0.2C316.7,614.5,316.7,614.5,331.1,621.5z"/>
	<path class="st21" d="M271.5,125.7c7.7,4.2,13.1,12.7,16,20.8c1.2,8.3,0.7,16.2-3,23.7c-0.3,0.6-0.6,1.2-0.9,1.7
		c-6.3,11.2-19.7,20.6-31.9,24.4c-10.6,2.8-20.1,4.1-30.1-1.2c-9.8-6-9.8-6-12.4-10.2c-0.4-2.3-0.4-2.3,0-4.9c1.6-1.8,3-3.2,4.8-4.6
		c1-0.9,2-1.7,3-2.6c0.5-0.4,1-0.9,1.5-1.3c6.2-5.6,11-12,15.6-19c0.4-0.5,0.7-1.1,1.1-1.6c0.3-0.5,0.6-1,0.9-1.5
		c1-1.3,1-1.3,3.4-2.9c0.1,0.8,0.1,0.8,0.2,1.7c1.6,9.7,4.3,17.8,12.5,23.8c5.6,3.8,11.4,7.1,18.3,6.4c4.3-0.9,8-2,10.6-5.7
		c3.3-6.1,2.8-12.1,1.6-18.8c-1.7-5.5-4.3-10.6-7.4-15.5c-0.6,0.7-1.2,1.3-1.8,2c-2.3,2.1-2.3,2.1-4.2,3c-3.6-0.2-6-2-8.7-4.2
		c-3.4-3.8-3.9-7.3-4.1-12.3c-2-0.4-2-0.4-4.1-0.8c0.8-2.5,0.8-2.5,2.3-3.4C260.3,120.7,266.5,123.4,271.5,125.7z"/>
	<path class="st22" d="M173.3,184.2c2.7,0.2,5,0.4,7.4,1.7c1.1,2,0.6,3.3,0.2,5.5c-2.8,21.4,3.9,40,16.6,56.9
		c9.5,12.8,9.5,12.8,9,19.9c-0.7,2.7-1.6,4.5-3.6,6.4c-3.9,2.3-8.1,1.7-12.4,1c-5.6-1.9-10.2-5.3-14.7-9c-0.6-0.5-1.3-1-1.9-1.6
		c-2.2-1.8-4.2-3.8-6.2-5.8c-0.4-0.4-0.8-0.7-1.2-1.1c-3.8-3.8-6.7-7.3-7.4-12.7c0-3.9,0.6-7.7,1.3-11.5c0.2-1.6,0.4-3.3,0.6-4.9
		C166.1,191.4,166.1,191.4,173.3,184.2z"/>
	<path class="st5" d="M212.5,292.1c0.1,1.9,0.1,3.9,0.2,5.8c0,0.5,0,1.1,0.1,1.7c0.1,3.9-0.7,6.4-2.7,9.7c-0.6,1.8-0.6,1.8-0.8,3.3
		c-0.5,0-1.1,0-1.6,0c-1.4,1.4-1.4,1.4-2.8,3.1c-7.8,9.3-19.6,12.8-31.5,14.1c-18.3,1.4-37.8-1.1-52.3-13.1
		c-1.5-1.3-2.8-2.6-4.1-4.1c-0.3,0.8-0.5,1.6-0.8,2.5c-1-3.1-0.9-5.4,0.5-8.4c2.8-3.5,7.6-4.9,11.7-6.3c7.9-0.8,14.6,1.1,22.1,3.6
		c1.1,0.3,2.1,0.7,3.2,1c1.9,0.6,3.9,1.3,5.8,1.9c8.8,2.8,21.1,3.5,29.5-0.7c0.5-0.3,1-0.6,1.5-1c0.5-0.3,0.9-0.6,1.4-0.9
		c2.5-1.9,3.8-3.8,5.2-6.5c2.4-4.2,6.2-4.9,10.6-6.1C210.1,291.2,210.1,291.2,212.5,292.1z"/>
	<path class="st23" d="M351.5,205.5c3.1,1.3,5.6,3.3,8.3,5.3c0.6,0.4,1.2,0.8,1.8,1.3c3,2.2,4.4,3.3,5.5,6.9
		c-0.2,6.5-4.6,10.9-9,15.3c-1.8,1.5-3.7,2.7-5.8,3.9c-0.3-0.9-0.3-0.9-0.6-1.9c-0.3-0.8-0.5-1.6-0.8-2.5c-0.3-0.8-0.5-1.6-0.8-2.4
		c-1.2-2.5-1.9-3.4-4.3-4.7c-6.2-1.3-11.2,0.5-16.6,3.4c-3.1,2-5.5,4.4-8,7.2c-0.8,0.8-0.8,0.8-1.6,1.6c-4.1-4.7-4.1-4.7-4.1-6.5
		c-7-1.7-12.1,0.9-18.2,4.3c-6.4,4.3-10.2,11.5-12.8,18.6c-16.2-0.9-32.7-9.7-43.4-21.6c-2.4-2.7-2.4-2.7-2.4-4.6
		c6.5,0.7,6.5,0.7,9.6,1.2c33.4,6.1,69.7-5.7,98.3-22.5c0.6-0.5,1.1-0.9,1.7-1.4C349.9,205.4,349.9,205.4,351.5,205.5z"/>
	<path class="st24" d="M184.8,187.4c3.5,0,7,0,10.6,0c-0.1,1-0.3,1.9-0.4,2.9c-1.6,15,0.7,27.8,7.8,41.2c0.4,0.7,0.8,1.5,1.1,2.2
		c1.8,3.3,3.6,6.6,5.6,9.8c6.6,10.8,11.7,20.9,9.3,34.1c-1.7,5.2-5.1,9.7-9.9,12.3c-8.9,3.6-16,2.4-24.9-1.1
		c-8.9-4.3-19.9-11.6-23.8-21.1c-0.8-3-0.9-5.6-0.8-8.7c0-1,0-2,0-3.1c0-0.8,0-1.5,0.1-2.3c2,1.9,3.9,3.8,5.6,5.9
		c7.2,8.5,17.9,17.1,29.3,18.6c4.1,0.2,6.6-0.2,10.1-2.5c3-3.8,3.9-6.9,3.7-11.7c-1.6-8.6-9-17-14.2-23.8
		c-4.5-5.9-6.8-12.2-9.1-19.2c-0.3-0.9-0.6-1.7-0.9-2.6c-1.5-5.5-1.8-10.8-1.9-16.4c0-1,0-1,0-2.1
		C182,195.2,182.9,191.7,184.8,187.4z"/>
	<path class="st25" d="M294.3,319c-0.8,0.5-1.6,1-2.5,1.5c-2,1.6-2.4,2.3-2.8,4.9c0,2.3,0.1,4.5,0.3,6.7c0.6,0.1,1.3,0.2,1.9,0.3
		c0.8,0.1,1.6,0.3,2.5,0.4c0.8,0.1,1.6,0.3,2.5,0.4c2.1,0.5,2.1,0.5,3.8,2.1c0.5,3.9-0.3,6.8-1.6,10.5c-1.8,5.9-2.6,11.6-3.1,17.7
		c0,0.5-0.1,1.1-0.1,1.6c-2.5,28.4-1.2,57,16.8,80.5c12.3,14.4,26.9,25.4,44.5,32.7c0,0.3,0,0.5,0,0.8c-21.1-0.5-40-13.7-54.1-28.5
		c-16.8-18.1-19.4-43.6-18.8-67.1c0.1-3.3,0.5-6.5,0.9-9.7c0.8-6.4,1.1-12.8,1.2-19.3c0-1.4,0-1.4,0.1-2.9c0-6.1-1-10-4.3-15.2
		c-1.7-3.2-1.4-5.8-1.1-9.4c0.5,0.5,1.1,1.1,1.6,1.6c0.3-0.7,0.6-1.4,0.9-2.1c1.9-3.5,4.3-6.9,8.1-8.3
		C292.7,318.2,292.7,318.2,294.3,319z"/>
	<path class="st26" d="M466.8,379.5c1.8,1.8,2.1,2.7,2.7,5.1c0.3,1.1,0.3,1.1,0.5,2.1c0.3,1.1,0.3,1.1,0.5,2.2
		c0.2,0.7,0.4,1.4,0.5,2.2c4.4,18,1.7,34.5-3.5,52.1c-0.3,0-0.5,0-0.8,0c-0.8-3.2-0.9-6.2-0.8-9.5c0-1.1,0-2.1,0-3.2
		c0-2.2,0.1-4.4,0.1-6.6c0.3-10.9,0.3-10.9-3.4-20.8c-16.1,0.6-34.3,11-45.1,22.3c-12.5,14.6-16,34.9-14.6,53.7
		c1.7,12.7,6.8,20.6,16.7,28.4c1.1,0.9,1.1,0.9,2.2,1.8c0,0.5,0,1.1,0,1.6c-7.7,0.6-13.2-1.7-19.1-6.7c-7.9-7.6-11-16.8-11.4-27.7
		c-0.3-19.1,4-38.5,17.5-52.8c11.2-11.3,24.5-18.8,38.7-25.7C456.9,393.6,462.4,389,466.8,379.5z"/>
	<path class="st27" d="M255.1,29.6c-0.4,2.6-0.9,5.2-1.5,7.8c-3.3,15.2-1.1,28.9,7.2,42.3c5.6,7.9,12.9,13.4,22.5,15.1
		c24.8,2.3,50.3-17.8,69.8-30.9c0.3,0.5,0.5,1.1,0.8,1.6c-0.8,1.7-1.6,3.3-2.5,4.9c-0.5,0-1.1,0-1.6,0c-0.2,0.8-0.2,0.8-0.3,1.6
		c-0.2,0.6-0.3,1.1-0.5,1.7c-0.8,0.4-0.8,0.4-1.6,0.8c-0.3,0.5-0.5,1.1-0.8,1.6c-0.9,1.6-0.9,1.6-3.3,2.5c-0.3,0.4-0.7,0.7-1,1.1
		c-2.1,2.1-4.6,3.4-7.2,4.9c-0.6,0.4-1.2,0.7-1.8,1c-5.3,3.1-10.7,6-16.2,8.9c-1.4,0.7-2.8,1.5-4.2,2.2c-13,6.8-27.7,10.5-42.3,7.2
		c-4.9-1.6-9.5-4.5-13.2-8.2c0-3.3,0-3.3,1.6-4.9c-4,0.5-7.1,2.2-10.6,4.1c-0.3-0.8-0.5-1.6-0.8-2.5c-0.5,0-1.1,0-1.6,0
		c-1.2-1.7-1.2-1.7-2.6-4c-2.7-4.3-5.6-8.4-8.8-12.3c2.8-4.4,6.9-6.7,11.4-9c0.5,0,1.1,0,1.6,0c0-0.5,0-1.1,0-1.6
		c-1,0.1-1,0.1-1.9,0.2c-0.7,0-1.4-0.1-2.1-0.2c-2.8-4.2-3-8.9-2.5-13.9C246.4,29.6,246.4,29.6,255.1,29.6z"/>
	<path class="st28" d="M392.4,491.5c0.2,0.5,0.3,1,0.5,1.6c2.8,7.7,6.8,12.8,14.2,16.4c0,0.8,0,1.6,0,2.5c1.2,0.4,1.2,0.4,2.5,0.8
		c-0.4,0.3-0.8,0.6-1.2,0.9c-6.1,5-11.4,11-13.5,18.7c-0.7,7.7,2.4,12.8,7.2,18.6c2.2,2.2,4.4,3.7,7.1,5.2c0.4,0.3,0.8,0.5,1.2,0.8
		c0,0.5,0,1.1,0,1.6c-8.7-1-14.3-7.7-20-13.6c-5.7-5.9-11-9.4-19.2-10.9c-0.8-2.5-0.8-2.5-0.6-5.3c0-8.3-6.4-15.5-11.4-21.7
		c-1.9-2.4-3.6-4.8-5.2-7.4c2.1-2.1,3.7-2.3,6.5-3c1-0.2,2-0.5,3-0.7c1-0.2,2.1-0.5,3.2-0.8c1.5-0.4,1.5-0.4,3.1-0.8
		C386.7,490.3,386.7,490.3,392.4,491.5z"/>
	<path class="st29" d="M461.9,237.3c2.5,2.8,2.5,2.8,2.5,4.9c-0.5,0-0.9,0-1.4,0c-13.8,0.4-26.8,1.7-40.1,5.4
		c-14.7,4-27.8,2.4-42.3-1.7c-0.6-0.2-1.2-0.3-1.8-0.5c-2.9-0.9-4.8-1.7-6.8-4c6.9-11.7,6.9-11.7,11.9-13.8
		c3.4-0.9,6.7-1.4,10.1-1.8c1.3-0.2,2.7-0.4,4-0.6C418.3,222.6,444.9,224.8,461.9,237.3z"/>
	<path class="st30" d="M153.7,162.9c3.8,1.1,6.7,2.6,10,4.9c1.3,0.8,1.3,0.8,2.6,1.7c2.1,1.6,2.1,1.6,3.8,4.1
		c-0.2,4.8-1.9,8.3-4.1,12.5c-12.3,24.8-18.7,52.6-12.3,79.9c0.4,0.8,0.4,0.8,0.8,1.6c-6.9-2.4-12.2-8-15.6-14.4
		c-10.4-26.9,3.9-64.2,13.9-89.5C153.1,163.4,153.4,163.2,153.7,162.9z"/>
	<path class="st31" d="M272.1,41.9c5.8,0.5,11,2,16.5,3.9c0.8,0.3,1.7,0.5,2.5,0.8c4.8,1.6,9.2,3.5,13.7,5.8
		c1.7,0.9,3.4,1.7,5.1,2.5c6.2,3.1,12.6,8.1,16.3,14c-1,3-2.3,3.4-5,4.8c-0.9,0.4-0.9,0.4-1.7,0.8c-0.6,0.3-1.2,0.6-1.8,0.9
		c-10.1,4.9-22.7,9.1-33.9,5.8c-8-3.7-11.7-9.5-14.9-17.5c-1.9-5.6-2.8-12.1-1.1-17.9C269.8,41.9,269.8,41.9,272.1,41.9z"/>
	<path class="st21" d="M336,87.7c6.8,0.4,12,3.2,16.6,8.1c4.6,5.6,8.4,12.1,8.2,19.6c-1.2,6.9-6.9,13.2-12.3,17.3
		c-8.3,5.5-15.6,6.7-25.5,5.4c-7.4-1.6-15.2-6.4-19.9-12.4c-3.2-6.1-3.9-12.1-2.5-18.9c0.9-2.6,1.6-3.4,4-4.8c1.7-0.7,3.5-1.3,5.2-2
		c2.1-0.8,3.8-1.6,5.7-2.8c2.5-1.4,2.5-1.4,5.7-1.4c-0.1,1-0.1,2-0.2,3c0,7.1,2.3,14.6,6.9,20.1c4.6,4.3,10.6,7.8,17,7.9
		c3.9-1.3,5.9-3.1,8.2-6.5c1-6.9,0.6-12.9-3.3-18.8c-0.8,0.5-1.6,1.1-2.5,1.6c-3,0.5-4.9,0.5-7.5-1.2c-4.4-3.8-4.4-3.8-5.6-6.1
		c0.1-1.7,0.1-1.7,0.3-3.7c0.1-1,0.1-1,0.2-2C335.2,88.5,335.2,88.5,336,87.7z"/>
	<path class="st32" d="M292.7,442.5c2.3,2.2,4.4,4.6,6.3,7.2c11.6,14.6,27.6,24.4,45.3,29.7c2.3,0.7,2.3,0.7,3.1,1.5
		c0.1,1.5,0.1,3,0,4.5c0,0.8,0,1.7,0,2.5c0,0.6,0,1.3,0,1.9c-0.6-0.3-1.1-0.7-1.7-1c-1.2-0.7-1.2-0.7-2.4-1.4
		c-0.8-0.5-1.7-1-2.5-1.6c-3.4-1.9-6.9-2.9-10.7-3.9c-8.3-2.3-15.8-5.7-23.6-9.3c-4.3-2-6.7-2.8-11.4-1.6c-3.8,2.8-5.5,6.1-6.5,10.6
		c-1.6,11.4,4.3,22.9,10.8,31.9c3.6,4.6,7.5,8.6,12.1,12.2c-3.9,1.5-6.8-0.3-10.5-1.9c-4.2-2.3-7.4-5.3-10.8-8.8
		c-0.7-0.7-0.7-0.7-1.4-1.3c-8.4-8.5-10.3-22.4-10.3-33.8C278.8,467.1,283.3,451.9,292.7,442.5z"/>
	<path class="st33" d="M221.5,274.1c1.1,0.6,1.1,0.6,2.2,1.3c20.6,12,39.4,15.3,62.9,15.4c16.6,0.1,16.6,0.1,23.2,3.8
		c4.2,1.8,7.8,2,12.3,0.8c4.9-2,9-5,13.2-8.2c7.4-5.7,7.4-5.7,10.5-7.3c1.9,0.3,1.9,0.3,3.3,0.8c0,0.8,0,1.6,0,2.5
		c-1.9,1.5-1.9,1.5-4.3,3.1c-3.6,2.5-5.8,4.5-8,8.3c-2.5,1.6-2.5,1.6-4.1,2.4c-1.8,1-3,2.1-4.5,3.5c-4.7,4.2-10.6,8.9-17,9.6
		c-3.8-1-4.9-2.5-7.1-5.6c-3.3-3.3-7.6-4.3-12.2-4.4c-1.5,0-2.9,0-4.4,0.1c-0.8,0-1.6,0-2.4,0c-3.4,0-6.7,0.1-10.1,0.2
		c-13.6,0.3-26-0.7-39.1-4.8c-0.7-0.2-1.4-0.4-2.1-0.6c-14-4.4-14-4.4-17.3-9.3c0.8-1.3,1.6-2.6,2.4-3.9
		C220.2,279.2,220.8,276.7,221.5,274.1z"/>
	<path class="st34" d="M477.4,250.4c7.5,10.3,8.4,27.8,10.1,40.1c2.1,15.9,2.1,15.9,11.9,28.1c0.9,0.6,1.8,1.2,2.8,1.8
		c0.5,0.3,1,0.7,1.5,1c6,3.9,12.3,7.1,18.6,10.4c0.8,0.4,1.6,0.9,2.5,1.3c0.7,0.4,1.5,0.8,2.2,1.1c2,1.3,3.1,2.4,4.3,4.5
		c0.2,3.1,0.2,3.1,0,5.7c-3.2-1.7-6-3.5-8.8-5.8c-3.7-2.9-7.6-5.2-11.6-7.5c-0.6-0.3-1.2-0.7-1.9-1.1c-6.9-3.9-6.9-3.9-14.6-5.3
		c-2.9,1-4.3,2.7-6.4,4.9c-1.8,0.7-1.8,0.7-3.3,0.8c-2-2-2.1-6.2-2.5-9c0.2-2.3,0.6-4.2,1.3-6.4c1.7-7.8-0.1-16.1-1.5-23.8
		c-0.3-1.8-0.6-3.7-0.9-5.5c-1.1-6.3-2.4-12.4-4.2-18.5c-0.2-0.6-0.3-1.1-0.5-1.7c-1.8-6-4.3-11.8-9.7-15.2
		c-7.1-2.3-13.8-1.9-21.1-0.7c-1,0.2-1,0.2-2,0.3c-11.7,2-22.8,4.3-33.3,9.9c-2.8,1.2-3.8,1.2-6.6,0.2c-1.4-0.6-2.8-1.3-4.2-2
		c-4.3-2.2-6.9-2.9-11.8-2.7c-6,0.1-9.9-1.5-15.1-4.3c-1.1-0.5-2.3-1-3.4-1.5c-0.8-0.3-1.5-0.6-2.3-1c1.1-1.3,2.2-2.7,3.3-4.1
		c0.8,0.2,0.8,0.2,1.5,0.4c1.7,0.4,3.3,0.8,5,1.2c2.4,0.6,4.8,1.2,7.1,1.9c17.4,4.7,31.6,3.2,48.9-1.4c4.2-1.1,8.3-1.9,12.7-2.2
		c0.8,0,1.5-0.1,2.3-0.2c2.6-0.2,5.1-0.3,7.6-0.4c1.3-0.1,1.3-0.1,2.6-0.1C465.9,243.6,471.5,245.2,477.4,250.4z"/>
	<path class="st35" d="M197,650.9c1.3,2.4,2,4.6,2.5,7.2c0.2,0.8,0.3,1.5,0.5,2.3c0.2,0.8,0.3,1.6,0.5,2.5
		c1.7,8.1,3.8,15.6,7.2,23.1c0.4,0.8,0.4,0.8,0.7,1.6c3.4,7.5,7.5,14.2,12.4,20.8c1.6,2.1,1.6,2.1,1.6,2.9c-1.4,0-2.8,0-4.1,0
		c-0.8,0-1.5,0-2.3,0c-5.5-0.2-9.1-1-13.5-4.5c-0.5-0.4-0.9-0.7-1.4-1.1c-13.3-11-19.6-26.2-22.7-42.7c-0.2-0.9-0.2-0.9-0.3-1.8
		c-0.5-3.1-0.9-5.8,0.2-8.8C183.6,649.9,191.2,650.8,197,650.9z"/>
	<path class="st36" d="M348.3,227c2.3,2.9,3.5,5.8,4.1,9.5c-0.6,2.5-0.6,2.5-1.6,4.1c-1.3,0.6-2.6,1.2-3.9,1.8
		c-4,1.7-7.9,3.6-11.8,5.4c-2.3,1-2.3,1-3.9,1c-0.3,0.5-0.5,1.1-0.8,1.6c-2.1,0.6-4,1.1-6.1,1.6c-0.6,0.1-1.3,0.3-1.9,0.4
		c-2,0.4-3.9,0.8-5.9,1.3c-0.9,0.2-0.9,0.2-1.7,0.4c-9.8,2.2-19.3,2.3-29.3,2.1c-0.7-2.3-0.9-3,0-5.4c5.5-9.7,10.9-15.8,21.6-19.4
		c2.6-0.7,4.5-0.7,7,0.3c1.3,1,1.3,1,2.5,2.5c0.6,0.7,1.2,1.5,1.8,2.2c0.5,0.6,1,1.3,1.5,1.9c0.6-0.7,0.6-0.7,1.3-1.4
		C327.8,229.2,337.9,222,348.3,227z"/>
	<path class="st21" d="M353.2,182.5c4.4,9.1,4.4,9.1,4.1,13.1c-12.4,18.4-43.8,26.1-63.8,31.1c-0.6,0.2-1.3,0.3-2,0.5
		c-8.4,2-16.9,2.2-25.6,2.3c-1,0-2.1,0-3.2,0c-7.5,0-14.3-1.1-21.6-2.8c0.3-0.5,0.5-1.1,0.8-1.6c2.1-0.5,2.1-0.5,5-0.9
		c1.1-0.2,2.1-0.3,3.2-0.5c0.6-0.1,1.1-0.2,1.7-0.2c36.6-5.2,70.7-13.2,98-39.5C351.5,182.5,351.5,182.5,353.2,182.5z"/>
	<path class="st37" d="M227.4,49.1c0.6,0.2,1.1,0.4,1.7,0.6c3.5,1.3,6.7,2.8,9.7,5.3c1,2.6,1,2.6,1.5,5.4c0.2,0.9,0.4,1.9,0.6,2.8
		c0.4,2.5,0.4,2.5,0.4,4.9c-1.5,1.4-1.5,1.4-3.4,2.7c-0.6,0.4-1.3,0.9-1.9,1.4c-2,0.8-2,0.8-4.1,0.3c-1.7-0.9-3.2-1.9-4.8-3
		c-8.5-5.4-20.7-7.5-30.6-5.8c-10,2.3-16.4,6.5-23.8,13.5c-1.7,1.5-3.4,3-5.2,4.4c-1.5,1.3-1.5,1.3-2.4,3.1
		c-1.5,1.5-1.5,1.5-4.6,1.8c-1.2,0-2.4-0.1-3.6-0.1c-0.6,0-1.2,0-1.9,0c-1.5,0-3-0.1-4.5-0.2c1.4-8.2,13-14.6,19.4-19.1
		C185.4,56.1,208.4,41.8,227.4,49.1z"/>
	<path class="st27" d="M487.2,333.8c7.4,6,11.4,15.3,13.1,24.5c0.5,5.8,0,9.7-3.1,14.6c-3.6,2.4-6.2,2-10.5,1.5
		c-6.5-1.4-11.4-4.2-15.5-9.4c-4.4-6.7-4.1-14-3.3-21.8c0.8-3,1.3-4.8,4-6.5c0.7-0.3,1.4-0.7,2.2-1c1.1-0.5,1.1-0.5,2.2-1
		C480.1,333,483.3,332.3,487.2,333.8z"/>
	<path class="st26" d="M277.1,333.8c4.4,4.4,6.7,9.3,7,15.6c0,1.8,0,3.5-0.1,5.3c0,0.9,0,1.9,0,2.9c-0.1,5.7-0.6,11.4-1.4,17.1
		c-0.8,6-0.7,12-0.7,18.1c0,1,0,2,0,3c0,4.4,0.1,8.6,0.8,12.9c0.3,3,0.3,3.4-1.5,6c-2.8,2-5.6,3.5-8.8,4.9c-0.5,0.3-1.1,0.5-1.7,0.8
		c-1.4,0.6-2.9,1.2-4.3,1.8c-0.5-0.3-1.1-0.5-1.6-0.8c0.2-0.6,0.5-1.2,0.7-1.9c2.6-7.5,3-14.3,3-22.2c0-11.2,1.3-21.4,4.7-32.2
		c2.3-8.5,1.3-17.6-2.7-25.5C273.8,336.6,273.8,336.6,277.1,333.8z"/>
	<path class="st8" d="M295.2,522.4c0.7,0.4,1.3,0.8,2,1.3c0.7,0.4,1.4,0.8,2.1,1.2c0.8,0.5,0.8,0.5,1.5,1c0,0.5,0,1.1,0,1.6
		c0.8,0.3,1.6,0.5,2.5,0.8c-0.5,0-1.1,0-1.6,0c-0.3,0.5-0.5,1.1-0.8,1.6c-0.8,0.2-1.6,0.4-2.5,0.6c-6.6,1.8-11.5,7.1-15.2,12.7
		c-1.9,3.9-2.4,7.8-2.8,12.1c5,2.1,9.2,3.5,14.7,3.4c1.1,0,2.1,0,3.2,0c1.1,0,2.2,0,3.3,0c1.1,0,2.2,0,3.4,0c2.7,0,5.5,0,8.2-0.1
		c-4.8,4.8-18,4.4-24.7,4.4c-7.5-0.1-11.1-1.9-16.5-6.9c-6.3-5.8-13.5-7.1-21.8-8.2c0-0.8,0-1.6,0-2.5c1.1-1,1.1-1,2.7-2
		c0.6-0.4,1.2-0.8,1.8-1.2c0.7-0.4,1.3-0.8,2-1.2c0.7-0.4,1.4-0.9,2.1-1.3c8.6-5.3,17.5-10.1,26.5-14.8c0.7-0.4,1.4-0.7,2.1-1.1
		C292,521.6,292,521.6,295.2,522.4z"/>
	<path class="st38" d="M184.8,187.4c3.5,0,7,0,10.6,0c-0.1,1-0.3,1.9-0.4,2.9c-1.6,15,0.7,27.8,7.8,41.2c0.4,0.7,0.8,1.5,1.1,2.2
		c1.8,3.3,3.6,6.6,5.6,9.8c6.6,10.8,11.7,20.9,9.3,34.1c-1.7,5.2-5.1,9.7-9.9,12.3c-8.9,3.6-16,2.4-24.9-1.1
		c-8.9-4.3-19.9-11.6-23.8-21.1c-0.8-3-0.9-5.6-0.8-8.7c0-1,0-2,0-3.1c0-0.8,0-1.5,0.1-2.3c1.4,1.3,2.7,2.7,4.1,4.1
		c0.5,0.5,1,0.9,1.5,1.4c3.4,3.5,5,6.4,6,11.2c1.8,4.9,5.1,7.4,9.6,9.6c0.6,0.3,1.1,0.5,1.7,0.8c0.8,0.4,0.8,0.4,1.7,0.8
		c7,3.4,13.9,5.3,21.5,3c4.7-2,7.1-5.7,9.6-10.1c2.3-7.4,0.6-11.8-2.8-18.4c-2.4-4.4-5-8.7-7.7-12.9c-8.2-13.7-14.1-28.2-12.9-44.5
		c0-1.7,0-1.7-1.3-3c-1.9-1.5-4-2-6.3-2.7c-0.3-0.5-0.5-1.1-0.8-1.6C183.7,190.2,184.2,188.8,184.8,187.4z"/>
	<path class="st16" d="M368.3,251.3c0.7,0.2,1.4,0.5,2.1,0.7c0.7,0.2,1.4,0.5,2.1,0.7c2,0.9,3.5,2,5.2,3.3c-0.9,2.1-1.5,3.2-3.4,4.5
		c-0.5,0.4-1,0.8-1.5,1.2c0,1.1,0,2.2,0,3.3c0.4-0.4,0.9-0.8,1.3-1.2c0.6-0.5,1.2-1,1.7-1.6c0.6-0.5,1.1-1,1.7-1.5
		c4.5-3.6,9.2-4,14.8-3.9c2.9,0.7,5.6,1.6,8.2,3.3c0.4,1.2,0.4,1.2,0.8,2.5c0.8,0,1.6,0,2.5,0c-0.8,1.6-0.8,1.6-3.4,2.8
		c-3.7,1.7-6.7,4.1-9.9,6.6c-0.5,0.4-1,0.8-1.5,1.2c-2.6,2.1-5,4.2-7.3,6.6c-1.4-0.5-1.4-0.5-2.9-1c-0.7-0.2-1.3-0.4-2-0.7
		c-1.8-0.6-3.5-1.2-5.3-1.8c-6.7-2.3-13-3.9-20-4.7c0.3-4.4,2.9-7.3,5.5-10.7c0.6-0.9,0.6-0.9,1.3-1.8
		C364.5,251.1,364.5,251.1,368.3,251.3z"/>
	<path class="st39" d="M331.4,24.5c7.1,7.4,10.6,17.9,10.7,27.9c-0.2,7.5-3.9,11.2-9.1,16.2c-12.4,10.5-28.5,16.4-44.7,16.1
		c-6.4-0.7-11.3-3.8-15.6-8.5c-6.3-8.3-8.9-18.4-7.8-28.6c1.4-7.3,6.4-12.8,12.3-17.2c4.2-2.6,8.6-4.6,13.1-6.5
		c1.1-0.5,1.1-0.5,2.3-1C304.7,17.8,320.7,15.3,331.4,24.5z M274.4,36.8c-0.4,0.6-0.9,1.2-1.4,1.9c2.7,1.8,4.9,2.4,8.1,3.2
		c20.8,5.4,20.8,5.4,25.4,9.9c0.8,0.3,1.6,0.6,2.4,1c6.4,2.7,12.2,6.5,16.8,11.7c1.4,1.3,2.8,2.1,4.5,2.8c1.2-1.1,2.4-2.3,3.6-3.4
		c0.7-0.6,1.3-1.3,2-1.9c3.6-4.1,3.8-7.9,3.7-13.2c-0.8-8.3-3.6-14.7-9.2-20.7c-0.6-0.7-0.6-0.7-1.3-1.5c-3.2-3.5-5.8-4.9-10.5-5.3
		C303.6,21,284.5,24.9,274.4,36.8z M269.2,43.4c-3.1,5.4-2.5,12-1.1,17.9c3.1,9.2,7,15.1,15.6,19.9c12.1,4,25.5-1.8,36.5-6.8
		c2.2-1.1,4.1-2.2,6-3.8c-3-8.6-11.6-13.4-19.3-17.4C287.6,43.5,287.6,43.5,269.2,43.4z"/>
	<path class="st18" d="M499.5,376.3c3,2.5,4.8,6.6,5.5,10.3c0.8,8.7-0.9,18.8-5.6,26.2c-1.7,2-2.4,2.6-5,2.9
		c-3.5,0.1-5.7,0.2-8.8-1.6c-4.5-7.2-4.8-15.8-3.3-24c1.1-2.8,1.1-2.8,2.5-4.9c0.3-0.8,0.6-1.7,0.9-2.5
		C488.5,378.4,494.2,375.5,499.5,376.3z"/>
	<path class="st40" d="M497,326.4c1.4,4,2.8,7.9,4.2,11.9c0.7,2,1.4,3.9,2.1,5.9c2.7,7.7,4.6,14.7,4.2,23.1
		c-0.2,4.8,0.2,8.1,2.2,12.5c2.6,6.4,2.3,12.5,1.8,19.3c-0.4,4.3-0.4,4.3,1.3,8c1.5,1,1.5,1,3.8,2c-0.5,1.3-1.1,2.7-1.6,4.1
		c-0.5,0-1.1,0-1.6,0c-0.1,0.5-0.1,0.9-0.2,1.4c-0.9,2.6-2.3,3.9-4.2,5.8c-0.6,0.7-1.3,1.3-2,2c-1.8,1.5-1.8,1.5-4.3,1.5
		c-0.3,0.8-0.5,1.6-0.8,2.5c-0.8,0-1.6,0-2.5,0c-0.3,0.8-0.5,1.6-0.8,2.5c-0.8,0-1.6,0-2.5,0c-0.5,1.1-1.1,2.2-1.6,3.3
		c-0.5,0-1.1,0-1.6,0c0-9.8,0-9.8,3.1-12.9c1.3-0.9,1.3-0.9,2.7-1.8c6.1-7.2,8.5-18.2,8.3-27.5c-0.4-5.1-2.1-8.9-5.3-12.8
		c-1.3-1.6-1.3-1.6-2.2-3.1c0.5-2.3,0.5-2.3,1.6-4.1c2.8-8.5,0-17.5-3.6-25.3c-2.5-4.7-5.3-9-8.7-13.1c0.9-0.8,1.8-1.6,2.7-2.5
		c0.5-0.5,1-0.9,1.5-1.4C494.6,326.4,494.6,326.4,497,326.4z"/>
	<path class="st35" d="M219.9,86.1c4.4,3.3,8.4,7.7,9.8,13.1c0.5,5.8,0.4,10.9-1.6,16.3c-0.7-0.6-1.4-1.3-2.1-1.9
		c-10.1-8.6-23.7-18.9-37.1-20.9c0.1-1.4,0.1-1.4,0.8-3.3c1.9-1.5,1.9-1.5,4.2-3c0.8-0.5,1.5-1,2.3-1.5
		C204.3,80.6,211.9,82,219.9,86.1z"/>
	<path class="st41" d="M204.4,588.8c0.4,1.2,0.4,1.2,0.8,2.5c-0.5,0-1.1,0-1.6,0c0.4,1.2,0.4,1.2,0.8,2.5c-0.5,0-1.1,0-1.6,0
		c0,1.9,0,3.8,0,5.7c-0.5,0-1.1,0-1.6,0c-0.1,0.9-0.1,0.9-0.3,1.9c-1.1,7.3-2.4,14.6-3.8,21.8c-5.9,0.8-11.9,1.6-18,2.5
		c-2.8-5.7,0.5-12.1,2.4-17.9c3-8.3,7.4-13.3,15.3-17.2c1-0.4,1-0.4,1.9-0.9C200.7,588.6,202.2,588.8,204.4,588.8z"/>
	<path class="st42" d="M365.9,283.9c4.5,3.8,7.1,9.1,9.3,14.4c1.2,2.8,2.7,5.6,4.1,8.3c0.8,1.8,0.8,1.8,0.8,4.2
		c-0.8,0.8-0.8,0.8-1.6,1.6c-4.2-4.2-6.6-8.9-9.2-14.2c-1.5-3.2-1.5-3.2-3.6-5.9c-1.1-1.1-1.1-1.1-1.1-2.8c-1.3-0.3-2.7-0.5-4.1-0.8
		c0-0.5,0-1.1,0-1.6c-0.5,0.3-1.1,0.5-1.6,0.8c-1.2,0.1-2.4,0.2-3.5,0.3c-3.2,0.3-5.4,0.9-7.9,3c-0.3,0.8-0.5,1.6-0.8,2.5
		c-1.6,1.1-3.3,2.2-4.9,3.3c-1.9,1.8-3.7,3.6-5.3,5.6c-5.9,7.3-13.2,11.6-22.5,13.2c-0.8,0-1.6,0-2.5,0c0,0.5,0,1.1,0,1.6
		c-1.6,0-3.2,0-4.9,0c0-0.5,0-1.1,0-1.6c-3.5,0-7,0-10.6,0c0,0.5,0,1.1,0,1.6c-0.5,0.2-1,0.4-1.5,0.6c-4.9,2-8.8,3.9-10.9,9
		c-0.2,0.6-0.4,1.2-0.7,1.8c-0.8,0.4-0.8,0.4-1.6,0.8c-0.6-1.3-0.6-1.3-0.8-3.3c2.4-5.5,6.2-9.8,11.7-12.3c4.2-1.3,8.4-1.7,12.8-2.1
		c7.3-0.6,12.7-1.6,18.8-6c0.6-0.4,1.2-0.9,1.9-1.3c5.4-4,10.4-8.7,15.3-13.3C348,284.7,356.3,280.2,365.9,283.9z"/>
	<path class="st39" d="M218.3,82.8c0.7,0.3,1.4,0.5,2.1,0.8c5.5,2.6,8.4,6.9,11,12.3c3.4,12.5-1.3,24.4-7.3,35.2
		c-5.9,10.1-13.8,22.2-25.4,26.1c-12.2,1.1-20.8-2.1-30.6-9.5c-4-3.8-6.3-7.6-6.5-13.1c0.1-11,6.7-22.3,12.6-31.3
		c0.8-0.5,1.6-1.1,2.5-1.6c0.3-0.8,0.5-1.6,0.8-2.5c0.8-0.3,1.6-0.5,2.5-0.8c0.2-0.6,0.5-1.3,0.7-1.9c1.2-2.7,2.5-3.1,5-4.6
		c0.8-1.4,1.6-2.7,2.5-4.1c1.6-0.9,1.6-0.9,3.3-1.6c0.4-0.5,0.9-1,1.3-1.5C200.5,77.4,209.2,79.2,218.3,82.8z M181,98.3
		c-8.1,10.1-17.4,24.2-16.9,37.5c0.6,5.3,4,8.3,7.8,11.6c8.2,6,15.9,8.1,25.9,7.3c5.9-1.7,8.8-4.7,12.6-9.3c1.3-1.4,1.3-1.4,3-2.2
		c2.3-1.2,3.1-2.9,4-5.2c0.9-2.1,1.9-3.9,3.1-5.8c6.5-10.6,10.6-20.5,9.2-33.1c-0.9-2.9-2.3-5-4.1-7.4c-0.4-0.5-0.7-1-1.1-1.6
		c-4.2-5.1-10.7-6.7-16.9-8.2C196.6,81.1,187.7,90.7,181,98.3z"/>
	<path class="st29" d="M452.9,250.9c1.1,0,1.1,0,2.3,0c0.7,0,1.5,0,2.2,0c4.3,0,7.4,0.3,11.1,2.7c11.7,12.2,14.3,39.8,14.2,55.7
		c-0.1,4.4-0.1,4.4-1.1,6.4c-0.5,0-1.1,0-1.6,0c0-0.5,0-1.1,0-1.6c-0.8,0-1.6,0-2.5,0c-1.1-1.3-2.2-2.7-3.3-4.1
		c-1.3-1.1-2.7-2.2-4.1-3.3c0.2-0.8,0.5-1.6,0.7-2.5c3.4-12.5,5-24.3-1.5-35.9c-6.1-9-13.5-12.5-23.7-15.5
		C447.9,250.5,449.7,251,452.9,250.9z"/>
	<path class="st43" d="M350.7,274.1c6,0.1,11.5,1.1,17.2,2.8c0.6,0.2,1.2,0.4,1.8,0.5c2.7,0.8,4.8,1.6,7.1,3.2c0,0.5,0,1.1,0,1.6
		c0.5,0.3,1.1,0.5,1.6,0.8c-0.3,1.6-0.5,3.2-0.8,4.9c0.5,0,1.1,0,1.6,0c0.8,1.6,1.6,3.2,2.5,4.9c5.9,0.9,10.1-2.8,14.6-6
		c3.7-2.9,6.4-6.5,9.2-10.3c1.5-1.7,1.5-1.7,3.9-2.5c0.4,7.3,0.4,7.3-2.5,10.6c-1.1,0.3-2.2,0.6-3.3,0.8c-0.3,0.5-0.5,1.1-0.8,1.6
		c-0.3,0.5-0.5,1.1-0.8,1.6c-0.5,0.1-1,0.2-1.5,0.4c-2.1,0.5-2.9,1.3-4.4,2.7c-0.5,0.5-0.9,0.9-1.4,1.4c-0.5,0.5-1,1-1.4,1.5
		c-0.7,0.7-0.7,0.7-1.5,1.4c-0.5,0.5-0.9,0.9-1.4,1.4c-0.4,0.4-0.8,0.9-1.3,1.3c-1.1,1.3-1.1,1.3-1.4,3c-0.1,0.5-0.3,1-0.4,1.6
		c-2.5,1.4-2.5,1.4-4.9,2.5c-3.4-2.6-4.6-5.1-6.1-9.2c-2.1-5.9-4.2-11.2-9.8-14.5c-4.1-1.1-8-1.6-12.3-1.6c-2.1,0-2.1,0-3.8-0.8
		C349.7,276.1,349.7,276.1,350.7,274.1z"/>
	<path class="st44" d="M482.3,251.2c0.8,0,1.6,0,2.5,0c0.8,1.6,0.8,1.6,0.6,4.4c0,3.1,0.7,5.3,2.1,8.1c2.6,6,4,12.1,5.5,18.5
		c4.9,21.2,12.3,32.6,30.8,44.7c2.3,1.5,4.5,3,6.6,4.7c1.8,1.4,2.9,1.9,5.1,2.2c-0.4,1.6-0.4,1.6-0.8,3.3c-0.6-0.4-1.2-0.8-1.8-1.1
		c-5.5-3.4-11-6.5-16.7-9.5c-6-3.1-11.5-6.3-16.7-10.6c-0.9-0.7-0.9-0.7-1.7-1.4c-7.8-7-7.7-19.1-9.1-28.9c-1.3-8.9-3-17.4-5.5-26.1
		c-0.6-2.5-1.2-4.9-1.6-7.4C481.8,251.7,482,251.5,482.3,251.2z"/>
	<path class="st45" d="M444.7,339.5c7.9,3,13.5,15.6,17.2,22.9c2.8,6.5,3.9,14.1,1.4,20.8c-0.5,0.7-0.9,1.3-1.4,2
		c-0.4,0.6-0.8,1.3-1.3,1.9c-0.4,0.4-0.8,0.9-1.2,1.3c-0.5,0-1.1,0-1.6,0c-1.4-2.7-1.3-5.8-1.6-8.8c-0.4-4.2-0.9-8.3-1.6-12.5
		c-0.5,0-1.1,0-1.6,0c-3.1-5.9-3.1-5.9-3.9-8.9c-1.9-5-5.6-9.3-10-12.3C440.2,342.9,442.1,341.4,444.7,339.5z"/>
	<path class="st46" d="M309,530.8c-0.3,0.4-0.6,0.7-1,1.1c-0.9,1-1.8,2.1-2.6,3.1c-1,1.2-2.1,2.4-3.2,3.6c-1.7,2.6-2,4.7-2.2,7.8
		c0.5,0,1.1,0,1.6,0c0,0.5,0,1.1,0,1.6c0.6,0.1,1.1,0.2,1.7,0.3c2.4,0.5,2.4,0.5,4.5,1.3c3.2,1,6.5,1.5,9.8,2c2,0.5,2,0.5,3.6,2.1
		c-2.6,0.6-5.1,1.1-7.7,1.6c-1.1,0.2-1.1,0.2-2.2,0.5c-4.7,1-9,1.3-13.8,1.2c-0.9-2.7-0.9-3.1,0.4-5.9c0.4-0.7,0.8-1.5,1.3-2.2
		c-0.8,0-1.6,0-2.5,0c-0.8,2.7-1.6,5.4-2.5,8.2c-2.4-0.3-4.9-0.5-7.4-0.8c-0.8-2.5-1-3.7,0.2-6.1c1.5-2.1,3.1-4.1,4.7-6.1
		c-2.1,0.6-2.1,0.6-4.1,1.6c-0.6,1.7-0.6,1.7-0.8,3.3c-0.5,0.3-1.1,0.5-1.6,0.8c0,0.8,0,1.6,0,2.5c-0.5,0-1.1,0-1.6,0
		c0.1-1.2,0.2-2.4,0.3-3.6c0-0.7,0.1-1.3,0.2-2c0.2-0.8,0.2-0.8,0.3-1.7c0.5-0.3,1.1-0.5,1.6-0.8c0.5-1.1,1.1-2.2,1.6-3.3
		C292.9,534.1,300.7,529.1,309,530.8z"/>
	<path class="st41" d="M197,650.9c1.3,2.4,2,4.5,2.5,7.2c0.1,0.7,0.3,1.4,0.4,2.2c0.1,0.8,0.3,1.5,0.4,2.3c0.2,0.8,0.3,1.5,0.5,2.3
		c0.4,1.9,0.7,3.8,1.1,5.6c-5.1,0.1-9.8-0.3-14.8-1.2c-0.6-0.1-1.3-0.2-1.9-0.4c-1.5-0.3-3-0.6-4.6-0.9c0-0.5,0-1.1,0-1.6
		c-0.5,0-1.1,0-1.6,0c-0.3-2-0.7-4-1-6c-0.1-0.6-0.2-1.1-0.3-1.7c-0.6-4.2-0.6-4.2,0.6-6.2c1.8-1,3.1-1.3,5.2-1.4
		c0.7,0,1.4-0.1,2.2-0.2C189.5,650.9,193.2,650.9,197,650.9z"/>
	<path class="st47" d="M215,288.8c2.9,2.9,2.6,6.8,2.7,10.8c0,6.2-1.4,11.5-4.3,17c-0.5,0-1.1,0-1.6,0c-0.1,0.5-0.2,1-0.3,1.5
		c-0.7,2.1-1.3,2.9-3,4.2c-0.8,0-1.6,0-2.5,0c0,0.5,0,1.1,0,1.6c-18.5,10.1-41,14.6-61.8,9.2c-1.8-0.6-3.5-1.2-5.3-1.9
		c-0.9-0.3-1.7-0.6-2.6-1c-8.1-3.2-14.9-6.7-20.3-13.8c0.5-0.5,1.1-1.1,1.6-1.6c0.3,0.4,0.7,0.9,1.1,1.3c0.7,0.9,0.7,0.9,1.4,1.7
		c0.5,0.6,0.9,1.1,1.4,1.7c10.8,10.4,31.5,12,45.8,11.9c14.5-0.4,28.6-4.3,39.3-14.6c5.6-6.4,8.4-13.3,10-21.7c-0.5,0-1.1,0-1.6,0
		C215,293.2,215,291,215,288.8z"/>
	<path class="st30" d="M247.7,68.1c1.6,3.1,3.2,6.1,4.9,9.2c0.7,1.3,0.7,1.3,1.4,2.6c0.4,0.8,0.9,1.7,1.3,2.5
		c0.4,0.8,0.8,1.5,1.2,2.3c1,2.1,1,2.1,1.8,5.4c-3.2,1.6-6.5,3.2-9.8,4.9c-0.3-0.8-0.5-1.6-0.8-2.5c-0.5,0-1.1,0-1.6,0
		c-1.2-1.7-1.2-1.7-2.6-4c-2.7-4.3-5.6-8.4-8.8-12.3C237.8,71.6,241.9,68.1,247.7,68.1z"/>
	<path class="st48" d="M264.9,103.2c1.9,0.8,3.8,1.6,5.7,2.5c2.3,0.6,2.3,0.6,4.1,0.8c0,0.5,0,1.1,0,1.6c0.8,0,1.6,0,2.5,0
		c-0.3,0.5-0.5,1.1-0.8,1.6c-0.7,0.2-1.3,0.4-2,0.7c-3.7,1.2-6.9,3-10.2,5c-0.6,0.4-1.3,0.7-1.9,1.1c-2.8,1.6-5.6,3.2-8.2,5
		c-2.1,1.4-2.1,1.4-3.7,1.4c-0.3,0.8-0.5,1.6-0.8,2.5c-1.6-5-1.2-10.5,0-15.5c2.1-2.5,4.4-3.6,7.4-4.9c0.7-0.5,1.5-1,2.2-1.6
		C261.4,102.1,262.3,102.4,264.9,103.2z"/>
	<path class="st18" d="M328.7,17c6.3,4.8,11.1,9.5,14.6,16.7c0.3,0.6,0.6,1.2,0.9,1.8c1,3.2,0.9,6.3,0.9,9.6c0,1,0,1,0,2
		c0,3.5-0.2,6.3-1.9,9.5c-0.3,0-0.5,0-0.8,0c-0.1-1-0.2-1.9-0.3-2.9c-1.3-11-4.2-22.8-13-30.4c-7.3-4.9-15-4.4-23.3-3
		c-2.3,0.3-4.4,0.5-6.8,0.4C305.3,13.5,320.9,12.2,328.7,17z"/>
	<path class="st18" d="M474.1,315c3.6,1.5,4.8,3.6,6.6,7c1.2,3,1.1,5.3,0.8,8.6c-0.7,0.3-1.4,0.6-2.1,0.9
		c-5.7,2.5-10.9,5.2-15.9,8.9c0-0.5,0-1.1,0-1.6c-0.8-0.3-1.6-0.5-2.5-0.8c-0.7-1.6-0.7-1.6-0.8-4.1c2.1-3.9,5.4-7.1,8.3-10.3
		C471,320.7,472.8,318.3,474.1,315z"/>
	<path class="st27" d="M401.4,261c0,0.5,0,1.1,0,1.6c0.8,0,1.6,0,2.5,0c-1,2-1.7,2.2-3.8,3.1c-2.4,1.1-4.3,2.4-6.4,4.1
		c-2.3,1.7-3.8,2.1-6.6,1.9c-3.9-0.7-5.9-2-8.5-5c-0.8-1.9-1.2-3.6-1.6-5.7C385.4,255.7,392.7,256.1,401.4,261z"/>
	<path class="st47" d="M219.5,80.8c1.5,1.2,3,2.3,4.5,3.6c-0.3,0.5-0.5,1.1-0.8,1.6c-0.6-0.3-1.2-0.6-1.8-0.8
		c-10-4.8-10-4.8-20.8-4.2c-3.4,1.3-6.1,2.3-8.5,5.1c-1.6,1.6-1.6,1.6-3.3,2.3c-1.8,0.8-1.8,0.8-2.4,2.5c-0.9,1.7-0.9,1.7-2.9,2.9
		c-2.5,1.5-2.7,2.7-3.7,5.4c-0.8,0.3-1.6,0.5-2.5,0.8c-0.6,1.6-0.6,1.6-0.8,3.3c-0.5,0-1.1,0-1.6,0c-2.2,3.8-4.3,7.6-6.5,11.4
		c-0.3,0-0.5,0-0.8,0c0.5-11.7,10.9-22.9,18.8-30.7C196.5,75.6,208.2,73.5,219.5,80.8z"/>
	<path class="st24" d="M398.1,432.7c0.3,0.5,0.5,1.1,0.8,1.6c-0.7,1.9-0.7,1.9-1.8,4.3c-4.1,9.4-6.9,19.1-7.4,29.4
		c0,0.6,0,1.2-0.1,1.8c0,1.2-0.1,2.3-0.1,3.5c0,1.6,0,1.6-0.5,4.3c-2.1,1.7-4.1,1.8-6.7,1.7c-1,0-2-0.1-3.1-0.1
		c0.2-0.4,0.4-0.8,0.6-1.2c2.3-5,3.3-10,4.3-15.5C386.1,451.6,389.8,440.6,398.1,432.7z"/>
	<path class="st22" d="M241.2,40.3c1.1,3.2,0.2,5.3-0.8,8.3c-0.2,0.5-0.3,1.1-0.5,1.6c-0.4,1.3-0.8,2.6-1.2,3.9
		c-4.4-1.4-8.7-3-13-4.6c-0.7-0.3-1.4-0.5-2.2-0.8c-1.8-0.7-3.5-1.3-5.3-2c0.3-0.8,0.5-1.6,0.8-2.5c1.4-0.7,1.4-0.7,3.2-1.1
		c0.7-0.2,1.3-0.4,2-0.5c0.7-0.2,1.4-0.4,2.1-0.5c0.7-0.2,1.4-0.4,2.1-0.6C232.9,40.5,236.7,40.1,241.2,40.3z"/>
	<path class="st49" d="M289.9,301.7c0.8,0,1.6,0,2.4-0.1c0.7,0.1,1.3,0.2,2,0.3c1.6,2.5,1.6,2.5,1.4,4.3c-1.6,4.4-2.9,6.7-7.1,8.7
		c-1.3,0.5-2.7,1.1-4,1.6c-0.8,0.5-1.6,1.1-2.5,1.6c-2.5-1.6-2.5-1.6-3.2-4.5c-0.4-4,0.8-7.7,3.2-11
		C284.6,301.7,287.2,301.7,289.9,301.7z"/>
	<path class="st44" d="M498.7,258.5c4.5,1.3,7.3,4.3,10.6,7.4c0.5,0.4,1,0.9,1.6,1.4c13.4,12.2,22.8,34.7,23.8,52.6
		c-1.7-1.7-2.1-2.5-2.8-4.8c-0.3-0.9-0.3-0.9-0.6-1.9c-0.2-0.7-0.4-1.3-0.6-2c-2.8-9.1-2.8-9.1-6.8-17.7c-1.1-2-2.3-4-3.3-6
		c-4.8-9.2-10.9-16.7-18.1-24.2C500.3,261,500.3,261,498.7,258.5z"/>
	<path class="st50" d="M482.3,333.8c4.4-0.4,4.4-0.4,6.7,1.3c5.1,6.1,10.4,13.1,9.7,21.6c-0.5,0.5-1.1,1.1-1.6,1.6
		c-1.1,0-2.2,0-3.3,0c-0.4-0.9-0.9-1.8-1.3-2.7c-0.6-1.2-1.2-2.4-1.7-3.5c-0.3-0.6-0.6-1.2-0.8-1.7c-1.4-2.9-3-5.6-4.9-8.2
		C482.8,339,482.5,337.4,482.3,333.8z"/>
	<path class="st9" d="M350.7,274.1c6,0.1,11.5,1.1,17.2,2.8c0.6,0.2,1.2,0.4,1.8,0.5c2.7,0.8,4.8,1.6,7.1,3.2c0,0.5,0,1.1,0,1.6
		c0.5,0.3,1.1,0.5,1.6,0.8c-1.1,1.9-2.2,3.8-3.3,5.7c-4.6-2.9-4.6-2.9-6.4-5c-4.1-3.6-9.6-3.3-14.7-3.1c-1.7,0-1.7,0-3.4-0.8
		C349.7,276.1,349.7,276.1,350.7,274.1z"/>
	<path class="st44" d="M459.4,236.5c1.5,0.6,1.5,0.6,3.3,1.6c0.6,1.3,1.1,2.7,1.6,4.1c-0.5,0-0.9,0-1.4,0c-14.6,0.4-28.2,2-42.3,6
		c-4.6,1.3-8.7,1.7-13.5,1.3c0.3-0.5,0.5-1.1,0.8-1.6c2.3-0.5,4.5-1,6.9-1.4c7-1.3,13.9-3,20.8-4.9c7.1-1.9,13.7-3.3,21.1-3.4
		c0.7,0,1.3-0.1,2-0.1C458.9,237.6,459.2,237,459.4,236.5z"/>
	<path class="st32" d="M300.8,546.3c0.3,0.5,0.5,1.1,0.8,1.6c1.4,0.3,2.7,0.6,4.1,0.8c1.1,0.4,1.1,0.4,2.1,0.8c3.2,1,6.5,1.5,9.8,2
		c2,0.5,2,0.5,3.6,2.1c-2.6,0.6-5.1,1.1-7.7,1.6c-1.1,0.2-1.1,0.2-2.2,0.5c-4.7,1-9,1.3-13.8,1.2c-0.8-2.6-0.9-3.1,0.3-5.8
		C298.8,549.5,299.8,547.9,300.8,546.3z"/>
	<path class="st24" d="M258.5,105c2.3,1,3.4,2.8,4.8,4.7c-1.2,3.5-3.4,4.6-6.5,6.3c-0.9,0.5-1.7,1-2.7,1.5c-2.2,1.1-2.2,1.1-3.9,1.1
		c-1-3.1-1.8-5.8-0.8-9C251.8,107.3,254.8,104.7,258.5,105z"/>
	<path class="st18" d="M368.2,251.4c3.7,1.1,6.5,2.2,9.5,4.7c-1.3,3.2-3,5.3-5.7,7.4c-3.1,0.1-4.9,0-7.2-2.2
		c-1.1-2.2-1.9-4.4-2.6-6.8C364,252.3,365.2,251.1,368.2,251.4z"/>
	<path class="st37" d="M262.8,145.7c2.5,2,3.8,3.7,5.3,6.5c0.2,3.2,0.2,3.2,0,5.7c-1.7,0.7-1.7,0.7-4.1,0.8
		c-2.6-1.7-5.1-3.7-6.5-6.5c0-1.9,0-3.8,0-5.7C259.7,145,260.3,144.7,262.8,145.7z"/>
	<path class="st51" d="M439.8,228.3c0,0.5,0,1.1,0,1.6c-4.8-0.4-9.6-0.9-14.4-1.7c-11.2-1.6-22.6-0.8-33.9,0c0-0.5,0-1.1,0-1.6
		C407.1,223.1,424.6,223.2,439.8,228.3z"/>
	<path class="st27" d="M483.1,422c3.5,1.2,3.5,1.2,4.9,3.3c-0.1,4.4-1.4,7.2-4.1,10.6c-2.5,1.6-2.5,1.6-4.2,1.3
		c-0.7-0.2-0.7-0.2-1.5-0.5c-0.9-2.7-0.9-3.9,0.2-6.6c1.4-2.3,2.9-3.8,4.7-5.7C483.1,423.7,483.1,422.9,483.1,422z"/>
	<path class="st44" d="M374.4,238.1c2.7,1,5.2,2.2,7.7,3.6c6.1,3.1,12.9,5.2,19.8,5.9c2.9,0.4,3.3,0.7,5.2,2.8
		c-8.4-0.6-16.3-1.8-24.5-4c-0.8-0.2-1.6-0.4-2.4-0.6c-6-1.7-6-1.7-8.3-4.3C372.8,240.3,373.6,239.2,374.4,238.1z"/>
	<path class="st44" d="M472.5,297c0.5,0,1.1,0,1.6,0c0.3,0.8,0.6,1.6,1,2.4c0.4,1.1,0.9,2.1,1.3,3.2c0.2,0.5,0.4,1.1,0.6,1.6
		c1,2.4,1.6,3.9,3.8,5.4c0.5,0.1,1,0.3,1.5,0.4c-0.3,1.9-0.5,3.8-0.8,5.7c-0.5,0-1.1,0-1.6,0c0-0.5,0-1.1,0-1.6c-0.8,0-1.6,0-2.5,0
		c-1.1-1.3-2.2-2.7-3.3-4.1c-1.3-1.1-2.7-2.2-4.1-3.3C470.9,303.5,471.7,300.3,472.5,297z"/>
	<path class="st9" d="M497,259.4c6.5,1,11.7,9.2,15.5,14.1c4,5.5,7.8,11.2,9.8,17.8c-3.4-1.2-4.3-3.1-6-6.2
		c-4.7-8.4-11-15.9-18-22.6C497,261,497,261,497,259.4z"/>
	<path class="st44" d="M528.1,346.8c5.9,5.8,5.9,5.8,6,10.9c0,0.6,0,1.1,0,1.7c0,0.6,0,1.2,0,1.7c-0.1,5.2-1.1,10.1-2.7,15.1
		c-0.3,0-0.5,0-0.8,0c-0.3-1.1-0.6-2.1-0.9-3.2c-0.2-0.6-0.3-1.2-0.5-1.8c-0.3-1.6-0.3-1.6,0.5-3.2c0.4-6.8,0.1-13.1-1.6-19.6
		C528.1,347.9,528.1,347.4,528.1,346.8z"/>
	<path class="st37" d="M254.3,95.5c1.7,1.3,2.9,2.5,4,4.4c-1,3-1.8,3.2-4.6,4.6c-1,0.5-1,0.5-2,1.1c-0.5,0.3-1,0.5-1.6,0.8
		c-1.7-3.1-2.1-5.4-1.6-9C250.6,95.6,251.6,94.8,254.3,95.5z"/>
	<path class="st27" d="M282,302.7c2.6,1.1,3.3,1.6,4.9,4.1c-0.1,2.9-0.5,4.5-2.2,6.9c-1.8,1.3-1.8,1.3-4.1,1.1
		c-0.6-0.2-1.2-0.4-1.8-0.6C279.2,309.7,279.8,306.6,282,302.7z"/>
	<path class="st30" d="M496.2,383.6c1.6,0.3,1.6,0.3,3.3,0.8c1.2,2.4,0.9,4.4,0.9,7c0,1,0,1.9,0,3c0,0.7,0,1.5,0,2.3
		c-1.6,0.8-1.6,0.8-3.3,1.6c-1.6-1.6-1.6-1.6-1.8-4.4c0-1.1,0-2.2,0-3.4c0-0.6,0-1.1,0-1.7C495.3,384.6,495.3,384.6,496.2,383.6z"/>
	<path class="st39" d="M215,400.8c2.7,1.8,2.7,2,3.6,4.9c2.3,5.7,7.3,9.3,11.9,13.1c-0.8,0.3-1.6,0.5-2.5,0.8
		c-4.9-2.5-10-6.2-12.3-11.4C215.3,405.7,215.1,403.3,215,400.8z"/>
	<path class="st37" d="M190.5,106.5c0.8,0,1.6,0,2.5,0c0.9,7.6,1.8,15.2,2.5,22.9c-0.5,0-1.1,0-1.6,0c0-0.5,0-1.1,0-1.6
		c-0.5,0-1.1,0-1.6,0C191.6,120.7,191,113.7,190.5,106.5z"/>
	<path class="st9" d="M412.4,226.6c0.7,0,1.3,0,2,0c1.6,0,3.3,0,4.9,0c0,0.5,0,1.1,0,1.6c0.5,0.3,1.1,0.5,1.6,0.8
		c-7.8,0.3-15.6,0.5-23.7,0.8c0.3-0.8,0.5-1.6,0.8-2.5C402.9,226.8,407.6,226.6,412.4,226.6z"/>
	<path class="st37" d="M338.4,105.7c2.5,0.2,3.7,0.5,5.6,2.2c1.1,2.1,1.2,3.5,1,5.9c-1.4,0.6-1.4,0.6-3.3,0.8
		c-2.2-1.3-2.2-1.3-4.1-3.3c-0.3-2.6-0.3-2.6,0-4.9C337.9,106.2,338.2,106,338.4,105.7z"/>
	<path class="st9" d="M526.5,349.3c0.5,0,1.1,0,1.6,0c3,6,3.1,12.2,2.5,18.8c-0.5,0.5-1.1,1.1-1.6,1.6c-1.6-1.6-1.1-4.8-1.2-7
		C527.4,358.2,527.1,353.8,526.5,349.3z"/>
	<path class="st18" d="M176.6,315.8c0.9,2.7,0.7,4.6,0,7.4c-1.6,0-3.2,0-4.9,0c0-0.5,0-1.1,0-1.6c-0.5-0.3-1.1-0.5-1.6-0.8
		c0.3-1.6,0.5-3.2,0.8-4.9C173.4,314.9,174.1,315,176.6,315.8z"/>
	<path class="st30" d="M477.4,319.9c1.4,1.3,1.4,1.3,2.5,2.5c-0.5,1.3-1.1,2.7-1.6,4.1c-1.9,0-1.9,0-4.1-0.8
		c-1.5-2.9-1.5-2.9-2.5-5.7C474.3,319,475,318.9,477.4,319.9z"/>
	<path class="st37" d="M197.8,100.8c1.2,0.8,1.2,0.8,2.5,1.6c0.3,1.6,0.3,1.6,0.2,3.6c0,0.7,0,1.4,0,2.1c0,0.7,0,1.5-0.1,2.2
		c0,1.1,0,1.1,0,2.2c0,1.8-0.1,3.6-0.1,5.4c-0.5,0-1.1,0-1.6,0c-1-1.9-0.9-3.1-0.9-5.2c0-0.7,0-1.4,0-2.1c0-0.7,0-1.5,0-2.2
		c0-0.7,0-1.5,0-2.2C197.8,104.4,197.8,102.6,197.8,100.8z"/>
	<path class="st30" d="M390.8,258.5c0.5,0.5,1.1,1.1,1.6,1.6c-0.3,2.1-0.3,2.1-0.8,4.1c-1.9,0.2-1.9,0.2-4.1,0
		c-1.6-2.5-1.6-2.5-1.6-5.7c-0.5-0.3-1.1-0.5-1.6-0.8C387,256.7,388.3,257,390.8,258.5z"/>
	<path class="st32" d="M298.4,303.5c2.7,1.2,4.6,2.7,6.5,4.9c0,0.5,0,1.1,0,1.6c-3.6,0.4-3.6,0.4-7.4,0.8c-0.7-2.4-1-3.6,0-6
		C297.8,304.4,298.1,304,298.4,303.5z"/>
	<path class="st52" d="M397.3,259.4c2,0.8,2,0.8,4.1,1.6c0,0.5,0,1.1,0,1.6c0.8,0,1.6,0,2.5,0c-1,2.1-1.9,2.4-4,3.4
		c-0.6,0.3-1.1,0.6-1.7,0.9c-1.6,0.7-1.6,0.7-4.1,0.7C395.1,264.8,396.2,262.1,397.3,259.4z"/>
	<path class="st37" d="M306.6,37c0.8,0.3,1.6,0.5,2.5,0.8c-0.3,1.7-0.5,3.5-0.8,5.2c-0.1,1-0.3,1.9-0.4,2.9
		c-0.4,2.5-0.4,2.5-1.3,4.1c-0.5,0-1.1,0-1.6,0c-1-3.1-0.4-4.8,0.4-7.9c0.2-1,0.5-1.9,0.7-2.9C306.2,38.5,306.4,37.8,306.6,37z"/>
	<path class="st21" d="M300,36.2c0.5,0.3,1.1,0.5,1.6,0.8c-0.1,1.3-0.2,2.6-0.3,3.9c0,0.7-0.1,1.5-0.2,2.2c-0.3,2-0.3,2-2,4.5
		c-1.2-1.9-1.7-2.9-1.5-5.2c0.2-0.6,0.3-1.3,0.5-1.9c0.2-0.6,0.3-1.3,0.5-1.9C299.2,37,299.2,37,300,36.2z"/>
	<path class="st32" d="M457.8,538.9c0.5,0.3,1.1,0.5,1.6,0.8c-2.2,2.2-4.3,4.3-6.5,6.5c-0.8-0.3-1.6-0.5-2.5-0.8
		c1.1-2.8,2.4-4.1,4.9-5.7C456.2,539.5,457,539.2,457.8,538.9z"/>
	<path class="st39" d="M203.7,302.2c0.5,0.2,1,0.3,1.5,0.5c0,0.5,0,1.1,0,1.6c-1.6,0.8-1.6,0.8-3.3,1.6c0,1.3,0,2.7,0,4.1
		c-1.1-0.8-2.2-1.6-3.3-2.5c0.3-1.9,0.3-1.9,0.8-4.1C201.9,301.9,201.9,301.9,203.7,302.2z"/>
	<path class="st39" d="M176.6,315.8c0.3,0.8,0.5,1.6,0.8,2.5c-1.3,0-2.7,0-4.1,0c-0.5,1.1-1.1,2.2-1.6,3.3c-0.5-0.3-1.1-0.5-1.6-0.8
		c0.3-1.6,0.5-3.2,0.8-4.9C173.4,314.9,174.2,314.8,176.6,315.8z"/>
	<path class="st39" d="M313.9,170.3c2.7,2.5,4.8,4.9,6.5,8.2c-3-0.7-4.5-1.2-6.5-3.6C313.1,172.7,313.1,172.7,313.9,170.3z"/>
	<path class="st39" d="M143.1,312.5c1.3,0,2.7,0,4.1,0c0.5,1.1,1.1,2.2,1.6,3.3c-1.3-0.3-2.7-0.5-4.1-0.8c-0.5,1.1-1.1,2.2-1.6,3.3
		c-0.5-0.3-1.1-0.5-1.6-0.8C142,315.8,142.5,314.2,143.1,312.5z"/>
	<path class="st53" d="M116.9,315c0.6,0.6,1.1,1.2,1.7,1.8c2.3,2.3,4.7,4.3,7.3,6.4c-0.5,0.5-1.1,1.1-1.6,1.6
		c-1.2-1-2.4-2.1-3.6-3.1c-0.7-0.6-1.3-1.2-2-1.8c-1.7-1.7-1.7-1.7-2.5-4.1C116.4,315.5,116.6,315.2,116.9,315z"/>
	<path class="st37" d="M296.8,50.9c0.8,0,1.6,0,2.5,0c0.1,5.4,0.1,5.4-0.8,8.2c-0.8-0.3-1.6-0.5-2.5-0.8
		C296.2,55.8,296.5,53.4,296.8,50.9z"/>
	<path class="st54" d="M309.2,558.5c0.7,0,1.5,0,2.2,0c0.6,0,1.1,0,1.7,0c-2,2-3,2-5.7,2.2c-1.1,0.1-1.1,0.1-2.2,0.2
		c-1.9,0-1.9,0-3.5-1.7C304.2,558.6,306.5,558.5,309.2,558.5z"/>
	<path class="st39" d="M337.6,152.8c2.7,1.2,3,1.7,4.1,4.3c-1.2-0.4-2.4-0.7-3.6-1.1c-0.7-0.2-1.3-0.4-2-0.6
		c-1.7-0.7-1.7-0.7-2.5-2.3C335.2,152.3,335.2,152.3,337.6,152.8z"/>
</g>
</svg>
