<svg xmlns="http://www.w3.org/2000/svg" viewBox="0 0 1000 314.4"><linearGradient id="a" x1="28.765" x2="243.506" y1="49.831" y2="264.571" gradientUnits="userSpaceOnUse"><stop offset=".214" stop-color="#0075c9"/><stop offset=".707" stop-color="#80bc00"/><stop offset="1" stop-color="#fde021"/></linearGradient><path fill="url(#a)" d="M271.4 78.1 137 .5l-.9-.5-.9.5L1.6 77.7l-.7.4-.9.5v157.2l.9.5 134.4 77.6.9.5.9-.5 132.6-76.5 1.8-1 .9-.5V78.6l-1-.5zm-148.7-58L89.8 77H24.1l98.6-56.9zM84.4 86.4 69 113.1 22.8 86.4h61.6zm-12 39.4 54.3 31.4-54.3 31.4-18.1-31.4 18.1-31.4zm-8-4.6L49 147.9 18.1 94.5l46.3 26.7zm-53.7-20.9 32.9 56.9-32.9 56.9V100.3zm38.2 66.3 15.4 26.7L18.1 220l30.8-53.4zM69 201.3 84.4 228H22.8L69 201.3zm-44.9 36.1h65.7l32.9 56.9-98.6-56.9zm107.4 53.4-30.8-53.4h30.8v53.4zm0-62.8H95.2l-18.1-31.4 54.3-31.4V228zm0-78.9-54.3-31.4 18.1-31.4h36.2v62.8zm0-72.1h-30.8l30.8-53.4V77zm76.4 44.2 46.2-26.7-30.8 53.4-15.4-26.7zm10 36-18.1 31.4-54.3-31.4 54.3-31.4 18.1 31.4zm-14.7-44.1-15.4-26.7h61.6l-46.2 26.7zM248.1 77h-65.7l-32.8-56.9L248.1 77zM140.8 23.6 171.6 77h-30.8V23.6zm0 62.8H177l18.1 31.4-54.3 31.4V86.4zm0 78.9 54.3 31.4L177 228h-36.2v-62.7zm0 72.1h30.8l-30.8 53.4v-53.4zm8.8 56.9 32.8-56.9h65.7l-98.5 56.9zm38.2-66.3 15.4-26.7 46.2 26.7h-61.6zm20.1-34.8 15.4-26.7 30.8 53.4-46.2-26.7zm53.7 20.9-32.9-56.9 32.9-56.9v113.8z"/><path fill="#fff" d="M308.4 202.7h64.2v5.8H315V257h52.2v6H315v49.9h-6.6zm75.4 77c0-19 15.2-34.4 34.5-34.4s34.2 15.4 34.2 34.4-14.9 34.5-34.2 34.5c-19.3 0-34.5-15.5-34.5-34.5m62.2 0c0-16.4-11.2-28.7-27.7-28.7s-28 12.3-28 28.7 11.5 28.9 28 28.9 27.7-12.5 27.7-28.9m23.9 8.8v-41.7h6.3v40.7c0 13.5 6.3 21.1 19 21.1 14.3 0 24.3-9.6 24.3-24.8v-37h6.3V313h-6.3l.2-14.6c-4.4 9.9-13.5 16-25.1 16-14.8 0-24.7-9.7-24.7-25.9m73.1-41.7h6.3l-.2 14.8c4.4-10 13.6-16.2 25.3-16.2 14.8 0 24.6 9.9 24.6 26.3V313h-6.3v-40.2c0-13.6-6.3-21.6-19.1-21.6-14.3 0-24.3 9.4-24.3 24.8v37H543v-66.2zm73.3 32.9c0-19.5 13.8-34.4 32.8-34.4 13.5 0 23.2 7.3 28 17.2v-66.6h6.3V313h-6.3l.3-16.5c-4.7 10.2-15.6 17.8-28.4 17.8-18.9-.1-32.7-15.1-32.7-34.6m61.3 0c0-16.4-11-28.7-27.7-28.7-16.4 0-26.9 12.3-26.9 28.7s10.5 28.9 26.9 28.9c16.7 0 27.7-12.5 27.7-28.9m70.4-8.3c0-14.9-6.8-20.6-17.7-20.6-10.1 0-16.9 4.2-21.6 11.4l-4.5-3.2c5.5-8.6 14.9-13.6 26.3-13.6 13.6 0 23.8 8.3 23.8 25.5v42.2H748l.3-10.2c-4.2 6.3-11.5 11.5-22.9 11.5-15.1 0-25-7-25-20.3 0-13.1 11.5-19.3 24.2-19.3H748v-3.4zm-22.6 8.5c-10.1 0-18.6 3.9-18.6 13.9 0 10.1 6.6 14.8 19.3 14.8 11 0 21.9-6.5 21.9-16.7v-12h-22.6zm57.1 15.5v-43.3h-10.4v-5.4h10.4v-23.2h6.3v23.2h19.1v5.4h-19.1v43.1c0 9.7 3.4 13.3 8.9 13.3 5.8 0 8.1-2.3 10.5-4.9l4.1 3.9c-3.2 3.7-7.1 6.6-14.6 6.6-8.4.1-15.2-5.2-15.2-18.7m47-77.2c0-3.1 2.6-5.4 5.4-5.4 2.8 0 5.4 2.3 5.4 5.4 0 3.2-2.6 5.3-5.4 5.3-2.8.1-5.4-2-5.4-5.3m2.3 28.6h6.3V313h-6.3v-66.2zm25.3 32.9c0-19 15.2-34.4 34.5-34.4s34.2 15.4 34.2 34.4-14.9 34.5-34.2 34.5c-19.2 0-34.5-15.5-34.5-34.5m62.3 0c0-16.4-11.2-28.7-27.7-28.7s-28 12.3-28 28.7 11.5 28.9 28 28.9 27.7-12.5 27.7-28.9m24.5-32.9h6.3l-.2 14.8c4.4-10 13.6-16.2 25.3-16.2 14.8 0 24.6 9.9 24.6 26.3V313h-6.3v-40.2c0-13.6-6.3-21.6-19.1-21.6-14.3 0-24.3 9.4-24.3 24.8v37h-6.3v-66.2zM308.4 73.1c0-41.4 31.8-71.3 71.7-71.3 39.6 0 71.5 29.8 71.5 71.3 0 41.4-31.9 71.3-71.5 71.3-39.9-.1-71.7-29.9-71.7-71.3m121 0c0-29.6-20.4-51.9-49.4-51.9s-49.6 22.3-49.6 51.9c0 29.6 20.6 51.9 49.6 51.9 29-.1 49.4-22.3 49.4-51.9m44.5-16.3h20.8l-.6 15.9c5.5-10.6 15.7-17.8 30.4-17.8 22 0 39.8 18.6 39.8 44.5s-18 44.9-40.2 44.9c-14.3 0-24.5-6.9-29.4-16.5v58h-20.8v-129zm69.2 42.6c0-15.5-9.4-26.1-24.3-26.1-15.1 0-24.9 10.6-24.9 26.1 0 16.1 9.8 26.7 24.9 26.7 15 .1 24.3-10.5 24.3-26.7M635 127c11.2 0 19.4-4.5 24.3-9.2l12 12.7c-8 8-19 13.9-36.1 13.9-29.4 0-48.4-19-48.4-44.7 0-25.5 20-44.7 45.7-44.7 29.2 0 45.7 21.6 44.3 51.7h-69C610.3 119 619.3 127 635 127m21.1-34.7c-1.8-11.6-9-20.2-23.3-20.2-13.3 0-22.5 7.3-24.9 20.2h48.2zm43.6-35.5h20.6l-.4 15.9c5.3-11.2 16.1-17.8 29-17.8 19 0 32.1 13.5 32.1 36.7v50.8h-20.6V93.3c0-12.3-5.7-19.4-17.8-19.4-13.5 0-22.3 8.2-22.3 22v46.5h-20.6V56.8zm103.8 64.1 17.6-10.8c4.9 8.8 10.6 14.9 20.8 14.9 11.6 0 19.2-5.5 19.2-21.6V3.7h21.6v100c0 27.6-16.5 40.6-39.8 40.6-20.6 0-32.8-10.6-39.4-23.4m101.4-5.3 17.8-9.8c6.5 10.8 14.9 19.4 31.8 19.4 14.1 0 24.1-7.6 24.1-19 0-12-8.2-17.4-23.3-24.1l-9.2-4.1c-20.2-9-32.5-19.2-32.5-40.6 0-20.6 15.9-35.3 39-35.3C971 2 983.5 9 991.8 23.9l-16.9 10.4c-5.3-9.2-11.4-13.5-22.3-13.5-11 0-18 6.7-18 16.1 0 10.4 5.9 15.1 20 21.2l9 4.1c23.7 10.4 36.3 21.4 36.3 43.7 0 24.3-19 38.4-45.1 38.4-26.3 0-42.2-13-49.9-28.7"/></svg>