<svg width="1216" height="808" viewBox="0 0 1216 808" fill="none" xmlns="http://www.w3.org/2000/svg">
<g filter="url(#filter0_f_464_9427)">
<ellipse cx="607.367" cy="403.9" rx="150.1" ry="150.1" transform="rotate(-90 607.367 403.9)" fill="#99CC7D"/>
</g>
<mask id="mask0_464_9427" style="mask-type:alpha" maskUnits="userSpaceOnUse" x="0" y="41" width="1216" height="726">
<rect y="41" width="1216" height="725.8" fill="url(#paint0_radial_464_9427)"/>
</mask>
<g mask="url(#mask0_464_9427)">
<path d="M716.998 272.289L759.799 247.577L802.6 272.289V321.711L759.799 346.423L716.998 321.711V272.289Z" stroke="black" stroke-opacity="0.5"/>
<path d="M760.297 347.289L803.099 322.577L845.9 347.289V396.711L803.099 421.423L760.297 396.711V347.289Z" stroke="black" stroke-opacity="0.5"/>
<path d="M803.597 272.289L846.398 247.577L889.2 272.289V321.711L846.398 346.423L803.597 321.711V272.289Z" stroke="black" stroke-opacity="0.5"/>
<path d="M846.897 347.289L889.698 322.577L932.5 347.289V396.711L889.698 421.423L846.897 396.711V347.289Z" stroke="black" stroke-opacity="0.5"/>
<path d="M890.197 422.289L932.998 397.577L975.799 422.289V471.711L932.998 496.423L890.197 471.711V422.289Z" stroke="black" stroke-opacity="0.5"/>
<path d="M933.497 347.289L976.298 322.577L1019.1 347.289V396.711L976.298 421.423L933.497 396.711V347.289Z" stroke="black" stroke-opacity="0.5"/>
<path d="M587.098 347.289L629.899 322.577L672.701 347.289V396.711L629.899 421.423L587.098 396.711V347.289Z" stroke="black" stroke-opacity="0.5"/>
<path d="M630.398 422.289L673.199 397.577L716 422.289V471.711L673.199 496.423L630.398 471.711V422.289Z" stroke="black" stroke-opacity="0.5"/>
<path d="M673.698 347.289L716.499 322.577L759.3 347.289V396.711L716.499 421.423L673.698 396.711V347.289Z" stroke="black" stroke-opacity="0.5"/>
<path d="M716.998 422.289L759.799 397.577L802.6 422.289V471.711L759.799 496.423L716.998 471.711V422.289Z" stroke="black" stroke-opacity="0.5"/>
<path d="M760.297 497.289L803.099 472.577L845.9 497.289V546.711L803.099 571.423L760.297 546.711V497.289Z" stroke="black" stroke-opacity="0.5"/>
<path d="M803.597 422.289L846.398 397.577L889.2 422.289V471.711L846.398 496.423L803.597 471.711V422.289Z" stroke="black" stroke-opacity="0.5"/>
<path d="M976.796 422.289L1019.6 397.577L1062.4 422.289V471.711L1019.6 496.423L976.796 471.711V422.289Z" stroke="black" stroke-opacity="0.5"/>
<path d="M1020.1 497.289L1062.9 472.577L1105.7 497.289V546.711L1062.9 571.423L1020.1 546.711V497.289Z" stroke="black" stroke-opacity="0.5"/>
<path d="M1063.4 422.289L1106.2 397.577L1149 422.289V471.711L1106.2 496.423L1063.4 471.711V422.289Z" stroke="black" stroke-opacity="0.5"/>
<path d="M1106.7 497.289L1149.5 472.577L1192.3 497.289V546.711L1149.5 571.423L1106.7 546.711V497.289Z" stroke="black" stroke-opacity="0.5"/>
<path d="M1150 572.289L1192.8 547.577L1235.6 572.289V621.711L1192.8 646.423L1150 621.711V572.289Z" stroke="black" stroke-opacity="0.5"/>
<path d="M1193.3 497.289L1236.1 472.577L1278.9 497.289V546.711L1236.1 571.423L1193.3 546.711V497.289Z" stroke="black" stroke-opacity="0.5"/>
<path d="M889.698 472L933 497V547L889.698 572L846.397 547V497L889.698 472Z" fill="black" fill-opacity="0.25"/>
<path d="M846.897 497.289L889.698 472.577L932.5 497.289V546.711L889.698 571.423L846.897 546.711V497.289Z" stroke="black" stroke-opacity="0.5"/>
<path d="M890.197 572.289L932.998 547.577L975.799 572.289V621.711L932.998 646.423L890.197 621.711V572.289Z" stroke="black" stroke-opacity="0.5"/>
<path d="M933.497 497.289L976.298 472.577L1019.1 497.289V546.711L976.298 571.423L933.497 546.711V497.289Z" stroke="black" stroke-opacity="0.5"/>
<path d="M976.796 572.289L1019.6 547.577L1062.4 572.289V621.711L1019.6 646.423L976.796 621.711V572.289Z" stroke="black" stroke-opacity="0.5"/>
<path d="M1020.1 647.289L1062.9 622.577L1105.7 647.289V696.711L1062.9 721.423L1020.1 696.711V647.289Z" stroke="black" stroke-opacity="0.5"/>
<path d="M1063.4 572.289L1106.2 547.577L1149 572.289V621.711L1106.2 646.423L1063.4 621.711V572.289Z" stroke="black" stroke-opacity="0.5"/>
<path d="M976.796 122.289L1019.6 97.5774L1062.4 122.289V171.711L1019.6 196.423L976.796 171.711V122.289Z" stroke="black" stroke-opacity="0.5"/>
<path d="M1020.1 197.289L1062.9 172.577L1105.7 197.289V246.711L1062.9 271.423L1020.1 246.711V197.289Z" stroke="black" stroke-opacity="0.5"/>
<path d="M1063.4 122.289L1106.2 97.5774L1149 122.289V171.711L1106.2 196.423L1063.4 171.711V122.289Z" stroke="black" stroke-opacity="0.5"/>
<path d="M1106.7 197.289L1149.5 172.577L1192.3 197.289V246.711L1149.5 271.423L1106.7 246.711V197.289Z" stroke="black" stroke-opacity="0.5"/>
<path d="M1150 272.289L1192.8 247.577L1235.6 272.289V321.711L1192.8 346.423L1150 321.711V272.289Z" stroke="black" stroke-opacity="0.5"/>
<path d="M1193.3 197.289L1236.1 172.577L1278.9 197.289V246.711L1236.1 271.423L1193.3 246.711V197.289Z" stroke="black" stroke-opacity="0.5"/>
<path d="M846.897 197.289L889.698 172.577L932.5 197.289V246.711L889.698 271.423L846.897 246.711V197.289Z" stroke="black" stroke-opacity="0.5"/>
<path d="M890.197 272.289L932.998 247.577L975.799 272.289V321.711L932.998 346.423L890.197 321.711V272.289Z" stroke="black" stroke-opacity="0.5"/>
<path d="M933.497 197.289L976.298 172.577L1019.1 197.289V246.711L976.298 271.423L933.497 246.711V197.289Z" stroke="black" stroke-opacity="0.5"/>
<path d="M976.796 272.289L1019.6 247.577L1062.4 272.289V321.711L1019.6 346.423L976.796 321.711V272.289Z" stroke="black" stroke-opacity="0.5"/>
<path d="M1020.1 347.289L1062.9 322.577L1105.7 347.289V396.711L1062.9 421.423L1020.1 396.711V347.289Z" stroke="black" stroke-opacity="0.5"/>
<path d="M1063.4 272.289L1106.2 247.577L1149 272.289V321.711L1106.2 346.423L1063.4 321.711V272.289Z" stroke="black" stroke-opacity="0.5"/>
<path d="M1106.7 347.289L1149.5 322.577L1192.3 347.289V396.711L1149.5 421.423L1106.7 396.711V347.289Z" stroke="black" stroke-opacity="0.5"/>
<path d="M1150 422.289L1192.8 397.577L1235.6 422.289V471.711L1192.8 496.423L1150 471.711V422.289Z" stroke="black" stroke-opacity="0.5"/>
<path d="M1193.3 347.289L1236.1 322.577L1278.9 347.289V396.711L1236.1 421.423L1193.3 396.711V347.289Z" stroke="black" stroke-opacity="0.5"/>
<path d="M240.388 47.2887L283.211 22.5773L326.034 47.2887V96.7113L283.211 121.423L240.388 96.7113V47.2887Z" stroke="black" stroke-opacity="0.5"/>
<path d="M327.032 47.2887L369.855 22.5773L412.678 47.2887V96.7113L369.855 121.423L327.032 96.7113V47.2887Z" stroke="black" stroke-opacity="0.5"/>
<path d="M370.351 122.289L413.174 97.5773L455.997 122.289V171.711L413.174 196.423L370.351 171.711V122.289Z" stroke="black" stroke-opacity="0.5"/>
<path d="M413.675 47.2887L456.498 22.5773L499.321 47.2887V96.7113L456.498 121.423L413.675 96.7113V47.2887Z" stroke="black" stroke-opacity="0.5"/>
<path d="M67.1015 47.2887L109.925 22.5773L152.748 47.2887V96.7113L109.925 121.423L67.1015 96.7113V47.2887Z" stroke="black" stroke-opacity="0.5"/>
<path d="M110.423 122.289L153.246 97.5773L196.069 122.289V171.711L153.246 196.423L110.423 171.711V122.289Z" stroke="black" stroke-opacity="0.5"/>
<path d="M153.745 47.2887L196.568 22.5773L239.391 47.2887V96.7113L196.568 121.423L153.745 96.7113V47.2887Z" stroke="black" stroke-opacity="0.5"/>
<path d="M197.066 122.289L239.889 97.5773L282.712 122.289V171.711L239.889 196.423L197.066 171.711V122.289Z" stroke="black" stroke-opacity="0.5"/>
<path d="M240.388 197.289L283.211 172.577L326.034 197.289V246.711L283.211 271.423L240.388 246.711V197.289Z" stroke="black" stroke-opacity="0.5"/>
<path d="M283.71 122.289L326.533 97.5773L369.356 122.289V171.711L326.533 196.423L283.71 171.711V122.289Z" stroke="black" stroke-opacity="0.5"/>
<path d="M456.995 122.289L499.818 97.5773L542.641 122.289V171.711L499.818 196.423L456.995 171.711V122.289Z" stroke="black" stroke-opacity="0.5"/>
<path d="M500.317 197.289L543.14 172.577L585.963 197.289V246.711L543.14 271.423L500.317 246.711V197.289Z" stroke="black" stroke-opacity="0.5"/>
<path d="M543.64 122.289L586.463 97.5773L629.286 122.289V171.711L586.463 196.423L543.64 171.711V122.289Z" stroke="black" stroke-opacity="0.5"/>
<path d="M586.96 197.289L629.783 172.577L672.606 197.289V246.711L629.783 271.423L586.96 246.711V197.289Z" stroke="black" stroke-opacity="0.5"/>
<path d="M630.281 272.289L673.104 247.577L715.927 272.289V321.711L673.104 346.423L630.281 321.711V272.289Z" stroke="black" stroke-opacity="0.5"/>
<path d="M673.603 197.289L716.426 172.577L759.249 197.289V246.711L716.426 271.423L673.603 246.711V197.289Z" stroke="black" stroke-opacity="0.5"/>
<path d="M327.032 197.289L369.855 172.577L412.678 197.289V246.711L369.855 271.423L327.032 246.711V197.289Z" stroke="black" stroke-opacity="0.5"/>
<path d="M370.351 272.289L413.174 247.577L455.997 272.289V321.711L413.174 346.423L370.351 321.711V272.289Z" stroke="black" stroke-opacity="0.5"/>
<path d="M413.675 197.289L456.498 172.577L499.321 197.289V246.711L456.498 271.423L413.675 246.711V197.289Z" stroke="black" stroke-opacity="0.5"/>
<path d="M456.995 272.289L499.818 247.577L542.641 272.289V321.711L499.818 346.423L456.995 321.711V272.289Z" stroke="black" stroke-opacity="0.5"/>
<path d="M500.317 347.289L543.14 322.577L585.963 347.289V396.711L543.14 421.423L500.317 396.711V347.289Z" stroke="black" stroke-opacity="0.5"/>
<path d="M586.463 247L629.786 272V322L586.463 347L543.14 322V272L586.463 247Z" fill="black" fill-opacity="0.25"/>
<path d="M543.64 272.289L586.463 247.577L629.286 272.289V321.711L586.463 346.423L543.64 321.711V272.289Z" stroke="black" stroke-opacity="0.5"/>
<path d="M500.317 47.2887L543.14 22.5773L585.963 47.2887V96.7113L543.14 121.423L500.317 96.7113V47.2887Z" stroke="black" stroke-opacity="0.5"/>
<path d="M760.248 47.2887L803.071 22.5773L845.894 47.2887V96.7113L803.071 121.423L760.248 96.7113V47.2887Z" stroke="black" stroke-opacity="0.5"/>
<path d="M846.891 47.2887L889.714 22.5773L932.537 47.2887V96.7113L889.714 121.423L846.891 96.7113V47.2887Z" stroke="black" stroke-opacity="0.5"/>
<path d="M933.036 97L976.359 122V172L933.036 197L889.713 172V122L933.036 97Z" fill="black" fill-opacity="0.25"/>
<path d="M890.213 122.289L933.036 97.5773L975.859 122.289V171.711L933.036 196.423L890.213 171.711V122.289Z" stroke="black" stroke-opacity="0.5"/>
<path d="M933.532 47.2887L976.355 22.5773L1019.18 47.2887V96.7113L976.355 121.423L933.532 96.7113V47.2887Z" stroke="black" stroke-opacity="0.5"/>
<path d="M586.96 47.2887L629.783 22.5773L672.606 47.2887V96.7113L629.783 121.423L586.96 96.7113V47.2887Z" stroke="black" stroke-opacity="0.5"/>
<path d="M630.281 122.289L673.104 97.5773L715.927 122.289V171.711L673.104 196.423L630.281 171.711V122.289Z" stroke="black" stroke-opacity="0.5"/>
<path d="M673.603 47.2887L716.426 22.5773L759.249 47.2887V96.7113L716.426 121.423L673.603 96.7113V47.2887Z" stroke="black" stroke-opacity="0.5"/>
<path d="M716.926 122.289L759.749 97.5773L802.572 122.289V171.711L759.749 196.423L716.926 171.711V122.289Z" stroke="black" stroke-opacity="0.5"/>
<path d="M760.248 197.289L803.071 172.577L845.894 197.289V246.711L803.071 271.423L760.248 246.711V197.289Z" stroke="black" stroke-opacity="0.5"/>
<path d="M803.567 122.289L846.39 97.5773L889.213 122.289V171.711L846.39 196.423L803.567 171.711V122.289Z" stroke="black" stroke-opacity="0.5"/>
<path d="M327.098 647.289L369.899 622.577L412.701 647.289V696.711L369.899 721.423L327.098 696.711V647.289Z" stroke="black" stroke-opacity="0.5"/>
<path d="M370.398 722.289L413.199 697.577L456 722.289V771.711L413.199 796.423L370.398 771.711V722.289Z" stroke="black" stroke-opacity="0.5"/>
<path d="M413.698 647.289L456.499 622.577L499.3 647.289V696.711L456.499 721.423L413.698 696.711V647.289Z" stroke="black" stroke-opacity="0.5"/>
<path d="M456.998 722.289L499.799 697.577L542.6 722.289V771.711L499.799 796.423L456.998 771.711V722.289Z" stroke="black" stroke-opacity="0.5"/>
<path d="M543.597 722.289L586.398 697.577L629.2 722.289V771.711L586.398 796.423L543.597 771.711V722.289Z" stroke="black" stroke-opacity="0.5"/>
<path d="M197.199 722.289L240 697.577L282.801 722.289V771.711L240 796.423L197.199 771.711V722.289Z" stroke="black" stroke-opacity="0.5"/>
<path d="M283.798 722.289L326.6 697.577L369.401 722.289V771.711L326.6 796.423L283.798 771.711V722.289Z" stroke="black" stroke-opacity="0.5"/>
<path d="M586.897 497.289L629.698 472.577L672.5 497.289V546.711L629.698 571.423L586.897 546.711V497.289Z" stroke="black" stroke-opacity="0.5"/>
<path d="M630.197 572.289L672.998 547.577L715.799 572.289V621.711L672.998 646.423L630.197 621.711V572.289Z" stroke="black" stroke-opacity="0.5"/>
<path d="M673.497 497.289L716.298 472.577L759.099 497.289V546.711L716.298 571.423L673.497 546.711V497.289Z" stroke="black" stroke-opacity="0.5"/>
<path d="M716.796 572.289L759.598 547.577L802.399 572.289V621.711L759.598 646.423L716.796 621.711V572.289Z" stroke="black" stroke-opacity="0.5"/>
<path d="M760.096 647.289L802.897 622.577L845.699 647.289V696.711L802.897 721.423L760.096 696.711V647.289Z" stroke="black" stroke-opacity="0.5"/>
<path d="M803.396 572.289L846.197 547.577L888.999 572.289V621.711L846.197 646.423L803.396 621.711V572.289Z" stroke="black" stroke-opacity="0.5"/>
<path d="M456.998 572.289L499.799 547.577L542.6 572.289V621.711L499.799 646.423L456.998 621.711V572.289Z" stroke="black" stroke-opacity="0.5"/>
<path d="M500.297 647.289L543.099 622.577L585.9 647.289V696.711L543.099 721.423L500.297 696.711V647.289Z" stroke="black" stroke-opacity="0.5"/>
<path d="M543.597 572.289L586.398 547.577L629.2 572.289V621.711L586.398 646.423L543.597 621.711V572.289Z" stroke="black" stroke-opacity="0.5"/>
<path d="M586.897 647.289L629.698 622.577L672.5 647.289V696.711L629.698 721.423L586.897 696.711V647.289Z" stroke="black" stroke-opacity="0.5"/>
<path d="M630.197 722.289L672.998 697.577L715.799 722.289V771.711L672.998 796.423L630.197 771.711V722.289Z" stroke="black" stroke-opacity="0.5"/>
<path d="M673.497 647.289L716.298 622.577L759.099 647.289V696.711L716.298 721.423L673.497 696.711V647.289Z" stroke="black" stroke-opacity="0.5"/>
<path d="M846.696 647.289L889.497 622.577L932.298 647.289V696.711L889.497 721.423L846.696 696.711V647.289Z" stroke="black" stroke-opacity="0.5"/>
<path d="M889.996 722.289L932.797 697.577L975.598 722.289V771.711L932.797 796.423L889.996 771.711V722.289Z" stroke="black" stroke-opacity="0.5"/>
<path d="M933.295 647.289L976.097 622.577L1018.9 647.289V696.711L976.097 721.423L933.295 696.711V647.289Z" stroke="black" stroke-opacity="0.5"/>
<path d="M976.595 722.289L1019.4 697.577L1062.2 722.289V771.711L1019.4 796.423L976.595 771.711V722.289Z" stroke="black" stroke-opacity="0.5"/>
<path d="M1063.19 722.289L1106 697.577L1148.8 722.289V771.711L1106 796.423L1063.19 771.711V722.289Z" stroke="black" stroke-opacity="0.5"/>
<path d="M716.796 722.289L759.598 697.577L802.399 722.289V771.711L759.598 796.423L716.796 771.711V722.289Z" stroke="black" stroke-opacity="0.5"/>
<path d="M803.396 722.289L846.197 697.577L888.999 722.289V771.711L846.197 796.423L803.396 771.711V722.289Z" stroke="black" stroke-opacity="0.5"/>
<path d="M-62.8672 422.289L-20.0442 397.577L22.7788 422.289V471.711L-20.0442 496.423L-62.8672 471.711V422.289Z" stroke="black" stroke-opacity="0.5"/>
<path d="M-19.5489 497.289L23.2741 472.577L66.0971 497.289V546.711L23.2741 571.423L-19.5489 546.711V497.289Z" stroke="black" stroke-opacity="0.5"/>
<path d="M23.7753 422.289L66.5983 397.577L109.421 422.289V471.711L66.5983 496.423L23.7753 471.711V422.289Z" stroke="black" stroke-opacity="0.5"/>
<path d="M67.0956 497.289L109.919 472.577L152.742 497.289V546.711L109.919 571.423L67.0956 546.711V497.289Z" stroke="black" stroke-opacity="0.5"/>
<path d="M110.418 572.289L153.241 547.577L196.064 572.289V621.711L153.241 646.423L110.418 621.711V572.289Z" stroke="black" stroke-opacity="0.5"/>
<path d="M153.74 497.289L196.563 472.577L239.386 497.289V546.711L196.563 571.423L153.74 546.711V497.289Z" stroke="black" stroke-opacity="0.5"/>
<path d="M197.06 572.289L239.884 547.577L282.707 572.289V621.711L239.884 646.423L197.06 621.711V572.289Z" stroke="black" stroke-opacity="0.5"/>
<path d="M240.382 647.289L283.205 622.577L326.028 647.289V696.711L283.205 721.423L240.382 696.711V647.289Z" stroke="black" stroke-opacity="0.5"/>
<path d="M326.527 547L369.85 572V622L326.527 647L283.204 622V572L326.527 547Z" fill="black" fill-opacity="0.25"/>
<path d="M283.704 572.289L326.527 547.577L369.35 572.289V621.711L326.527 646.423L283.704 621.711V572.289Z" stroke="black" stroke-opacity="0.5"/>
<path d="M-62.8672 572.289L-20.0442 547.577L22.7788 572.289V621.711L-20.0442 646.423L-62.8672 621.711V572.289Z" stroke="black" stroke-opacity="0.5"/>
<path d="M-19.5489 647.289L23.2741 622.577L66.0971 647.289V696.711L23.2741 721.423L-19.5489 696.711V647.289Z" stroke="black" stroke-opacity="0.5"/>
<path d="M23.7753 572.289L66.5983 547.577L109.421 572.289V621.711L66.5983 646.423L23.7753 621.711V572.289Z" stroke="black" stroke-opacity="0.5"/>
<path d="M67.0956 647.289L109.919 622.577L152.742 647.289V696.711L109.919 721.423L67.0956 696.711V647.289Z" stroke="black" stroke-opacity="0.5"/>
<path d="M110.418 722.289L153.241 697.577L196.064 722.289V771.711L153.241 796.423L110.418 771.711V722.289Z" stroke="black" stroke-opacity="0.5"/>
<path d="M153.74 647.289L196.563 622.577L239.386 647.289V696.711L196.563 721.423L153.74 696.711V647.289Z" stroke="black" stroke-opacity="0.5"/>
<path d="M109.919 172L153.242 197V247L109.919 272L66.5956 247V197L109.919 172Z" fill="black" fill-opacity="0.25"/>
<path d="M67.0956 197.289L109.919 172.577L152.742 197.289V246.711L109.919 271.423L67.0956 246.711V197.289Z" stroke="black" stroke-opacity="0.5"/>
<path d="M110.418 272.289L153.241 247.577L196.064 272.289V321.711L153.241 346.423L110.418 321.711V272.289Z" stroke="black" stroke-opacity="0.5"/>
<path d="M153.74 197.289L196.563 172.577L239.386 197.289V246.711L196.563 271.423L153.74 246.711V197.289Z" stroke="black" stroke-opacity="0.5"/>
<path d="M197.06 272.289L239.884 247.577L282.707 272.289V321.711L239.884 346.423L197.06 321.711V272.289Z" stroke="black" stroke-opacity="0.5"/>
<path d="M240.382 347.289L283.205 322.577L326.028 347.289V396.711L283.205 421.423L240.382 396.711V347.289Z" stroke="black" stroke-opacity="0.5"/>
<path d="M283.704 272.289L326.527 247.577L369.35 272.289V321.711L326.527 346.423L283.704 321.711V272.289Z" stroke="black" stroke-opacity="0.5"/>
<path d="M-62.8672 272.289L-20.0442 247.577L22.7788 272.289V321.711L-20.0442 346.423L-62.8672 321.711V272.289Z" stroke="black" stroke-opacity="0.5"/>
<path d="M-19.5489 347.289L23.2741 322.577L66.0971 347.289V396.711L23.2741 421.423L-19.5489 396.711V347.289Z" stroke="black" stroke-opacity="0.5"/>
<path d="M23.7753 272.289L66.5983 247.577L109.421 272.289V321.711L66.5983 346.423L23.7753 321.711V272.289Z" stroke="black" stroke-opacity="0.5"/>
<path d="M67.0956 347.289L109.919 322.577L152.742 347.289V396.711L109.919 421.423L67.0956 396.711V347.289Z" stroke="black" stroke-opacity="0.5"/>
<path d="M110.418 422.289L153.241 397.577L196.064 422.289V471.711L153.241 496.423L110.418 471.711V422.289Z" stroke="black" stroke-opacity="0.5"/>
<path d="M153.74 347.289L196.563 322.577L239.386 347.289V396.711L196.563 421.423L153.74 396.711V347.289Z" stroke="black" stroke-opacity="0.5"/>
<path d="M327.026 347.289L369.849 322.577L412.672 347.289V396.711L369.849 421.423L327.026 396.711V347.289Z" stroke="black" stroke-opacity="0.5"/>
<path d="M370.349 422.289L413.172 397.577L455.995 422.289V471.711L413.172 496.423L370.349 471.711V422.289Z" stroke="black" stroke-opacity="0.5"/>
<path d="M413.668 347.289L456.491 322.577L499.314 347.289V396.711L456.491 421.423L413.668 396.711V347.289Z" stroke="black" stroke-opacity="0.5"/>
<path d="M456.991 422.289L499.814 397.577L542.637 422.289V471.711L499.814 496.423L456.991 471.711V422.289Z" stroke="black" stroke-opacity="0.5"/>
<path d="M500.313 497.289L543.136 472.577L585.959 497.289V546.711L543.136 571.423L500.313 546.711V497.289Z" stroke="black" stroke-opacity="0.5"/>
<path d="M543.633 422.289L586.456 397.577L629.279 422.289V471.711L586.456 496.423L543.633 471.711V422.289Z" stroke="black" stroke-opacity="0.5"/>
<path d="M197.06 422.289L239.884 397.577L282.707 422.289V471.711L239.884 496.423L197.06 471.711V422.289Z" stroke="black" stroke-opacity="0.5"/>
<path d="M240.382 497.289L283.205 472.577L326.028 497.289V546.711L283.205 571.423L240.382 546.711V497.289Z" stroke="black" stroke-opacity="0.5"/>
<path d="M283.704 422.289L326.527 397.577L369.35 422.289V471.711L326.527 496.423L283.704 471.711V422.289Z" stroke="black" stroke-opacity="0.5"/>
<path d="M327.026 497.289L369.849 472.577L412.672 497.289V546.711L369.849 571.423L327.026 546.711V497.289Z" stroke="black" stroke-opacity="0.5"/>
<path d="M370.349 572.289L413.172 547.577L455.995 572.289V621.711L413.172 646.423L370.349 621.711V572.289Z" stroke="black" stroke-opacity="0.5"/>
<path d="M413.668 497.289L456.491 472.577L499.314 497.289V546.711L456.491 571.423L413.668 546.711V497.289Z" stroke="black" stroke-opacity="0.5"/>
</g>
<defs>
<filter id="filter0_f_464_9427" x="203.933" y="0.46669" width="806.867" height="806.867" filterUnits="userSpaceOnUse" color-interpolation-filters="sRGB">
<feFlood flood-opacity="0" result="BackgroundImageFix"/>
<feBlend mode="normal" in="SourceGraphic" in2="BackgroundImageFix" result="shape"/>
<feGaussianBlur stdDeviation="126.667" result="effect1_foregroundBlur_464_9427"/>
</filter>
<radialGradient id="paint0_radial_464_9427" cx="0" cy="0" r="1" gradientUnits="userSpaceOnUse" gradientTransform="translate(608 403.9) rotate(90) scale(447.374 749.527)">
<stop stop-color="#D9D9D9" stop-opacity="0.2"/>
<stop offset="0.802083" stop-color="#D9D9D9" stop-opacity="0"/>
</radialGradient>
</defs>
</svg>
