<svg width="267" height="164" viewBox="0 0 319 195" fill="none" xmlns="http://www.w3.org/2000/svg"><g clip-path="url(#clip0_337_7901)"><mask id="mask0_337_7901" maskUnits="userSpaceOnUse" x="0" y="0" width="319" height="195" style="mask-type: luminance;"><path d="M319 0H0V195H319V0Z" fill="white"></path></mask><g mask="url(#mask0_337_7901)"><path d="M157.625 195C156.544 195 155.534 194.712 154.597 194.208L145.007 188.522C143.565 187.73 144.286 187.442 144.718 187.298C146.665 186.65 147.026 186.506 149.045 185.354C149.261 185.21 149.549 185.282 149.766 185.426L157.121 189.817C157.409 189.961 157.77 189.961 157.986 189.817L186.756 173.189C187.045 173.045 187.189 172.757 187.189 172.398V139.214C187.189 138.854 187.045 138.566 186.756 138.422L157.986 121.866C157.697 121.722 157.337 121.722 157.121 121.866L128.35 138.422C128.062 138.566 127.917 138.926 127.917 139.214V172.398C127.917 172.686 128.062 173.045 128.35 173.189L136.21 177.724C140.464 179.884 143.132 177.364 143.132 174.845V142.093C143.132 141.661 143.492 141.229 143.997 141.229H147.675C148.107 141.229 148.54 141.589 148.54 142.093V174.845C148.54 180.532 145.439 183.843 140.031 183.843C138.373 183.843 137.075 183.843 133.398 182.043L125.826 177.724C123.952 176.645 122.798 174.629 122.798 172.47V139.286C122.798 137.126 123.952 135.111 125.826 134.031L154.597 117.403C156.4 116.395 158.851 116.395 160.654 117.403L189.424 134.031C191.299 135.111 192.453 137.126 192.453 139.286V172.47C192.453 174.629 191.299 176.645 189.424 177.724L160.654 194.352C159.789 194.712 158.707 195 157.625 195Z" fill="#5FA04E"></path><path d="M166.567 172.182C153.948 172.182 151.352 166.423 151.352 161.528C151.352 161.096 151.713 160.664 152.217 160.664H155.967C156.4 160.664 156.76 160.952 156.76 161.384C157.337 165.199 158.995 167.071 166.639 167.071C172.696 167.071 175.291 165.703 175.291 162.464C175.291 160.592 174.57 159.225 165.124 158.289C157.265 157.497 152.362 155.77 152.362 149.507C152.362 143.677 157.265 140.221 165.485 140.221C174.715 140.221 179.257 143.389 179.834 150.299C179.834 150.515 179.762 150.731 179.618 150.947C179.474 151.091 179.257 151.235 179.041 151.235H175.219C174.859 151.235 174.498 150.947 174.426 150.587C173.561 146.628 171.326 145.332 165.413 145.332C158.779 145.332 157.986 147.636 157.986 149.363C157.986 151.451 158.923 152.099 167.864 153.25C176.734 154.402 180.916 156.058 180.916 162.248C180.916 168.583 175.652 172.182 166.567 172.182Z" fill="#5FA04E"></path><path d="M208.1 137.342C208.1 140.365 205.576 142.885 202.548 142.885C199.519 142.885 196.996 140.437 196.996 137.342C196.996 134.175 199.591 131.8 202.548 131.8C205.504 131.8 208.1 134.247 208.1 137.342ZM197.861 137.342C197.861 139.934 199.952 142.021 202.476 142.021C205.072 142.021 207.163 139.862 207.163 137.342C207.163 134.751 205.072 132.735 202.476 132.735C200.024 132.735 197.861 134.751 197.861 137.342ZM200.457 134.247H202.62C203.341 134.247 204.783 134.247 204.783 135.903C204.783 137.054 204.062 137.27 203.629 137.414C204.495 137.486 204.567 138.062 204.639 138.854C204.711 139.358 204.783 140.221 204.927 140.509H203.629C203.629 140.221 203.413 138.638 203.413 138.566C203.341 138.206 203.197 138.062 202.764 138.062H201.683V140.581H200.457V134.247ZM201.61 136.982H202.548C203.341 136.982 203.485 136.406 203.485 136.118C203.485 135.255 202.908 135.255 202.548 135.255H201.538V136.982H201.61Z" fill="#5FA04E"></path><path fill-rule="evenodd" clip-rule="evenodd" d="M68.4293 65.2159C68.4293 63.9203 67.7082 62.6966 66.5545 62.0487L36.0533 44.4131C35.5486 44.1251 34.9717 43.9812 34.3949 43.9092C34.3228 43.9092 34.1065 43.9092 34.1065 43.9092C33.5296 43.9092 32.9528 44.1251 32.448 44.4131L1.87477 61.9767C0.721067 62.6246 0 63.8483 0 65.2159L0.0721067 112.436C0.0721067 113.084 0.43264 113.732 1.00949 114.02C1.58635 114.38 2.30741 114.38 2.81216 114.02L20.983 103.654C22.1368 103.007 22.8578 101.783 22.8578 100.487V78.3887C22.8578 77.093 23.5789 75.8693 24.7326 75.2215L32.448 70.7586C33.0249 70.3987 33.6738 70.2547 34.3228 70.2547C34.9717 70.2547 35.6207 70.3987 36.1255 70.7586L43.8409 75.2215C44.9946 75.8693 45.7156 77.093 45.7156 78.3887V100.487C45.7156 101.783 46.4367 103.007 47.5904 103.654L65.6171 114.02C66.1939 114.38 66.915 114.38 67.4919 114.02C68.0687 113.732 68.4293 113.084 68.4293 112.436V65.2159Z" fill="white"></path><path fill-rule="evenodd" clip-rule="evenodd" d="M215.382 0.215947C214.806 -0.0719823 214.085 -0.0719823 213.58 0.215947C213.003 0.575858 212.642 1.15172 212.642 1.79956V48.588C212.642 49.0199 212.426 49.4518 211.993 49.7398C211.561 49.9557 211.128 49.9557 210.696 49.7398L203.052 45.3488C201.899 44.701 200.528 44.701 199.375 45.3488L168.802 62.9845C167.648 63.6323 166.927 64.856 166.927 66.1517V101.351C166.927 102.647 167.648 103.87 168.802 104.518L199.375 122.154C200.528 122.802 201.899 122.802 203.052 122.154L233.625 104.518C234.779 103.87 235.5 102.647 235.5 101.351V13.6047C235.5 12.237 234.779 11.0133 233.625 10.3654L215.382 0.215947ZM212.57 89.7619C212.57 90.1218 212.426 90.4098 212.138 90.5537L201.682 96.6002C201.394 96.7442 201.033 96.7442 200.745 96.6002L190.289 90.5537C190.001 90.4098 189.857 90.0498 189.857 89.7619V77.6689C189.857 77.309 190.001 77.021 190.289 76.8771L200.745 70.8306C201.033 70.6866 201.394 70.6866 201.682 70.8306L212.138 76.8771C212.426 77.021 212.57 77.381 212.57 77.6689V89.7619Z" fill="white"></path><path fill-rule="evenodd" clip-rule="evenodd" d="M317.125 77.3809C318.279 76.7331 318.928 75.5094 318.928 74.2137V65.6478C318.928 64.3522 318.207 63.1285 317.125 62.4806L286.769 44.9169C285.615 44.2691 284.245 44.2691 283.091 44.9169L252.518 62.5526C251.364 63.2004 250.643 64.4241 250.643 65.7198V100.919C250.643 102.215 251.364 103.439 252.518 104.086L282.875 121.362C284.028 122.01 285.398 122.01 286.48 121.362L304.867 111.141C305.444 110.853 305.805 110.205 305.805 109.557C305.805 108.909 305.444 108.261 304.867 107.973L274.15 90.3378C273.573 89.9778 273.212 89.402 273.212 88.7542V77.7409C273.212 77.093 273.573 76.4452 274.15 76.1573L283.74 70.6866C284.317 70.3267 285.038 70.3267 285.615 70.6866L295.205 76.1573C295.782 76.5172 296.142 77.093 296.142 77.7409V86.3787C296.142 87.0266 296.503 87.6744 297.08 87.9623C297.657 88.3223 298.378 88.3223 298.955 87.9623L317.125 77.3809Z" fill="white"></path><path fill-rule="evenodd" clip-rule="evenodd" d="M284.461 75.7253C284.677 75.5814 284.966 75.5814 285.182 75.7253L291.023 79.1085C291.239 79.2525 291.383 79.4684 291.383 79.7564V86.5227C291.383 86.8106 291.239 87.0266 291.023 87.1705L285.182 90.5537C284.966 90.6977 284.677 90.6977 284.461 90.5537L278.62 87.1705C278.404 87.0266 278.26 86.8106 278.26 86.5227V79.7564C278.26 79.4684 278.404 79.2525 278.62 79.1085L284.461 75.7253Z" fill="#5FA04E"></path><path d="M119.445 44.5068C118.271 43.8467 116.878 43.8467 115.705 44.5068L84.8332 62.3292C83.6599 62.9892 83 64.2361 83 65.5563V101.275C83 102.595 83.7332 103.841 84.8332 104.502L115.705 122.324C116.878 122.984 118.271 122.984 119.445 122.324L150.317 104.502C151.49 103.841 152.15 102.595 152.15 101.275V65.5563C152.15 64.2361 151.416 62.9892 150.317 62.3292L119.445 44.5068Z" fill="url(#paint0_linear_337_7901)"></path><path d="M150.39 62.3292L119.371 44.5067C119.078 44.3601 118.711 44.2134 118.418 44.14L83.7378 103.55C84.0311 103.917 84.4937 104.452 84.8603 104.672L115.705 122.324C116.585 122.837 117.611 122.984 118.565 122.69L151.196 62.9892C150.976 62.6959 150.683 62.4759 150.39 62.3292Z" fill="url(#paint1_linear_337_7901)"></path><path d="M150.314 104.502C151.194 103.988 151.987 103.026 151.987 101.866L118.195 44.0667C117.315 43.92 116.362 43.9934 115.555 44.5068L84.7567 62.2559L117.975 122.837C118.415 122.764 118.928 122.617 119.368 122.397L150.314 104.502Z" fill="url(#paint2_linear_337_7901)"></path></g></g><defs><linearGradient id="paint0_linear_337_7901" x1="130.147" y1="57.7802" x2="102.227" y2="114.729" gradientUnits="userSpaceOnUse"><stop stop-color="#3F873F"></stop><stop offset="0.3296" stop-color="#3F8B3D"></stop><stop offset="0.6367" stop-color="#3E9638"></stop><stop offset="0.9341" stop-color="#3DA92E"></stop><stop offset="1" stop-color="#3DAE2B"></stop></linearGradient><linearGradient id="paint1_linear_337_7901" x1="112.883" y1="87.586" x2="191.215" y2="29.7213" gradientUnits="userSpaceOnUse"><stop offset="0.1376" stop-color="#3F873F"></stop><stop offset="0.4016" stop-color="#52A044"></stop><stop offset="0.7129" stop-color="#64B749"></stop><stop offset="0.9081" stop-color="#6ABF4B"></stop></linearGradient><linearGradient id="paint2_linear_337_7901" x1="81.8683" y1="83.4042" x2="153.304" y2="83.4042" gradientUnits="userSpaceOnUse"><stop offset="0.0919165" stop-color="#6ABF4B"></stop><stop offset="0.2871" stop-color="#64B749"></stop><stop offset="0.5984" stop-color="#52A044"></stop><stop offset="0.8624" stop-color="#3F873F"></stop></linearGradient><clipPath id="clip0_337_7901"><rect width="319" height="195" fill="white"></rect></clipPath></defs></svg>
