<svg xmlns="http://www.w3.org/2000/svg" width="267" height="80" fill="none"><mask id="a" width="267" height="80" x="0" y="0" maskUnits="userSpaceOnUse" style="mask-type:luminance"><path fill="#fff" d="M266.96 0H0v79.988h266.96V0Z"/></mask><g mask="url(#a)"><path fill="#5FA04E" d="M234.948 78.743a4.013 4.013 0 0 1-1.933-.51l-6.12-3.657c-.921-.51-.46-.695-.184-.787 1.242-.417 1.472-.51 2.76-1.25.139-.093.323-.046.46.046l4.694 2.824c.184.093.413.093.552 0l18.36-10.695c.183-.093.277-.278.277-.51V42.86c0-.231-.094-.416-.277-.509l-18.36-10.649c-.184-.093-.415-.093-.552 0l-18.36 10.649c-.184.093-.276.324-.276.51v21.344c0 .185.092.416.276.509l5.015 2.917c2.715 1.389 4.418-.232 4.418-1.852V44.712c0-.277.23-.555.553-.555h2.347c.276 0 .552.231.552.555V65.78c0 3.658-1.979 5.787-5.431 5.787-1.057 0-1.885 0-4.233-1.157l-4.831-2.778a3.913 3.913 0 0 1-1.933-3.38V42.907c0-1.39.737-2.686 1.933-3.38l18.36-10.696c1.15-.648 2.714-.648 3.865 0l18.359 10.696a3.913 3.913 0 0 1 1.932 3.38V64.25c0 1.39-.736 2.685-1.932 3.38L236.88 78.326c-.552.232-1.243.417-1.932.417Z"/><path fill="#5FA04E" d="M240.653 64.065c-8.053 0-9.71-3.704-9.71-6.852 0-.278.23-.556.552-.556h2.393c.277 0 .506.186.506.463.368 2.454 1.427 3.658 6.305 3.658 3.865 0 5.522-.88 5.522-2.963 0-1.204-.462-2.084-6.489-2.686-5.015-.51-8.145-1.62-8.145-5.648 0-3.75 3.13-5.973 8.375-5.973 5.891 0 8.789 2.037 9.157 6.482a.755.755 0 0 1-.136.417c-.095.092-.232.185-.372.185h-2.438a.54.54 0 0 1-.505-.417c-.553-2.546-1.98-3.38-5.752-3.38-4.234 0-4.739 1.482-4.739 2.593 0 1.343.597 1.76 6.303 2.5 5.66.74 8.33 1.806 8.33 5.788 0 4.074-3.36 6.39-9.157 6.39ZM267.16 41.656c0 1.944-1.612 3.565-3.545 3.565a3.556 3.556 0 0 1-3.543-3.565 3.555 3.555 0 0 1 3.543-3.565c1.888 0 3.545 1.574 3.545 3.565Zm-6.535 0c0 1.667 1.335 3.01 2.944 3.01 1.658 0 2.992-1.39 2.992-3.01 0-1.667-1.334-2.963-2.992-2.963-1.563 0-2.944 1.296-2.944 2.963Zm1.657-1.991h1.381c.46 0 1.381 0 1.381 1.065 0 .74-.463.88-.74.972.555.046.6.417.645.926.047.324.095.88.186 1.065h-.831c0-.185-.136-1.204-.136-1.25-.045-.231-.137-.324-.413-.324h-.691v1.62h-.782v-4.074Zm.735 1.76h.598c.508 0 .598-.37.598-.556 0-.556-.368-.556-.598-.556h-.642v1.111h.044Z"/><path fill="#fff" fill-rule="evenodd" d="M43.667 41.948c0-.834-.46-1.62-1.196-2.037L23.007 28.567c-.322-.185-.69-.278-1.058-.324h-.184c-.369 0-.737.139-1.059.324L1.196 39.864A2.377 2.377 0 0 0 0 41.948L.046 72.32c0 .417.23.833.598 1.018.368.232.828.232 1.15 0l11.596-6.667a2.358 2.358 0 0 0 1.196-2.037V50.421c0-.834.46-1.62 1.197-2.037l4.923-2.87a2.217 2.217 0 0 1 1.197-.325c.414 0 .828.092 1.15.324l4.923 2.87a2.358 2.358 0 0 1 1.197 2.038v14.214c0 .834.46 1.62 1.196 2.037l11.504 6.667c.368.232.828.232 1.196 0 .368-.185.598-.601.598-1.018V41.948ZM137.444.139c-.368-.185-.828-.185-1.151 0-.368.231-.597.602-.597 1.019v30.095a.893.893 0 0 1-.415.74.875.875 0 0 1-.828 0l-4.877-2.824a2.36 2.36 0 0 0-2.347 0l-19.51 11.344a2.358 2.358 0 0 0-1.196 2.037v22.64c0 .834.46 1.621 1.196 2.038l19.51 11.344a2.36 2.36 0 0 0 2.347 0l19.51-11.344a2.358 2.358 0 0 0 1.196-2.037V8.75c0-.88-.46-1.667-1.196-2.084L137.444.14Zm-1.794 57.598c0 .23-.093.416-.276.509l-6.673 3.89a.678.678 0 0 1-.598 0l-6.672-3.89c-.184-.093-.276-.324-.276-.51v-7.778c0-.231.092-.417.276-.51l6.672-3.889a.678.678 0 0 1 .598 0l6.673 3.89c.183.092.276.324.276.51v7.777ZM202.367 49.773c.738-.417 1.151-1.204 1.151-2.038v-5.51c0-.833-.459-1.62-1.151-2.037l-19.371-11.297a2.359 2.359 0 0 0-2.347 0L161.14 40.235a2.357 2.357 0 0 0-1.197 2.037v22.64c0 .834.46 1.621 1.197 2.038l19.371 11.112c.737.417 1.611.417 2.301 0l11.734-6.575c.368-.185.598-.602.598-1.018 0-.417-.23-.834-.598-1.019l-19.602-11.344c-.368-.23-.598-.601-.598-1.018v-7.084c0-.417.23-.834.598-1.019l6.12-3.518a1.117 1.117 0 0 1 1.196 0l6.12 3.518c.368.232.597.602.597 1.02v5.555c0 .417.231.833.6 1.019.367.231.827.231 1.195 0l11.595-6.806Z" clip-rule="evenodd"/><path fill="#5FA04E" fill-rule="evenodd" d="M181.524 48.708a.417.417 0 0 1 .461 0l3.726 2.176c.138.093.23.232.23.417v4.352a.487.487 0 0 1-.23.417l-3.726 2.176a.417.417 0 0 1-.461 0l-3.727-2.176a.487.487 0 0 1-.23-.417v-4.352c0-.185.092-.324.23-.417l3.727-2.176Z" clip-rule="evenodd"/><g clip-path="url(#b)"><mask id="d" width="44" height="51" x="53" y="28" maskUnits="userSpaceOnUse" style="mask-type:alpha"><path fill="url(#c)" d="M76.348 28.96a2.385 2.385 0 0 0-2.36 0L54.507 40.205c-.74.417-1.157 1.204-1.157 2.036v22.54c0 .833.463 1.62 1.157 2.036l19.48 11.246a2.385 2.385 0 0 0 2.36 0L95.83 66.819c.74-.416 1.156-1.204 1.156-2.036v-22.54a2.412 2.412 0 0 0-1.156-2.036L76.348 28.96Z"/></mask><g mask="url(#d)"><path fill="#750787" d="M97.056 70.132H53.35v8.258h43.706v-8.258Z"/><path fill="#004DFF" d="M97.056 61.773H53.35v8.358h43.706v-8.358Z"/><path fill="#008026" d="M97.056 53.515H53.35v8.258h43.706v-8.258Z"/><path fill="#FFED00" d="M97.056 45.256H53.35v8.259h43.706v-8.259Z"/><path fill="#FF8C00" d="M97.056 36.998H53.35v8.259h43.706v-8.259Z"/><path fill="#E40303" d="M97.056 28.64H53.35v8.358h43.706V28.64Z"/></g><g opacity=".5" style="mix-blend-mode:luminosity"><path fill="#fff" d="M76.348 28.96a2.385 2.385 0 0 0-2.36 0L54.507 40.205c-.74.417-1.157 1.204-1.157 2.036v22.54c0 .833.463 1.62 1.157 2.036l19.48 11.246a2.385 2.385 0 0 0 2.36 0L95.83 66.819c.74-.416 1.156-1.204 1.156-2.036v-22.54a2.412 2.412 0 0 0-1.156-2.036L76.348 28.96Z"/><g style="mix-blend-mode:luminosity"><mask id="f" width="44" height="51" x="53" y="28" maskUnits="userSpaceOnUse" style="mask-type:alpha"><path fill="url(#e)" d="M76.348 28.96a2.385 2.385 0 0 0-2.36 0L54.507 40.205c-.74.417-1.157 1.204-1.157 2.036v22.54c0 .833.463 1.62 1.157 2.036l19.48 11.246a2.385 2.385 0 0 0 2.36 0L95.83 66.819c.74-.416 1.156-1.204 1.156-2.036v-22.54a2.412 2.412 0 0 0-1.156-2.036L76.348 28.96Z"/></mask><g mask="url(#f)"><path fill="url(#g)" d="M76.348 28.96a2.385 2.385 0 0 0-2.36 0L54.507 40.205c-.74.417-1.157 1.204-1.157 2.036v22.54c0 .833.463 1.62 1.157 2.036l19.48 11.246a2.385 2.385 0 0 0 2.36 0L95.83 66.819c.74-.416 1.156-1.204 1.156-2.036v-22.54a2.412 2.412 0 0 0-1.156-2.036L76.348 28.96Z"/><g filter="url(#h)"><path fill="url(#i)" d="M95.875 40.206 76.3 28.96a3.215 3.215 0 0 0-.601-.231l-21.885 37.49c.185.231.477.569.709.708l19.463 11.138c.556.324 1.203.417 1.805.231l20.591-37.672a1.448 1.448 0 0 0-.508-.417Z"/></g><g filter="url(#j)"><path fill="url(#k)" d="M95.826 66.818c.556-.324 1.057-.931 1.057-1.663L75.559 28.682c-.556-.092-1.157-.046-1.666.277l-19.434 11.2 20.96 38.23c.306-.05.602-.144.88-.278l19.527-11.293Z"/></g></g></g></g></g></g><defs><linearGradient id="c" x1="83.101" x2="65.483" y1="37.336" y2="73.272" gradientUnits="userSpaceOnUse"><stop stop-color="#3F873F"/><stop offset=".33" stop-color="#3F8B3D"/><stop offset=".637" stop-color="#3E9638"/><stop offset=".934" stop-color="#3DA92E"/><stop offset="1" stop-color="#3DAE2B"/></linearGradient><linearGradient id="e" x1="83.101" x2="65.483" y1="37.336" y2="73.272" gradientUnits="userSpaceOnUse"><stop stop-color="#3F873F"/><stop offset=".33" stop-color="#3F8B3D"/><stop offset=".637" stop-color="#3E9638"/><stop offset=".934" stop-color="#3DA92E"/><stop offset="1" stop-color="#3DAE2B"/></linearGradient><linearGradient id="g" x1="83.101" x2="65.483" y1="37.336" y2="73.272" gradientUnits="userSpaceOnUse"><stop stop-color="#3F873F"/><stop offset=".33" stop-color="#3F8B3D"/><stop offset=".637" stop-color="#3E9638"/><stop offset=".934" stop-color="#3DA92E"/><stop offset="1" stop-color="#3DAE2B"/></linearGradient><linearGradient id="i" x1="72.207" x2="121.636" y1="56.143" y2="19.63" gradientUnits="userSpaceOnUse"><stop offset=".138" stop-color="#3F873F"/><stop offset=".402" stop-color="#52A044"/><stop offset=".713" stop-color="#64B749"/><stop offset=".908" stop-color="#6ABF4B"/></linearGradient><linearGradient id="k" x1="52.636" x2="97.713" y1="53.505" y2="53.505" gradientUnits="userSpaceOnUse"><stop offset=".092" stop-color="#6ABF4B"/><stop offset=".287" stop-color="#64B749"/><stop offset=".598" stop-color="#52A044"/><stop offset=".862" stop-color="#3F873F"/></linearGradient><filter id="h" width="66.568" height="73.662" x="41.815" y="16.728" color-interpolation-filters="sRGB" filterUnits="userSpaceOnUse"><feFlood flood-opacity="0" result="BackgroundImageFix"/><feColorMatrix in="SourceAlpha" result="hardAlpha" values="0 0 0 0 0 0 0 0 0 0 0 0 0 0 0 0 0 0 127 0"/><feOffset/><feGaussianBlur stdDeviation="6"/><feComposite in2="hardAlpha" operator="out"/><feColorMatrix values="0 0 0 0 0 0 0 0 0 0 0 0 0 0 0 0 0 0 0.75 0"/><feBlend in2="BackgroundImageFix" result="effect1_dropShadow_1_1661"/><feBlend in="SourceGraphic" in2="effect1_dropShadow_1_1661" result="shape"/></filter><filter id="j" width="66.424" height="73.748" x="42.459" y="16.64" color-interpolation-filters="sRGB" filterUnits="userSpaceOnUse"><feFlood flood-opacity="0" result="BackgroundImageFix"/><feColorMatrix in="SourceAlpha" result="hardAlpha" values="0 0 0 0 0 0 0 0 0 0 0 0 0 0 0 0 0 0 127 0"/><feOffset/><feGaussianBlur stdDeviation="6"/><feComposite in2="hardAlpha" operator="out"/><feColorMatrix values="0 0 0 0 0 0 0 0 0 0 0 0 0 0 0 0 0 0 0.75 0"/><feBlend in2="BackgroundImageFix" result="effect1_dropShadow_1_1661"/><feBlend in="SourceGraphic" in2="effect1_dropShadow_1_1661" result="shape"/></filter><clipPath id="b"><path fill="#fff" d="M53.35 28.64h43.707v49.75H53.35z"/></clipPath></defs></svg>
