<svg width="267" height="164" viewBox="0 0 320 196" fill="none" xmlns="http://www.w3.org/2000/svg">
  <g clip-path="url(#a)">
    <mask id="b" maskUnits="userSpaceOnUse" x="0" y="0" width="320" height="196" style="mask-type:luminance">
      <path d="M320 0H0v196h320z" fill="#fff"/>
    </mask>
    <g mask="url(#b)">
      <path d="M158.119 196c-1.085 0-2.097-.289-3.038-.796l-9.62-5.716c-1.447-.795-.723-1.085-.289-1.23 1.953-.651 2.314-.795 4.34-1.953.217-.145.506-.072.723.072l7.378 4.414c.289.144.651.144.868 0l28.861-16.713c.289-.145.434-.435.434-.796v-33.354c0-.362-.145-.652-.434-.796l-28.861-16.641c-.289-.145-.651-.145-.868 0l-28.861 16.641c-.289.144-.434.506-.434.796v33.354c0 .289.145.651.434.796l7.884 4.558c4.268 2.17 6.944-.362 6.944-2.894v-32.92c0-.434.362-.869.868-.869h3.689a.88.88 0 0 1 .868.869v32.92c0 5.715-3.11 9.044-8.535 9.044-1.664 0-2.966 0-6.654-1.809l-7.595-4.341a6.11 6.11 0 0 1-3.038-5.282V140a6.11 6.11 0 0 1 3.038-5.282l28.86-16.713c1.809-1.013 4.268-1.013 6.076 0l28.861 16.713a6.11 6.11 0 0 1 3.038 5.282v33.354a6.11 6.11 0 0 1-3.038 5.282l-28.861 16.713c-.868.362-1.953.651-3.038.651" fill="#fff"/>
      <path d="M167.088 173.065c-12.658 0-15.262-5.789-15.262-10.708 0-.435.362-.869.868-.869h3.761c.434 0 .796.29.796.724.579 3.834 2.242 5.716 9.91 5.716 6.076 0 8.68-1.375 8.68-4.631 0-1.881-.724-3.256-10.199-4.196-7.885-.796-12.803-2.533-12.803-8.827 0-5.861 4.918-9.333 13.164-9.333 9.259 0 13.816 3.183 14.395 10.129q0 .325-.217.651c-.145.145-.362.289-.579.289h-3.834a.85.85 0 0 1-.795-.651c-.868-3.979-3.111-5.282-9.042-5.282-6.655 0-7.45 2.316-7.45 4.052 0 2.098.94 2.75 9.909 3.907 8.897 1.158 13.093 2.822 13.093 9.044 0 6.367-5.281 9.985-14.395 9.985m41.664-35.018c0 3.038-2.532 5.571-5.57 5.571s-5.569-2.46-5.569-5.571c0-3.184 2.604-5.572 5.569-5.572 2.966 0 5.57 2.46 5.57 5.572m-10.271 0c0 2.604 2.097 4.702 4.629 4.702 2.604 0 4.702-2.17 4.702-4.702 0-2.605-2.098-4.631-4.702-4.631-2.459 0-4.629 2.026-4.629 4.631m2.604-3.112h2.17c.723 0 2.17 0 2.17 1.664 0 1.158-.724 1.375-1.158 1.52.868.072.941.651 1.013 1.447.072.506.145 1.375.289 1.664h-1.302c0-.289-.217-1.881-.217-1.954-.072-.361-.217-.506-.651-.506h-1.085v2.532h-1.229zm1.157 2.75h.94c.796 0 .941-.579.941-.868 0-.869-.579-.869-.941-.869h-1.012v1.737z" fill="#fff"/>
      <path fill-rule="evenodd" clip-rule="evenodd" d="M68.644 65.55a3.68 3.68 0 0 0-1.88-3.183L36.165 44.64c-.506-.29-1.085-.434-1.663-.507h-.29c-.578 0-1.157.217-1.663.507L1.88 62.295A3.71 3.71 0 0 0 0 65.55l.072 47.463c0 .651.362 1.302.94 1.592.58.361 1.303.361 1.809 0l18.228-10.419a3.68 3.68 0 0 0 1.88-3.183V78.791c0-1.303.724-2.533 1.881-3.184l7.74-4.486c.578-.361 1.23-.506 1.88-.506.651 0 1.302.145 1.809.506l7.74 4.486a3.68 3.68 0 0 1 1.88 3.184v22.212a3.68 3.68 0 0 0 1.88 3.183l18.084 10.419a1.77 1.77 0 0 0 1.88 0c.58-.29.94-.941.94-1.592V65.55ZM216.058.217c-.579-.29-1.302-.29-1.809 0-.578.362-.94.94-.94 1.592v47.028c0 .434-.217.868-.651 1.158a1.38 1.38 0 0 1-1.302 0l-7.667-4.414a3.73 3.73 0 0 0-3.689 0l-30.669 17.726a3.68 3.68 0 0 0-1.881 3.184v35.38c0 1.302.724 2.532 1.881 3.183L200 122.78a3.72 3.72 0 0 0 3.689 0l30.669-17.726a3.68 3.68 0 0 0 1.881-3.183V13.674a3.71 3.71 0 0 0-1.881-3.255zm-2.821 90.005c0 .362-.145.651-.434.796l-10.488 6.078c-.29.144-.651.144-.941 0l-10.488-6.078c-.289-.145-.434-.506-.434-.796V78.067c0-.362.145-.651.434-.796l10.488-6.077c.29-.145.651-.145.941 0l10.488 6.077c.289.145.434.507.434.796zm104.882-12.444c1.158-.651 1.809-1.881 1.809-3.184v-8.61a3.77 3.77 0 0 0-1.809-3.183l-30.452-17.654a3.73 3.73 0 0 0-3.689 0l-30.669 17.726a3.68 3.68 0 0 0-1.88 3.184v35.38a3.68 3.68 0 0 0 1.88 3.183l30.452 17.365c1.158.651 2.532.651 3.617 0l18.445-10.274c.579-.29.94-.941.94-1.592s-.361-1.302-.94-1.592l-30.814-17.726c-.578-.362-.94-.94-.94-1.592V78.14c0-.65.362-1.302.94-1.591l9.62-5.499a1.77 1.77 0 0 1 1.881 0l9.62 5.499c.579.362.941.94.941 1.591v8.683c0 .65.361 1.302.94 1.591a1.77 1.77 0 0 0 1.881 0z" fill="#fff"/>
      <path fill-rule="evenodd" clip-rule="evenodd" d="M285.353 76.114a.66.66 0 0 1 .723 0l5.859 3.4a.76.76 0 0 1 .362.651v6.801a.76.76 0 0 1-.362.652l-5.859 3.4a.66.66 0 0 1-.723 0l-5.859-3.4a.76.76 0 0 1-.362-.652v-6.8a.76.76 0 0 1 .362-.652z" fill="#fff"/>
      <path fill-rule="evenodd" clip-rule="evenodd" d="M116.023 45.51a3.73 3.73 0 0 1 3.689 0l30.379 17.58c1.158.652 1.809 1.882 1.809 3.184v35.018a3.77 3.77 0 0 1-1.809 3.184l-30.379 17.581a3.73 3.73 0 0 1-3.689 0l-30.38-17.581c-1.157-.651-1.808-1.881-1.808-3.184v-35.09a3.77 3.77 0 0 1 1.808-3.183z" fill="url(#c)"/>
      <path opacity=".66" d="m149.946 63.018-30.235-17.581a5 5 0 0 0-.94-.362l-34.214 58.532c.29.362.651.651 1.013.868l30.452 17.582c.94.506 1.953.651 2.893.289l31.971-58.532a2.6 2.6 0 0 0-.94-.796" fill="#4B4B4B"/>
      <path d="m119.638 122.057 30.308-17.582c1.157-.651 1.663-1.881 1.663-3.183v-.145L118.77 45.075c-.94-.29-1.953-.145-2.821.362L85.859 62.8l32.694 59.618c.434-.073.796-.145 1.085-.362Z" fill="url(#d)"/>
    </g>
  </g>
  <defs>
    <linearGradient id="c" x1="83.828" y1="83.773" x2="151.968" y2="83.773" gradientUnits="userSpaceOnUse">
      <stop offset=".005" stop-color="#fff"/>
      <stop offset=".194" stop-color="#E8E8E8"/>
      <stop offset=".542" stop-color="#C2C2C2"/>
      <stop offset=".824" stop-color="#ABABAB"/>
      <stop offset="1" stop-color="#A3A3A3"/>
    </linearGradient>
    <linearGradient id="d" x1="83.356" y1="83.723" x2="153.647" y2="83.723" gradientUnits="userSpaceOnUse">
      <stop stop-color="#A3A3A3"/>
      <stop offset=".176" stop-color="#ABABAB"/>
      <stop offset=".458" stop-color="#C2C2C2"/>
      <stop offset=".806" stop-color="#E8E8E8"/>
      <stop offset=".995" stop-color="#fff"/>
    </linearGradient>
    <clipPath id="a">
      <path fill="#fff" d="M0 0h320v196H0z"/>
    </clipPath>
  </defs>
</svg>
