<svg width="200" height="200" viewBox="0 0 44 50" xmlns="http://www.w3.org/2000/svg">
  <defs>
    <clipPath id="hexClip">
      <path d="M22.8725 0.4166C22.136 0 21.2616 0 20.5253 0.4166L1.1505 11.6694C0.4142 12.0862 0 12.8733 0 13.707V36.2584C0 37.0921 0.4602 37.8791 1.1505 38.296L20.5253 49.5487C21.2616 49.9653 22.136 49.9653 22.8725 49.5487L42.2471 38.296C42.9836 37.8791 43.3976 37.0921 43.3976 36.2584V13.707C43.3976 12.8733 42.9375 12.0862 42.2471 11.6694L22.8725 0.4166Z" />
    </clipPath>
    <linearGradient id="main" x1="30.33" y1="8.56" x2="14.9" y2="44.7" gradientUnits="userSpaceOnUse">
      <stop stop-color="#3F8B3D"/>
      <stop offset="0.64" stop-color="#3F873F"/>
      <stop offset="0.93" stop-color="#3DA92E"/>
      <stop offset="1" stop-color="#3DAE2B"/>
    </linearGradient>
    <linearGradient id="r1" x1="18.8" y1="26.8" x2="68" y2="0.4" gradientUnits="userSpaceOnUse">
      <stop offset="0.14" stop-color="#3F873F"/>
      <stop offset="0.4" stop-color="#52A044"/>
      <stop offset="0.71" stop-color="#64B749"/>
      <stop offset="0.91" stop-color="#6ABF4B"/>
    </linearGradient>
    <linearGradient id="r2" x1="0.25" y1="24.5" x2="44" y2="24.5" gradientUnits="userSpaceOnUse">
      <stop offset="0.09" stop-color="#6ABF4B"/>
      <stop offset="0.29" stop-color="#64B749"/>
      <stop offset="0.6" stop-color="#52A044"/>
      <stop offset="0.86" stop-color="#3F873F"/>
    </linearGradient>
  </defs>
  <path fill="url(#main)" d="M22.8725 0.4166C22.136 0 21.2616 0 20.5253 0.4166L1.1505 11.6694C0.4142 12.0862 0 12.8733 0 13.707V36.2584C0 37.0921 0.4602 37.8791 1.1505 38.296L20.5253 49.5487C21.2616 49.9653 22.136 49.9653 22.8725 49.5487L42.2471 38.296C42.9836 37.8791 43.3976 37.0921 43.3976 36.2584V13.707C43.3976 12.8733 42.9375 12.0862 42.2471 11.6694L22.8725 0.4166Z" />
  <polygon fill="url(#r1)" clip-path="url(#hexClip)" points="21.698901,-1.046618 43.20532,11.948247 21.698901,51.072715 0.152778,38.055107" />
  <polygon fill="url(#r2)" clip-path="url(#hexClip)" points="21.698901,-1.046618 0.152778,11.948247 21.698901,51.072715 43.20532,38.055107" />
</svg>
