<svg width="68" height="12" viewBox="0 0 68 12" fill="none" xmlns="http://www.w3.org/2000/svg">
<g clip-path="url(#clip0_403_1471)">
<path d="M11.8622 6.04959C11.8622 9.59504 9.49462 12 5.93108 12C2.36755 12 0 9.59504 0 6.04959C0 2.50413 2.36755 0 5.93108 0C9.49462 0 11.8622 2.50413 11.8622 6.04959ZM9.66547 6.04959C9.66547 3.61983 8.1766 1.83471 5.93108 1.83471C3.68557 1.83471 2.1967 3.61983 2.1967 6.04959C2.1967 8.47934 3.68557 10.1653 5.93108 10.1653C8.1766 10.1653 9.66547 8.47934 9.66547 6.04959Z" fill="white"/>
<path d="M21.0884 0.198347L20.5514 2.40496C20.3074 2.2562 19.9656 2.13223 19.4775 2.13223C18.1839 2.13223 16.7194 3.29752 16.7194 5.72727V11.8512H14.5715V0.14876L16.0848 0.0743802C16.2801 0.966942 16.3777 2.28099 16.3777 2.80165H16.4753C16.9147 1.26446 17.891 0 19.5995 0C20.1121 0 20.6491 0.0743802 21.0884 0.198347Z" fill="white"/>
<path d="M33.3167 11.8264C33.3167 11.8264 32.7553 11.9752 32.1451 11.9752C30.9491 11.9752 30.0705 11.405 30.0705 10.0413V10.0165H30.0216C29.7043 10.6116 28.7036 12 26.0188 12C23.4804 12 22.1135 10.6612 22.1135 8.75207C22.1135 6.19835 24.5055 5.18182 29.5823 5.18182H29.924V4.43802C29.924 2.85124 28.9721 1.83471 27.0683 1.83471C25.433 1.83471 24.4323 2.50413 24.4323 3.71901C24.4323 3.99174 24.4811 4.1405 24.5543 4.31405L22.5285 4.66116C22.5285 4.66116 22.382 4.21488 22.382 3.64463C22.382 1.5124 24.1882 0 27.1171 0C30.2413 0 32.0719 1.71074 32.0719 4.41322V9.14876C32.0719 9.79339 32.2427 10.0413 32.7797 10.0413C32.9262 10.0413 33.097 10.0165 33.1946 9.99174L33.3167 11.8264ZM29.924 7.80992V6.69422H29.5823C25.6526 6.69422 24.3102 7.41322 24.3102 8.70248C24.3102 9.61983 24.9936 10.1653 26.4581 10.1653C28.7036 10.1653 29.924 8.90083 29.924 7.80992Z" fill="white"/>
<path d="M54.1608 4.73576V11.8515H51.9885V4.73576C51.9885 3.02501 51.0366 1.88452 49.3036 1.88452C47.1313 1.88452 46.0574 4.04154 46.0574 5.72749V11.8515H43.8851V4.73576C43.8851 3.02501 42.9332 1.88452 41.2003 1.88452C39.028 1.88452 37.954 4.04154 37.954 5.72749V11.8515H35.8062V0.148978L37.3194 0.0745981C37.5147 0.96716 37.6123 2.28121 37.6123 2.80187C38.1981 1.31427 39.4673 0.0498047 41.5664 0.0498047C43.6655 0.0498047 45.1055 1.09113 45.7157 2.77708C46.3259 1.28947 47.5951 0.0498047 49.6698 0.0498047C52.4278 0.0498047 54.1608 1.9341 54.1608 4.73576Z" fill="white"/>
<path d="M68 11.8264C68 11.8264 67.4387 11.9752 66.8285 11.9752C65.6325 11.9752 64.7538 11.405 64.7538 10.0413V10.0165H64.705C64.3877 10.6116 63.387 12 60.7021 12C58.1637 12 56.7969 10.6612 56.7969 8.75207C56.7969 6.19835 59.1888 5.18182 64.2656 5.18182H64.6074V4.43802C64.6074 2.85124 63.6555 1.83471 61.7516 1.83471C60.1163 1.83471 59.1156 2.50413 59.1156 3.71901C59.1156 3.99174 59.1644 4.1405 59.2377 4.31405L57.2118 4.66116C57.2118 4.66116 57.0654 4.21488 57.0654 3.64463C57.0654 1.5124 58.8715 0 61.8005 0C64.9247 0 66.7552 1.71074 66.7552 4.41322V9.14876C66.7552 9.79339 66.9261 10.0413 67.4631 10.0413C67.6095 10.0413 67.7804 10.0165 67.878 9.99174L68 11.8264ZM64.6074 7.80992V6.69422H64.2656C60.336 6.69422 58.9936 7.41322 58.9936 8.70248C58.9936 9.61983 59.677 10.1653 61.1415 10.1653C63.387 10.1653 64.6074 8.90083 64.6074 7.80992Z" fill="white"/>
</g>
<defs>
<clipPath id="clip0_403_1471">
<rect width="68" height="12" fill="white"/>
</clipPath>
</defs>
</svg>
