<svg width="938" height="1028" viewBox="0 0 938 1028" fill="none" xmlns="http://www.w3.org/2000/svg">
<rect width="90" height="90" fill="#EDF2EB"/>
<rect width="90" height="90" transform="translate(106)" fill="#C5E5B4"/>
<rect width="90" height="90" transform="translate(212)" fill="#99CC7D"/>
<rect width="90" height="90" transform="translate(318)" fill="#84BA64"/>
<rect width="90" height="90" transform="translate(424)" fill="#5FA04E"/>
<rect width="90" height="90" transform="translate(530)" fill="#417E38"/>
<rect width="90" height="90" transform="translate(636)" fill="#2C682C"/>
<rect width="90" height="90" transform="translate(742)" fill="#1A3F1D"/>
<rect width="90" height="90" transform="translate(848)" fill="#1A3F1D"/>
<rect width="90" height="90" transform="translate(0 134)" fill="#F6F7F9"/>
<rect width="90" height="90" transform="translate(106 134)" fill="#E9EDF0"/>
<rect width="90" height="90" transform="translate(212 134)" fill="#D9E1E4"/>
<rect width="90" height="90" transform="translate(318 134)" fill="#CBD4D9"/>
<rect width="90" height="90" transform="translate(424 134)" fill="#B1BCC2"/>
<rect width="90" height="90" transform="translate(530 134)" fill="#929FA5"/>
<rect width="90" height="90" transform="translate(636 134)" fill="#6E7B83"/>
<rect width="90" height="90" transform="translate(742 134)" fill="#556066"/>
<rect width="90" height="90" transform="translate(848 134)" fill="#2C3437"/>
<rect width="90" height="90" transform="translate(0 268)" fill="#FBF1F0"/>
<rect width="90" height="90" transform="translate(106 268)" fill="#FAD3D4"/>
<rect width="90" height="90" transform="translate(212 268)" fill="#FAB6B7"/>
<rect width="90" height="90" transform="translate(318 268)" fill="#FA8E8E"/>
<rect width="90" height="90" transform="translate(424 268)" fill="#F65354"/>
<rect width="90" height="90" transform="translate(530 268)" fill="#DE1A1B"/>
<rect width="90" height="90" transform="translate(636 268)" fill="#B80C0C"/>
<rect width="90" height="90" transform="translate(742 268)" fill="#900E0E"/>
<rect width="90" height="90" transform="translate(848 268)" fill="#661514"/>
<rect width="90" height="90" transform="translate(0 402)" fill="#FDF3E7"/>
<rect width="90" height="90" transform="translate(106 402)" fill="#FAD9B0"/>
<rect width="90" height="90" transform="translate(212 402)" fill="#F5BC75"/>
<rect width="90" height="90" transform="translate(318 402)" fill="#E99C40"/>
<rect width="90" height="90" transform="translate(424 402)" fill="#D07912"/>
<rect width="90" height="90" transform="translate(530 402)" fill="#AE5F00"/>
<rect width="90" height="90" transform="translate(636 402)" fill="#8B4D04"/>
<rect width="90" height="90" transform="translate(742 402)" fill="#683D08"/>
<rect width="90" height="90" transform="translate(848 402)" fill="#4D2F0B"/>
<rect width="90" height="90" transform="translate(0 536)" fill="#E9F4FA"/>
<rect width="90" height="90" transform="translate(106 536)" fill="#BCE6FC"/>
<rect width="90" height="90" transform="translate(212 536)" fill="#8ED4F8"/>
<rect width="90" height="90" transform="translate(318 536)" fill="#52BAED"/>
<rect width="90" height="90" transform="translate(424 536)" fill="#229AD6"/>
<rect width="90" height="90" transform="translate(530 536)" fill="#0C7BB3"/>
<rect width="90" height="90" transform="translate(636 536)" fill="#066291"/>
<rect width="90" height="90" transform="translate(742 536)" fill="#074D71"/>
<rect width="90" height="90" transform="translate(848 536)" fill="#0A3953"/>
<rect width="90" height="90" transform="translate(0 670)" fill="#F7F1FB"/>
<rect width="90" height="90" transform="translate(106 670)" fill="#EAD9FB"/>
<rect width="90" height="90" transform="translate(212 670)" fill="#DBBDF9"/>
<rect width="90" height="90" transform="translate(318 670)" fill="#C79BF2"/>
<rect width="90" height="90" transform="translate(424 670)" fill="#AF74E8"/>
<rect width="90" height="90" transform="translate(530 670)" fill="#9756D6"/>
<rect width="90" height="90" transform="translate(636 670)" fill="#7D3CBE"/>
<rect width="90" height="90" transform="translate(742 670)" fill="#642B9E"/>
<rect width="90" height="90" transform="translate(848 670)" fill="#361B52"/>
<rect width="90" height="90" transform="translate(0 804)" fill="#FBF0F4"/>
<rect width="90" height="90" transform="translate(106 804)" fill="#FBD4E6"/>
<rect width="90" height="90" transform="translate(212 804)" fill="#FBB4D2"/>
<rect width="90" height="90" transform="translate(318 804)" fill="#F68BB7"/>
<rect width="90" height="90" transform="translate(424 804)" fill="#ED5393"/>
<rect width="90" height="90" transform="translate(530 804)" fill="#D6246E"/>
<rect width="90" height="90" transform="translate(636 804)" fill="#B01356"/>
<rect width="90" height="90" transform="translate(742 804)" fill="#8B1245"/>
<rect width="90" height="90" transform="translate(848 804)" fill="#411526"/>
<rect width="90" height="90" transform="translate(0 938)" fill="white"/>
<rect width="90" height="90" transform="translate(106 938)" fill="#0D121C"/>
</svg>
