<svg xmlns="http://www.w3.org/2000/svg" viewBox="0 0 146.2 40" enable-background="new 0 0 146.2 40"><path fill="none" d="M-2.2-4h150v45.9h-150z"/><path fill-rule="evenodd" clip-rule="evenodd" fill="#231F20" d="M36 25.3c1.2.9 2.6 1.8 4.5 1.8 2.9 0 3.6-1.7 3.6-4v-19.9h3.1v16.3c0 1.4 0 2.9-.1 4.4-.2 3.8-2.1 6-6.5 6-3.1 0-5.3-1.3-6.2-2.2l1.6-2.4zm29.5-5.7c0-4.7-1.4-8-5.2-8-3.7 0-5.4 3.1-5.4 7.4 0 3.9.8 8.5 5.3 8.5 3.7 0 5.3-3.6 5.3-7.9zm-4.9-10.4c2.7 0 8 .9 8 9.7 0 7.7-3.8 10.9-8.7 10.9-5 0-8-3.4-8-10.4-.1-8.1 4.8-10.2 8.7-10.2zm26.8 19.3v-18.7h-3v11.7c0 2.7-1.8 4.6-4.8 4.6-4.2 0-4.4-2.3-4.4-5.3v-11h-3.1v11.9c0 4.5 2.2 6.1 5.5 6.4-1.9 1.3-4.3 3.5-4.3 6.7 0 3 1.9 4.9 5.9 4.9 4.2 0 6.7-2 7.7-5.8.4-1.3.5-3.7.5-5.4zm-7.8 8.9c3.6 0 4.8-3.1 4.8-7.4v-3.4c-4.7 2-8.1 4.1-8.1 7.8 0 1.9 1.1 3 3.3 3zm20.5-28.2c-6 0-9.1 4.8-9.1 10.6s2.6 10 8.7 10c3.1 0 5.4-1.4 6.4-2.2l-1.2-2c-.7.5-2.4 1.8-5 1.8-4.2 0-5.7-3.4-5.9-6.6h1c3.8 0 10.8-.9 10.8-6.8 0-2.8-2.1-4.8-5.7-4.8zm-.2 2.3c-4.2 0-5.8 4-5.9 7.1h.8c2.7 0 8.2-.6 8.2-4.2-.1-1.8-1.3-2.9-3.1-2.9zm13 17.8v-12.8c0-2.4 2.3-4.8 5.3-4.8 3.3 0 3.9 2.4 3.9 5.3v12.4h3.1v-13.4c0-4.5-2.2-6.8-6.2-6.8-2.6 0-4.8 1.2-6.3 3.4l-.4-2.8h-2.6l.2 2.9v16.6h3zm16.8-27.3v22c0 2.9.2 5.9 5.4 5.9 1.6 0 3.3-.5 4.4-1.3l-.9-2c-.7.4-1.6.9-3 .9-1.8 0-2.9-.8-2.9-3.4v-11.7h5.6v-2.6h-5.6v-7.8h-3zm-113.8 29.4c8.6 0 15.6-7 15.6-15.6s-7-15.6-15.6-15.6-15.6 7-15.6 15.6c.1 8.6 7 15.6 15.6 15.6zm-2.7-24c0-.3.3-.6.6-.6h4.4c.3 0 .6.3.6.6v5.6h5.6c.3 0 .6.3.6.6v4.4c0 .3-.3.6-.6.6h-5.6v5.6c0 .3-.3.6-.6.6h-4.4c-.3 0-.6-.3-.6-.6v-5.6h-5.6c-.3 0-.6-.3-.6-.6v-4.4c0-.3.3-.6.6-.6h5.6v-5.6zm128.7-3.6c0 1.1.9 2 2 2s2-.9 2-2-.9-2-2-2-2 .9-2 2zm.4 0c0-.9.7-1.7 1.6-1.7.9 0 1.6.7 1.6 1.7s-.7 1.7-1.6 1.7c-.9 0-1.6-.7-1.6-1.7zm.8 1.2h.4v-1h.4l.6 1h.4l-.7-1c.3 0 .6-.2.6-.6 0-.4-.3-.7-.8-.7h-.9v2.3zm.4-2h.5c.2 0 .5 0 .5.4s-.3.4-.6.4h-.4v-.8z"/></svg>