<svg xmlns="http://www.w3.org/2000/svg" viewBox="0 0 442.4 270.9"><defs><linearGradient id="a" x1="116.2" y1="115.8" x2="210.4" y2="115.8" gradientUnits="userSpaceOnUse"><stop offset="0" stop-color="#fff"/><stop offset=".2" stop-color="#e8e8e8"/><stop offset=".5" stop-color="#c3c3c3"/><stop offset=".8" stop-color="#ababab"/><stop offset="1" stop-color="#a3a3a3"/></linearGradient><linearGradient id="c" x1="115.5" y1="115.7" x2="212.7" y2="115.7" gradientUnits="userSpaceOnUse"><stop offset="0" stop-color="#a3a3a3"/><stop offset=".2" stop-color="#ababab"/><stop offset=".5" stop-color="#c3c3c3"/><stop offset=".8" stop-color="#e8e8e8"/><stop offset="1" stop-color="#fff"/></linearGradient><clipPath id="b" transform="translate(-.3)"><path d="M165.8 62.9a5 5 0 00-5 0l-42 24.2a5 5 0 00-2.6 4.4v48.6a5 5 0 002.6 4.4l42 24.2a5.1 5.1 0 005 0l42-24.2a5 5 0 002.6-4.4V91.5a5 5 0 00-2.6-4.4z" fill="none" clip-rule="evenodd"/></clipPath></defs><path d="M218.7 271a8.4 8.4 0 01-4.2-1.2l-13.3-7.9c-2-1.1-1-1.5-.4-1.7a26.3 26.3 0 006-2.8 1 1 0 011 .1l10.2 6a1.3 1.3 0 001.3 0l40-23a1.3 1.3 0 00.5-1v-46.2a1.3 1.3 0 00-.6-1l-40-23a1.2 1.2 0 00-1.1 0l-40 23a1.3 1.3 0 00-.6 1v46.1a1.2 1.2 0 00.6 1.1l11 6.3c6 3 9.6-.5 9.6-4v-45.5a1.1 1.1 0 011.1-1.2h5a1.1 1.1 0 011.2 1.2v45.5c0 8-4.3 12.5-11.8 12.5-2.3 0-4.1 0-9.2-2.5l-10.5-6a8.5 8.5 0 01-4.2-7.3v-46.1a8.4 8.4 0 014.2-7.3l40-23.1a8.8 8.8 0 018.3 0l40 23a8.4 8.4 0 014.2 7.4v46a8.5 8.5 0 01-4.1 7.3l-40 23.1a8.4 8.4 0 01-4.2 1.1z" fill="#fff"/><path d="M231 239.2c-17.5 0-21.2-8-21.2-14.8a1.1 1.1 0 011.2-1.1h5.2a1.1 1.1 0 011.1 1c.8 5.2 3.1 7.9 13.7 7.9 8.4 0 12-2 12-6.4 0-2.6-1-4.5-14.1-5.8-11-1-17.7-3.5-17.7-12.2 0-8 6.8-12.9 18.2-12.9 12.8 0 19.1 4.5 20 14a1.1 1.1 0 01-.4 1 1.2 1.2 0 01-.8.3H243a1.1 1.1 0 01-1.1-1c-1.3-5.5-4.3-7.2-12.5-7.2-9.2 0-10.3 3.2-10.3 5.6 0 2.9 1.3 3.7 13.7 5.4s18.1 3.9 18.1 12.5-7.2 13.7-20 13.7zm57.6-48.4a7.7 7.7 0 11-7.7-7.7 7.7 7.7 0 017.7 7.7zm-14.2 0a6.5 6.5 0 106.5-6.4 6.5 6.5 0 00-6.5 6.4zm3.6-4.3h3c1 0 3 0 3 2.3a2 2 0 01-1.6 2.1c1.1 0 1.2.9 1.4 2a8.5 8.5 0 00.4 2.3h-1.8l-.3-2.7c-.1-.5-.3-.8-1-.8h-1.4v3.5H278zm1.6 3.8h1.4a1.2 1.2 0 001.3-1.2c0-1.2-.8-1.2-1.3-1.2h-1.4z" fill="#fff"/><path d="M95 90.5a5.1 5.1 0 00-2.6-4.4L50 61.7a5.1 5.1 0 00-2.3-.6h-.5a5.2 5.2 0 00-2.3.6L2.6 86.1A5.1 5.1 0 000 90.6v65.6a2.5 2.5 0 001.4 2.2 2.5 2.5 0 002.5 0L29.1 144a5.2 5.2 0 002.6-4.5V109a5.1 5.1 0 012.5-4.4L45 98.3a5.1 5.1 0 012.5-.7 5 5 0 012.6.7l10.7 6.2a5.1 5.1 0 012.5 4.4v30.6A5.2 5.2 0 0066 144l25 14.4a2.5 2.5 0 002.6 0 2.6 2.6 0 001.3-2.2zM298.7.3a2.6 2.6 0 00-3.8 2.3v65a1.8 1.8 0 01-1 1.5 1.8 1.8 0 01-1.7 0L281.6 63a5.1 5.1 0 00-5 0L234 87.5a5 5 0 00-2.5 4.4v48.9a5.1 5.1 0 002.6 4.4l42.3 24.5a5.1 5.1 0 005.1 0l42.4-24.5a5.1 5.1 0 002.6-4.4v-122a5.1 5.1 0 00-2.7-4.4zm-4 124.4a1.3 1.3 0 01-.6 1.1l-14.5 8.4a1.3 1.3 0 01-1.3 0l-14.5-8.4a1.3 1.3 0 01-.7-1v-16.9a1.3 1.3 0 01.6-1l14.6-8.5a1.3 1.3 0 011.3 0l14.5 8.4a1.3 1.3 0 01.7 1.1zm145.1-17.2a5.1 5.1 0 002.6-4.4V91.2a5.1 5.1 0 00-2.6-4.4l-42.1-24.5a5.1 5.1 0 00-5.1 0l-42.4 24.5a5 5 0 00-2.5 4.4v49a5.1 5.1 0 002.6 4.4l42 24a5.1 5.1 0 005 0l25.5-14.2a2.6 2.6 0 000-4.5l-42.6-24.4a2.6 2.6 0 01-1.3-2.2V108a2.5 2.5 0 011.3-2.2l13.3-7.7a2.5 2.5 0 012.5 0l13.3 7.7a2.5 2.5 0 011.3 2.2v12a2.5 2.5 0 003.8 2.2z" fill="#fff" fill-rule="evenodd"/><path d="M394.5 105.2a1 1 0 011 0l8.2 4.7a1 1 0 01.5.8v9.4a1 1 0 01-.5.9l-8.1 4.7a1 1 0 01-1 0l-8.2-4.7a1 1 0 01-.4-.9v-9.4a1 1 0 01.4-.8z" fill="#fff" fill-rule="evenodd"/><path d="M160.8 62.9a5 5 0 015 0l42 24.2a5 5 0 012.6 4.4v48.6a5 5 0 01-2.6 4.4l-42 24.2a5.1 5.1 0 01-5 0l-42-24.2a5 5 0 01-2.6-4.4V91.5a5 5 0 012.6-4.4z" transform="translate(-.3)" fill-rule="evenodd" fill="url(#a)"/><g clip-path="url(#b)"><path d="M160.4 62.8l-42 24.3a5.2 5.2 0 00-2.7 4.4V140a5 5 0 001.2 3.2l47.3-80.9a5 5 0 00-3.8.6zm4 106.3a5.3 5.3 0 001-.4l42-24.3a4.9 4.9 0 002.3-4.4V91.5a5.2 5.2 0 00-1-3.3z" fill="none"/><path d="M207.3 87.1l-41.8-24.2a5 5 0 00-1.3-.6l-47.3 81a5.4 5.4 0 001.4 1.1l42 24.3a5 5 0 004.1.5l44.2-81a4.4 4.4 0 00-1.3-1.1z" fill="#4b4b4b" opacity=".7"/><path d="M118.8 86.8l-.5.3a5.2 5.2 0 00-2.6 4.4V140a5.1 5.1 0 002.6 4.4l42 24.3a5 5 0 003.7.6zm90.9 4.7a5 5 0 00-2.4-4.4l-41.8-24.2a5.2 5.2 0 00-1.2-.5l45.4 77.5z" fill="none"/><path d="M165.7 168.7l42-24.2a4.9 4.9 0 002.3-4.4v-.2l-45.4-77.5a5.2 5.2 0 00-3.9.5l-41.6 24 45.3 82.4a5.5 5.5 0 001.3-.6z" transform="translate(-.3)" fill="url(#c)"/></g></svg>