<svg xmlns="http://www.w3.org/2000/svg" viewBox="0 0 442.4 270.9"><defs><linearGradient id="a" x1="116.2" x2="210.4" y1="114.8" y2="114.8" gradientUnits="userSpaceOnUse"><stop offset="0"/><stop offset=".2" stop-color="#171717"/><stop offset=".5" stop-color="#3c3c3c"/><stop offset=".8" stop-color="#545454"/><stop offset="1" stop-color="#5c5c5c"/></linearGradient><linearGradient id="c" x1="115.5" x2="212.7" y1="114.7" y2="114.7" gradientUnits="userSpaceOnUse"><stop offset="0" stop-color="#5c5c5c"/><stop offset=".2" stop-color="#545454"/><stop offset=".5" stop-color="#3c3c3c"/><stop offset=".8" stop-color="#171717"/><stop offset="1"/></linearGradient><clipPath id="b" transform="translate(0 .7)"><path fill="none" d="M165.8 61.9a5 5 0 0 0-5 0l-42 24.2a5 5 0 0 0-2.6 4.4v48.6a5 5 0 0 0 2.6 4.4l42 24.2a5.1 5.1 0 0 0 5 0l42-24.2a5 5 0 0 0 2.6-4.4V90.5a5 5 0 0 0-2.6-4.4z" clip-rule="evenodd"/></clipPath></defs><path fill="#679e63" d="M218.7 271a8.3 8.3 0 0 1-4.2-1.2L201 262c-2-1-1-1.5-.3-1.7a26.5 26.5 0 0 0 6-2.7 1 1 0 0 1 1 0l10.2 6.1a1.3 1.3 0 0 0 1.2 0l40-23a1.3 1.3 0 0 0 .7-1.1v-46.1a1.3 1.3 0 0 0-.7-1.1l-39.9-23a1.2 1.2 0 0 0-1.2 0l-40 23a1.3 1.3 0 0 0-.6 1.1v46.1a1.2 1.2 0 0 0 .6 1l11 6.4c6 3 9.6-.5 9.6-4v-45.6a1.1 1.1 0 0 1 1.1-1.1h5a1.1 1.1 0 0 1 1.2 1.1v45.5c0 8-4.3 12.5-11.8 12.5-2.3 0-4.1 0-9.2-2.5l-10.5-6a8.4 8.4 0 0 1-4.2-7.3v-46.1a8.4 8.4 0 0 1 4.2-7.3l40-23.1a8.7 8.7 0 0 1 8.4 0l40 23a8.4 8.4 0 0 1 4.2 7.4v46a8.5 8.5 0 0 1-4.2 7.4l-40 23a8.3 8.3 0 0 1-4.2 1.2z"/><path fill="#679e63" d="M231 239.2c-17.5 0-21.2-8-21.2-14.8a1.1 1.1 0 0 1 1.2-1.1h5.1a1.2 1.2 0 0 1 1.2 1c.8 5.2 3.1 7.9 13.7 7.9 8.4 0 12-2 12-6.4 0-2.6-1-4.5-14.1-5.7-11-1.1-17.7-3.5-17.7-12.3 0-8 6.8-12.9 18.2-12.9 12.8 0 19.1 4.5 20 14a1.1 1.1 0 0 1-1.2 1.3H243a1.1 1.1 0 0 1-1.1-.9c-1.3-5.5-4.3-7.3-12.5-7.3-9.2 0-10.3 3.2-10.3 5.6 0 3 1.3 3.8 13.7 5.4s18.2 3.9 18.2 12.5-7.3 13.7-20 13.7zm57.6-48.4a7.7 7.7 0 1 1-7.7-7.7 7.7 7.7 0 0 1 7.7 7.7zm-14.1 0a6.5 6.5 0 1 0 6.4-6.4 6.5 6.5 0 0 0-6.4 6.4zm3.5-4.3h3c1 0 3 0 3 2.3a2 2 0 0 1-1.6 2.2c1.2 0 1.3.8 1.4 1.9a8.4 8.4 0 0 0 .5 2.3h-1.9l-.3-2.7c-.1-.5-.3-.8-.9-.8h-1.5v3.5H278zm1.7 3.8h1.3a1.2 1.2 0 0 0 1.3-1.2c0-1.2-.8-1.2-1.3-1.2h-1.4z"/><path fill="#333" fill-rule="evenodd" d="M95 90.6a5.1 5.1 0 0 0-2.6-4.5L50 61.7a5 5 0 0 0-2.3-.6h-.4a5 5 0 0 0-2.4.6L2.6 86.1A5.1 5.1 0 0 0 0 90.6v65.6a2.5 2.5 0 0 0 1.4 2.2 2.5 2.5 0 0 0 2.5 0L29 144a5.2 5.2 0 0 0 2.5-4.4v-30.7a5 5 0 0 1 2.6-4.4l10.7-6.2a5.1 5.1 0 0 1 2.6-.7 5 5 0 0 1 2.5.7l10.7 6.2a5 5 0 0 1 2.6 4.4v30.7a5.2 5.2 0 0 0 2.6 4.4L91 158.4a2.5 2.5 0 0 0 2.6 0 2.5 2.5 0 0 0 1.3-2.2zM298.8.3a2.6 2.6 0 0 0-3.8 2.3v65a1.8 1.8 0 0 1-2.7 1.5L281.7 63a5.1 5.1 0 0 0-5.1 0l-42.4 24.5a5.1 5.1 0 0 0-2.6 4.4v49a5.1 5.1 0 0 0 2.6 4.4l42.3 24.4a5 5 0 0 0 5.2 0l42.3-24.4a5.1 5.1 0 0 0 2.6-4.5v-122a5.1 5.1 0 0 0-2.6-4.4zm-4 124.4a1.3 1.3 0 0 1-.6 1.1l-14.6 8.4a1.3 1.3 0 0 1-1.2 0l-14.6-8.4a1.3 1.3 0 0 1-.6-1v-16.9a1.3 1.3 0 0 1 .6-1l14.6-8.5a1.3 1.3 0 0 1 1.2 0l14.6 8.4a1.3 1.3 0 0 1 .6 1.1zm145.1-17.2a5.1 5.1 0 0 0 2.5-4.4V91.2a5.1 5.1 0 0 0-2.5-4.4l-42.1-24.4a5.1 5.1 0 0 0-5.2 0l-42.3 24.4a5.1 5.1 0 0 0-2.6 4.4v49a5 5 0 0 0 2.6 4.4l42 24a5.1 5.1 0 0 0 5 0l25.5-14.2a2.6 2.6 0 0 0 0-4.4l-42.5-24.5a2.5 2.5 0 0 1-1.3-2.2V108a2.6 2.6 0 0 1 1.3-2.2l13.2-7.7a2.6 2.6 0 0 1 2.6 0l13.3 7.6a2.6 2.6 0 0 1 1.3 2.2V120a2.5 2.5 0 0 0 3.8 2.2z"/><path fill="#679e63" fill-rule="evenodd" d="M394.6 105.2a1 1 0 0 1 1 0l8.1 4.7a1 1 0 0 1 .5.8v9.4a1 1 0 0 1-.5.9l-8.1 4.7a1 1 0 0 1-1 0l-8.2-4.7a1 1 0 0 1-.5-.8v-9.5a1 1 0 0 1 .5-.8z"/><path fill="url(#a)" fill-rule="evenodd" d="M160.8 61.9a5 5 0 0 1 5 0l42 24.2a5 5 0 0 1 2.6 4.4v48.6a5 5 0 0 1-2.6 4.4l-42 24.2a5.1 5.1 0 0 1-5 0l-42-24.2a5 5 0 0 1-2.6-4.4V90.5a5 5 0 0 1 2.6-4.4z" transform="translate(0 .7)"/><g clip-path="url(#b)"><path fill="none" d="m160.7 62.6-42 24.3a5.2 5.2 0 0 0-2.7 4.3v48.6a5 5 0 0 0 1.2 3.2l47.3-81a5 5 0 0 0-3.8.6zm4 106.3a5.3 5.3 0 0 0 1-.4l42-24.3a4.9 4.9 0 0 0 2.3-4.4V91.2a5.2 5.2 0 0 0-1-3.2z"/><path fill="#b4b4b4" d="m207.6 86.9-41.8-24.3a5 5 0 0 0-1.3-.5L117.2 143a5.4 5.4 0 0 0 1.4 1.2l42 24.3a5 5 0 0 0 4.1.4l44.2-81a4.4 4.4 0 0 0-1.3-1z" opacity=".7"/><path fill="none" d="m119 86.6-.4.3a5.2 5.2 0 0 0-2.6 4.3v48.6a5.1 5.1 0 0 0 2.6 4.4l42 24.3a5 5 0 0 0 3.7.5zm91 4.7a5 5 0 0 0-2.4-4.4l-41.8-24.3a5.2 5.2 0 0 0-1.2-.5l45.4 77.5z"/><path fill="url(#c)" d="m165.7 167.7 42-24.2a4.9 4.9 0 0 0 2.3-4.4v-.2l-45.4-77.5a5.2 5.2 0 0 0-3.9.5l-41.6 24 45.3 82.4a5.5 5.5 0 0 0 1.3-.6z" transform="translate(0 .7)"/></g></svg>