<svg xmlns="http://www.w3.org/2000/svg" width="1728" height="720" viewBox="0 0 1728 720"><path fill="#fff" d="M260.4 405.2c0-5.1-3.1-10.2-7.1-12.2l-115.9-67.1c-2-1-4.1-2-6.1-2h-1c-2 0-4.1 1-6.1 2L7.1 393C3 395 0 400.1 0 405.2v180c0 2 1 5.1 3.1 6.1s5.1 1 7.1 0l69.2-39.7c4.1-3.1 7.1-7.1 7.1-12.2V455c0-5.1 3.1-9.2 7.1-12.2l29.5-17.3c2-1 5.1-2 7.1-2s5.1 1 7.1 2l29.5 17.3c4.1 2 7.1 7.1 7.1 12.2v84.4c0 5.1 3.1 9.2 7.1 12.2l69.2 39.7c2 1 5.1 1 7.1 0s3.1-3.1 3.1-6.1v-180zm619.4-247.1c-2-1-5.1-1-7.1 0s-3.1 3.1-3.1 6.1v178c0 2-1 3.1-2 4.1-1 1-3.1 1-5.1 0L833 330c-4.1-2-10.2-2-14.2 0l-115.9 67.1c-4.1 2-7.1 7.1-7.1 12.2v134.3c0 5.1 3.1 9.2 7.1 12.2l115.9 67.1c4.1 2 10.2 2 14.2 0l115.9-67.1c4.1-2 7.1-7.1 7.1-12.2V208.9c0-5.1-3.1-10.2-7.1-12.2l-69.1-38.6zm-11.2 340.7c0 1-1 2-2 3.1l-39.7 23.4c-1 1-2 1-3.1 0l-39.7-23.4c-1-1-2-2-2-3.1V453c0-1 1-2 2-3.1l39.7-23.4c1-1 2-1 3.1 0l39.7 23.4c1 1 2 2 2 3.1v45.8zm426.1-47.8c4.1-2 7.1-7.1 7.1-12.2v-32.5c0-5.1-3.1-9.2-7.1-12.2L1179.8 328c-4.1-2-10.2-2-14.2 0l-115.9 67.1c-4.1 2-7.1 7.1-7.1 12.2v134.3c0 5.1 3.1 10.2 7.1 12.2l114.9 66.1c4.1 2 9.2 2 14.2 0l70.2-38.6c2-1 4.1-3.1 4.1-6.1 0-2-1-5.1-3.1-6.1L1133 502c-2-1-3.1-4.1-3.1-6.1V454c0-2 1-5.1 3.1-6.1l36.6-21.4c2-1 5.1-1 7.1 0l36.6 21.4c2 1 3.1 4.1 3.1 6.1v32.5c0 2 1 5.1 3.1 6.1s5.1 1 7.1 0l68.1-41.6z"/><path fill="#80bd01" d="M470.9 326.9c4.1-2 10.2-2 14.2 0l116 67.1c4.1 2 7.1 7.1 7.1 12.2v134.3c0 5.1-3.1 9.2-7.1 12.2l-115.9 67.1c-4.1 2-10.2 2-14.2 0l-116-67.1c-4.1-2-7.1-7.1-7.1-12.2V406.2c0-5.1 3.1-9.2 7.1-12.2l115.9-67.1zm1049.6 293.9c-4.1 0-8.1-1-11.2-3.1l-36.6-21.4c-5.1-3.1-3.1-4.1-1-5.1 7.1-2 9.2-3.1 16.3-7.1h3.1l28.5 16.3c1 1 2 1 3.1 0l109.8-63.1c1-1 2-2 2-3.1V409.3c0-1-1-2-2-3.1l-109.8-63.1c-1-1-2-1-3.1 0l-109.8 63.1c-1 1-2 2-2 3.1v126.1c0 1 1 2 2 3.1l29.5 17.3c16.3 8.1 26.4-1 26.4-11.2V419.5c0-2 1-3.1 3.1-3.1h14.2c2 0 3.1 1 3.1 3.1v125.1c0 21.4-12.2 34.6-32.5 34.6-6.1 0-11.2 0-25.4-7.1l-28.5-16.3c-7.1-4.1-11.2-12.2-11.2-20.3V409.3c0-8.1 4.1-16.3 11.2-20.3l109.8-63.1c7.1-4.1 16.3-4.1 23.4 0l109.8 63.1c7.1 4.1 11.2 12.2 11.2 20.3v126.1c0 8.1-4.1 16.3-11.2 20.3l-109.8 63.1c-5.3 1-8.3 2-12.4 2z"/><path fill="#80bd01" d="M1554.1 534.4c-47.8 0-58-22.4-58-40.7 0-2 1-3.1 3.1-3.1h14.2c2 0 3.1 1 3.1 3.1 2 14.2 8.1 21.4 37.6 21.4 23.4 0 32.5-5.1 32.5-17.3 0-7.1-3.1-12.2-38.6-16.3-29.5-3.1-48.8-9.2-48.8-33.6 0-22.4 18.3-35.6 49.8-35.6 34.6 0 52.9 12.2 54.9 38.6 0 1 0 2-1 2-1 1-1 1-2 1h-14.2c-1 0-3.1-1-3.1-2-3.1-15.3-11.2-20.3-34.6-20.3-25.4 0-28.5 9.2-28.5 15.3 0 8.1 3.1 10.2 37.6 15.3 33.6 4.1 49.8 11.2 49.8 34.6.1 23.4-19.2 37.6-53.8 37.6zm-383.5-89.5h3.1l22.4 13.2c1 0 1 1 1 2v25.4c0 1-1 2-1 2l-22.4 13.2h-3.1l-22.4-13.2c-1 0-1-1-1-2v-25.4c0-1 1-2 1-2l22.4-13.2zm557.4-85.4c0 11.2-9.2 21.4-21.4 21.4-11.2 0-21.4-9.2-21.4-21.4s10.2-21.4 21.4-21.4c12.2 1 21.4 10.2 21.4 21.4zm-38.6 0c0 10.2 8.1 17.3 17.3 17.3 10.2 0 17.3-8.1 17.3-17.3 0-10.2-8.1-17.3-17.3-17.3-9.2 0-17.3 8.1-17.3 17.3zm10.1-11.2h8.1c3.1 0 8.1 0 8.1 6.1 0 4.1-3.1 5.1-4.1 6.1 3.1 0 3.1 2 4.1 5.1 0 2 1 5.1 1 6.1h-5.1c0-1-1-7.1-1-7.1 0-1-1-2-2-2h-4.1v9.2h-5.1l.1-23.5zm4.1 10.1h4.1c3.1 0 4.1-2 4.1-3.1 0-3.1-2-3.1-3.1-3.1h-4.1v6.1h-1z"/></svg>